# Blender v2.91.2 OBJ File: ''
# www.blender.org
mtllib ball.mtl
o ForestCannonBall_Sphere
v 0.000000 -0.440764 -0.182571
v 0.000000 -0.337346 -0.337346
v 0.238540 -0.337346 -0.238540
v 0.129097 -0.440764 -0.129097
v 0.000000 -0.182571 -0.440764
v 0.000000 0.000000 -0.477080
v 0.337346 0.000000 -0.337346
v 0.311667 -0.182571 -0.311667
v 0.000000 0.182571 -0.440764
v 0.000000 0.337346 -0.337346
v 0.238540 0.337346 -0.238540
v 0.311667 0.182571 -0.311667
v 0.000000 0.440764 -0.182571
v 0.000000 0.477080 0.000000
v 0.129097 0.440764 -0.129097
v 0.000000 -0.477080 -0.000000
v 0.182570 -0.440764 -0.000000
v 0.440764 -0.182571 -0.000000
v 0.337346 -0.337346 -0.000000
v 0.440764 0.182571 0.000000
v 0.477080 0.000000 0.000000
v 0.182570 0.440764 0.000000
v 0.337346 0.337346 0.000000
v 0.311667 0.182571 0.311667
v 0.337346 -0.000000 0.337346
v 0.129097 0.440764 0.129097
v 0.238540 0.337346 0.238540
v 0.238540 -0.337346 0.238540
v 0.129097 -0.440764 0.129097
v 0.311667 -0.182571 0.311667
v 0.000000 -0.337346 0.337346
v 0.000000 -0.440764 0.182570
v 0.000000 -0.000000 0.477080
v 0.000000 -0.182571 0.440764
v 0.000000 0.337346 0.337346
v 0.000000 0.182571 0.440764
v 0.000000 0.440764 0.182570
v -0.238540 0.337346 0.238540
v -0.311667 0.182571 0.311667
v -0.129097 0.440764 0.129097
v -0.129097 -0.440764 0.129097
v -0.311667 -0.182571 0.311667
v -0.238540 -0.337346 0.238540
v -0.337346 -0.000000 0.337346
v -0.182570 -0.440764 -0.000000
v -0.440764 -0.182571 -0.000000
v -0.337346 -0.337346 -0.000000
v -0.440764 0.182571 0.000000
v -0.477080 0.000000 0.000000
v -0.182570 0.440764 0.000000
v -0.337346 0.337346 0.000000
v -0.129097 0.440764 -0.129097
v -0.238540 0.337346 -0.238540
v -0.238540 -0.337346 -0.238540
v -0.129097 -0.440764 -0.129097
v -0.337346 0.000000 -0.337346
v -0.311667 -0.182571 -0.311667
v -0.311667 0.182571 -0.311667
vt 0.814721 0.680682
vt 0.813345 0.678991
vt 0.815385 0.677745
vt 0.816380 0.679873
vt 0.812398 0.677740
vt 0.811589 0.676609
vt 0.813715 0.675011
vt 0.814542 0.676267
vt 0.810781 0.675478
vt 0.809834 0.674227
vt 0.811614 0.672654
vt 0.812790 0.673837
vt 0.808457 0.672536
vt 0.805670 0.668000
vt 0.809798 0.671280
vt 0.817509 0.685218
vt 0.818512 0.679567
vt 0.817222 0.674718
vt 0.818030 0.676722
vt 0.814955 0.671686
vt 0.816215 0.673087
vt 0.810829 0.669456
vt 0.813298 0.670471
vt 0.817605 0.668252
vt 0.819758 0.670187
vt 0.811292 0.666797
vt 0.814851 0.667036
vt 0.822051 0.676029
vt 0.821409 0.680162
vt 0.821295 0.672766
vt 0.829722 0.676661
vt 0.825449 0.683121
vt 0.826510 0.664118
vt 0.829722 0.669697
vt 0.815439 0.660618
vt 0.821308 0.660942
vt 0.810162 0.663051
vt 0.793457 0.683521
vt 0.793457 0.676557
vt 0.801128 0.677189
vt 0.801884 0.680452
vt 0.797730 0.670097
vt 0.801770 0.673056
vt 0.813017 0.690167
vt 0.811887 0.686421
vt 0.807740 0.692601
vt 0.801870 0.692276
vt 0.805574 0.684966
vt 0.808328 0.686182
vt 0.796669 0.689100
vt 0.803421 0.683031
vt 0.812350 0.683762
vt 0.808224 0.681532
vt 0.809881 0.682747
vt 0.805956 0.678500
vt 0.806964 0.680131
vt 0.804667 0.673651
vt 0.805148 0.676496
vt 0.806799 0.673345
vt 0.807793 0.675473
vt 0.811564 0.680564
vt 0.813381 0.681938
vt 0.809464 0.678207
vt 0.810389 0.679381
vt 0.808637 0.676951
vn -0.0000 -0.9063 -0.4226
vn -0.0000 -0.6839 -0.7296
vn 0.5159 -0.6839 -0.5159
vn 0.2988 -0.9063 -0.2988
vn 0.0000 -0.3668 -0.9303
vn 0.0000 0.0000 -1.0000
vn 0.7071 0.0000 -0.7071
vn 0.6578 -0.3668 -0.6578
vn -0.0000 0.3668 -0.9303
vn 0.0000 0.6839 -0.7296
vn 0.5159 0.6839 -0.5159
vn 0.6578 0.3668 -0.6578
vn 0.0000 0.9063 -0.4226
vn -0.0000 1.0000 0.0000
vn 0.2988 0.9063 -0.2988
vn 0.0000 -1.0000 0.0000
vn 0.4226 -0.9063 -0.0000
vn 0.9303 -0.3668 -0.0000
vn 0.7296 -0.6839 -0.0000
vn 0.9303 0.3668 0.0000
vn 1.0000 0.0000 0.0000
vn 0.4226 0.9063 0.0000
vn 0.7296 0.6839 0.0000
vn 0.6578 0.3668 0.6578
vn 0.7071 -0.0000 0.7071
vn 0.2988 0.9063 0.2988
vn 0.5159 0.6839 0.5159
vn 0.5159 -0.6839 0.5159
vn 0.2988 -0.9063 0.2988
vn 0.6578 -0.3668 0.6578
vn 0.0000 -0.6839 0.7296
vn 0.0000 -0.9063 0.4226
vn 0.0000 -0.0000 1.0000
vn 0.0000 -0.3668 0.9303
vn 0.0000 0.6839 0.7296
vn -0.0000 0.3668 0.9303
vn 0.0000 0.9063 0.4226
vn -0.5159 0.6839 0.5159
vn -0.6578 0.3668 0.6578
vn -0.2988 0.9063 0.2988
vn -0.2988 -0.9063 0.2988
vn -0.6578 -0.3668 0.6578
vn -0.5159 -0.6839 0.5159
vn -0.7071 -0.0000 0.7071
vn -0.4226 -0.9063 -0.0000
vn -0.9303 -0.3668 -0.0000
vn -0.7296 -0.6839 -0.0000
vn -0.9303 0.3668 0.0000
vn -1.0000 -0.0000 0.0000
vn -0.4226 0.9063 0.0000
vn -0.7296 0.6839 0.0000
vn -0.2988 0.9063 -0.2988
vn -0.5159 0.6839 -0.5159
vn -0.5159 -0.6839 -0.5159
vn -0.2988 -0.9063 -0.2988
vn -0.7071 0.0000 -0.7071
vn -0.6578 -0.3668 -0.6578
vn -0.6578 0.3668 -0.6578
usemtl MainMaterial.003
s 1
f 1/1/1 2/2/2 3/3/3 4/4/4
f 5/5/5 6/6/6 7/7/7 8/8/8
f 9/9/9 10/10/10 11/11/11 12/12/12
f 13/13/13 14/14/14 15/15/15
f 16/16/16 1/1/1 4/4/4
f 2/2/2 5/5/5 8/8/8 3/3/3
f 6/6/6 9/9/9 12/12/12 7/7/7
f 10/10/10 13/13/13 15/15/15 11/11/11
f 16/16/16 4/4/4 17/17/17
f 3/3/3 8/8/8 18/18/18 19/19/19
f 7/7/7 12/12/12 20/20/20 21/21/21
f 11/11/11 15/15/15 22/22/22 23/23/23
f 4/4/4 3/3/3 19/19/19 17/17/17
f 8/8/8 7/7/7 21/21/21 18/18/18
f 12/12/12 11/11/11 23/23/23 20/20/20
f 15/15/15 14/14/14 22/22/22
f 21/21/21 20/20/20 24/24/24 25/25/25
f 23/23/23 22/22/22 26/26/26 27/27/27
f 17/17/17 19/19/19 28/28/28 29/29/29
f 18/18/18 21/21/21 25/25/25 30/30/30
f 20/20/20 23/23/23 27/27/27 24/24/24
f 22/22/22 14/14/14 26/26/26
f 16/16/16 17/17/17 29/29/29
f 19/19/19 18/18/18 30/30/30 28/28/28
f 29/29/29 28/28/28 31/31/31 32/32/32
f 30/30/30 25/25/25 33/33/33 34/34/34
f 24/24/24 27/27/27 35/35/35 36/36/36
f 26/26/26 14/14/14 37/37/37
f 16/16/16 29/29/29 32/32/32
f 28/28/28 30/30/30 34/34/34 31/31/31
f 25/25/25 24/24/24 36/36/36 33/33/33
f 27/27/27 26/26/26 37/37/37 35/35/35
f 36/38/36 35/39/35 38/40/38 39/41/39
f 37/42/37 14/14/14 40/43/40
f 16/16/16 32/44/32 41/45/41
f 31/46/31 34/47/34 42/48/42 43/49/43
f 33/50/33 36/38/36 39/41/39 44/51/44
f 35/39/35 37/42/37 40/43/40 38/40/38
f 32/44/32 31/46/31 43/49/43 41/45/41
f 34/47/34 33/50/33 44/51/44 42/48/42
f 16/16/16 41/45/41 45/52/45
f 43/49/43 42/48/42 46/53/46 47/54/47
f 44/51/44 39/41/39 48/55/48 49/56/49
f 38/40/38 40/43/40 50/57/50 51/58/51
f 41/45/41 43/49/43 47/54/47 45/52/45
f 42/48/42 44/51/44 49/56/49 46/53/46
f 39/41/39 38/40/38 51/58/51 48/55/48
f 40/43/40 14/14/14 50/57/50
f 51/58/51 50/57/50 52/59/52 53/60/53
f 45/52/45 47/54/47 54/61/54 55/62/55
f 46/53/46 49/56/49 56/63/56 57/64/57
f 48/55/48 51/58/51 53/60/53 58/65/58
f 50/57/50 14/14/14 52/59/52
f 16/16/16 45/52/45 55/62/55
f 47/54/47 46/53/46 57/64/57 54/61/54
f 49/56/49 48/55/48 58/65/58 56/63/56
f 55/62/55 54/61/54 2/2/2 1/1/1
f 57/64/57 56/63/56 6/6/6 5/5/5
f 58/65/58 53/60/53 10/10/10 9/9/9
f 52/59/52 14/14/14 13/13/13
f 16/16/16 55/62/55 1/1/1
f 54/61/54 57/64/57 5/5/5 2/2/2
f 56/63/56 58/65/58 9/9/9 6/6/6
f 53/60/53 52/59/52 13/13/13 10/10/10
