# Blender v2.90.1 OBJ File: ''
# www.blender.org
mtllib ArrowTower.mtl
o DesertTower_Cube.002
v 1.243146 2.991294 1.662104
v 1.244220 4.326126 1.663446
v 1.244220 4.326126 1.351967
v 1.243146 2.991294 1.350894
v 1.555699 4.326125 1.351967
v 1.554356 2.991294 1.350894
v 1.555699 4.326125 1.663446
v 1.554356 2.991294 1.662104
v 1.534485 -0.816153 1.642232
v 1.918530 -0.816153 1.642232
v 1.918530 -0.816153 2.026278
v 1.534485 -0.816153 2.026278
v -1.557748 2.991294 1.662104
v -1.559090 4.326126 1.663446
v -1.559090 4.326126 1.351967
v -1.557748 2.991294 1.350894
v -1.247611 4.326126 1.351967
v -1.246537 2.991294 1.350894
v -1.247611 4.326126 1.663446
v -1.246537 2.991294 1.662104
v -1.921923 -0.816153 1.642232
v -1.537877 -0.816153 1.642232
v -1.537877 -0.816153 2.026278
v -1.921923 -0.816153 2.026278
v -1.557748 2.991294 -1.138789
v -1.559090 4.326126 -1.139863
v -1.559090 4.326126 -1.451342
v -1.557748 2.991295 -1.449999
v -1.247611 4.326126 -1.451342
v -1.246537 2.991295 -1.449999
v -1.247611 4.326126 -1.139863
v -1.246537 2.991295 -1.138789
v -1.921923 -0.816153 -1.814175
v -1.537877 -0.816153 -1.814175
v -1.537877 -0.816153 -1.430130
v -1.921923 -0.816153 -1.430130
v 1.243146 2.991294 -1.138789
v 1.244220 4.326126 -1.139863
v 1.244220 4.326126 -1.451342
v 1.243146 2.991295 -1.449999
v 1.555699 4.326125 -1.451342
v 1.554356 2.991295 -1.449999
v 1.555699 4.326125 -1.139863
v 1.554356 2.991294 -1.138789
v 1.534485 -0.816153 -1.814175
v 1.918530 -0.816153 -1.814175
v 1.918530 -0.816153 -1.430130
v 1.534485 -0.816153 -1.430130
v -1.771988 2.718055 1.876344
v -1.771988 3.118055 1.876344
v -1.771988 3.118056 -1.664240
v -1.771988 2.718055 -1.664240
v -0.973724 3.118056 -1.664240
v -0.973724 2.718055 -1.664240
v -0.973724 3.118055 1.876344
v -0.973724 2.718055 1.876344
v 0.023613 2.718055 -1.659481
v 0.899980 2.718055 -1.659481
v 0.899980 2.718055 1.297598
v 0.023613 2.718055 1.297598
v 0.023613 3.118056 -1.659481
v 0.899980 3.118056 -1.659481
v 0.023613 3.118055 1.297598
v 0.899980 3.118055 1.297598
v 0.951334 2.718055 1.876344
v 0.951334 3.118055 1.876344
v 0.951334 3.118056 -1.664240
v 0.951334 2.718055 -1.664240
v 1.768596 3.118056 -1.664240
v 1.768596 2.718055 -1.664240
v 1.768596 3.118055 1.876344
v 1.768596 2.718055 1.876344
v -0.919609 2.718055 -1.659481
v -0.043243 2.718055 -1.659481
v -0.043243 2.718055 1.297598
v -0.919609 2.718055 1.297598
v -0.919609 3.118056 -1.659481
v -0.043243 3.118056 -1.659481
v -0.919609 3.118055 1.297598
v -0.043243 3.118055 1.297598
v 1.198737 3.833735 -1.493802
v 1.586109 3.833735 -1.493802
v 1.586109 3.833733 1.705905
v 1.198737 3.833733 1.705905
v 1.198737 4.000222 -1.493802
v 1.586109 4.000222 -1.493802
v 1.198737 4.000222 1.705905
v 1.586109 4.000222 1.705905
v -1.591882 3.833735 -1.493802
v -1.204510 3.833735 -1.493802
v -1.204510 3.833733 1.705905
v -1.591882 3.833733 1.705905
v -1.591882 4.000222 -1.493802
v -1.204510 4.000222 -1.493802
v -1.591882 4.000222 1.705905
v -1.204510 4.000222 1.705905
v -1.204583 3.833735 -1.276868
v -1.204510 3.833735 -1.493802
v 1.198737 3.833735 -1.493802
v 1.198665 3.833735 -1.276868
v 1.198665 4.000222 -1.276868
v -1.204583 4.000222 -1.276868
v -1.204510 4.000222 -1.493802
v 1.198737 4.000222 -1.493802
v 1.198737 3.833733 1.705906
v 1.198737 4.000222 1.705906
v -1.204510 4.000222 1.705905
v -1.204510 3.833733 1.705905
v -1.204438 3.833733 1.488972
v 1.198809 3.833733 1.488972
v -1.204438 4.000222 1.488972
v 1.198809 4.000222 1.488972
v -1.289150 0.284679 -1.703412
v -1.256775 0.668995 -1.667204
v -1.256775 0.668892 1.892936
v -1.289151 0.284789 1.931326
v -1.455054 0.298532 -1.702106
v -1.422679 0.682848 -1.665898
v -1.455055 0.298633 1.929942
v -1.422680 0.682737 1.891552
v 1.444866 0.296283 -1.702318
v 1.421495 0.681244 -1.666050
v 1.421494 0.681135 1.891712
v 1.444866 0.296385 1.930166
v 1.278683 0.286283 -1.703260
v 1.255311 0.671244 -1.666991
v 1.278682 0.286391 1.931166
v 1.255310 0.671139 1.892711
v 1.481964 0.676536 -1.598542
v 1.739200 0.676536 -1.337366
v -1.457019 0.676536 1.810644
v -1.714255 0.676536 1.549469
v 1.481964 0.843024 -1.598542
v 1.739200 0.843024 -1.337366
v -1.714255 0.843023 1.549469
v -1.457019 0.843023 1.810644
v -1.702307 0.676536 -1.351540
v -1.442928 0.676536 -1.610588
v 1.727252 0.676536 1.563643
v 1.467873 0.676536 1.822691
v -1.702307 0.843024 -1.351540
v -1.442928 0.843024 -1.610588
v 1.467873 0.843023 1.822691
v 1.727252 0.843023 1.563643
v -1.822848 0.296283 -1.329074
v -1.786511 0.681244 -1.305808
v 1.771235 0.681135 -1.316208
v 1.809621 0.296385 -1.339692
v -1.823304 0.286283 -1.162889
v -1.786967 0.671244 -1.139623
v 1.811106 0.286391 -1.173512
v 1.772720 0.671140 -1.150027
vt 0.525416 0.620983
vt 0.525205 0.628284
vt 0.524333 0.628159
vt 0.524553 0.620971
vt 0.523565 0.627129
vt 0.523703 0.620809
vt 0.522869 0.628218
vt 0.522615 0.620700
vt 0.521998 0.628358
vt 0.521737 0.620866
vt 0.524741 0.600296
vt 0.523703 0.601175
vt 0.522765 0.599833
vt 0.523873 0.597591
vt 0.523615 0.629805
vt 0.533676 0.620616
vt 0.533305 0.627994
vt 0.532424 0.627777
vt 0.532811 0.620566
vt 0.531739 0.626713
vt 0.531780 0.620565
vt 0.531040 0.627732
vt 0.530749 0.620499
vt 0.530157 0.627893
vt 0.529884 0.620494
vt 0.532894 0.600030
vt 0.531908 0.601212
vt 0.530939 0.599967
vt 0.531932 0.597591
vt 0.531722 0.629282
vt 0.529489 0.621041
vt 0.529089 0.628502
vt 0.528221 0.628284
vt 0.528615 0.620795
vt 0.527546 0.627132
vt 0.527527 0.620805
vt 0.526759 0.628092
vt 0.526674 0.620889
vt 0.525885 0.628137
vt 0.525812 0.620822
vt 0.528855 0.599932
vt 0.527893 0.601187
vt 0.526872 0.600215
vt 0.527790 0.597591
vt 0.527446 0.629801
vt 0.521082 0.621610
vt 0.520843 0.628787
vt 0.519987 0.628655
vt 0.520213 0.621399
vt 0.519235 0.627523
vt 0.519332 0.621205
vt 0.518449 0.628539
vt 0.518448 0.621266
vt 0.517591 0.628543
vt 0.517574 0.621346
vt 0.520669 0.600247
vt 0.519641 0.601186
vt 0.518645 0.600095
vt 0.519697 0.597591
vt 0.519192 0.630294
vt 0.521737 0.600031
vt 0.525805 0.600141
vt 0.517574 0.600300
vt 0.521731 0.600613
vt 0.525812 0.599963
vt 0.529878 0.600223
vt 0.529884 0.599717
vt 0.533951 0.599848
vt 0.468875 0.632396
vt 0.468875 0.624400
vt 0.476871 0.624400
vt 0.476871 0.632396
vt 0.476871 0.612799
vt 0.484867 0.612799
vt 0.484867 0.614601
vt 0.476871 0.614601
vt 0.476871 0.622597
vt 0.468875 0.622597
vt 0.468875 0.614601
vt 0.460879 0.614601
vt 0.460879 0.612799
vt 0.468875 0.612799
vt 0.456715 0.600639
vt 0.456715 0.602712
vt 0.448719 0.602712
vt 0.448719 0.600639
vt 0.464711 0.600639
vt 0.464711 0.602712
vt 0.448719 0.592643
vt 0.456715 0.592643
vt 0.440723 0.602712
vt 0.440723 0.600639
vt 0.456715 0.610708
vt 0.456715 0.612782
vt 0.448719 0.612782
vt 0.448719 0.610708
vt 0.466574 0.600639
vt 0.466574 0.592643
vt 0.474569 0.592643
vt 0.474569 0.600639
vt 0.482565 0.600639
vt 0.482565 0.602484
vt 0.474569 0.602484
vt 0.474569 0.610480
vt 0.466574 0.610480
vt 0.466574 0.602484
vt 0.464728 0.600639
vt 0.464728 0.592643
vt 0.474569 0.612326
vt 0.466574 0.612326
vt 0.452866 0.628790
vt 0.450793 0.628790
vt 0.450793 0.620795
vt 0.452866 0.620795
vt 0.452866 0.636786
vt 0.450793 0.636786
vt 0.460862 0.620795
vt 0.460862 0.628790
vt 0.450793 0.612799
vt 0.452866 0.612799
vt 0.442797 0.628790
vt 0.440723 0.628790
vt 0.440723 0.620795
vt 0.442797 0.620795
vt 0.456715 0.600639
vt 0.456715 0.602712
vt 0.448719 0.602712
vt 0.448719 0.600639
vt 0.464711 0.600639
vt 0.464711 0.602712
vt 0.448719 0.592643
vt 0.456715 0.592643
vt 0.440723 0.602712
vt 0.440723 0.600639
vt 0.456715 0.610708
vt 0.456715 0.612782
vt 0.448719 0.612782
vt 0.448719 0.610708
vt 0.456715 0.600639
vt 0.456715 0.602712
vt 0.448719 0.602712
vt 0.448719 0.600639
vt 0.464711 0.600639
vt 0.464711 0.602712
vt 0.448719 0.592643
vt 0.456715 0.592643
vt 0.440723 0.602712
vt 0.440723 0.600639
vt 0.456715 0.610708
vt 0.456715 0.612782
vt 0.448719 0.612782
vt 0.448719 0.610708
vt 0.456715 0.600639
vt 0.456715 0.602712
vt 0.448719 0.602712
vt 0.448719 0.600639
vt 0.448719 0.592643
vt 0.456715 0.592643
vt 0.456715 0.610708
vt 0.456715 0.612782
vt 0.448719 0.612782
vt 0.448719 0.610708
vt 0.448719 0.600639
vt 0.448719 0.592643
vt 0.456715 0.592643
vt 0.456715 0.600639
vt 0.456715 0.602712
vt 0.448719 0.602712
vt 0.456715 0.610708
vt 0.456715 0.612782
vt 0.448719 0.612782
vt 0.448719 0.610708
vt 0.456715 0.600639
vt 0.456715 0.602712
vt 0.448719 0.602712
vt 0.448719 0.600639
vt 0.464711 0.600639
vt 0.464711 0.602712
vt 0.448719 0.592643
vt 0.456715 0.592643
vt 0.440723 0.602712
vt 0.440723 0.600639
vt 0.456715 0.610708
vt 0.456715 0.612782
vt 0.448719 0.612782
vt 0.448719 0.610708
vt 0.456715 0.600639
vt 0.456715 0.602712
vt 0.448719 0.602712
vt 0.448719 0.600639
vt 0.464711 0.600639
vt 0.464711 0.602712
vt 0.448719 0.592643
vt 0.456715 0.592643
vt 0.440723 0.602712
vt 0.440723 0.600639
vt 0.456715 0.610708
vt 0.456715 0.612782
vt 0.448719 0.612782
vt 0.448719 0.610708
vt 0.456715 0.600639
vt 0.456715 0.602712
vt 0.448719 0.602712
vt 0.448719 0.600639
vt 0.464711 0.600639
vt 0.464711 0.602712
vt 0.448719 0.592643
vt 0.456715 0.592643
vt 0.440723 0.602712
vt 0.440723 0.600639
vt 0.456715 0.610708
vt 0.456715 0.612782
vt 0.448719 0.612782
vt 0.448719 0.610708
vt 0.456715 0.600639
vt 0.456715 0.602712
vt 0.448719 0.602712
vt 0.448719 0.600639
vt 0.464711 0.600639
vt 0.464711 0.602712
vt 0.448719 0.592643
vt 0.456715 0.592643
vt 0.440723 0.602712
vt 0.440723 0.600639
vt 0.456715 0.610708
vt 0.456715 0.612782
vt 0.448719 0.612782
vt 0.448719 0.610708
vt 0.456715 0.600639
vt 0.456715 0.602712
vt 0.448719 0.602712
vt 0.448719 0.600639
vt 0.464711 0.600639
vt 0.464711 0.602712
vt 0.448719 0.592643
vt 0.456715 0.592643
vt 0.440723 0.602712
vt 0.440723 0.600639
vt 0.456715 0.610708
vt 0.456715 0.612782
vt 0.448719 0.612782
vt 0.448719 0.610708
vn -1.0000 0.0008 0.0000
vn -0.0000 0.0008 -1.0000
vn 1.0000 -0.0010 0.0000
vn 0.0000 -0.0010 1.0000
vn 0.0000 -1.0000 0.0000
vn 0.0000 1.0000 0.0000
vn -1.0000 -0.0010 0.0000
vn 1.0000 0.0008 0.0000
vn -0.0000 -0.0010 -1.0000
vn 0.0000 0.0008 1.0000
vn 0.0000 0.0952 0.9955
vn 0.9955 0.0952 0.0000
vn 0.0000 -0.0763 -0.9971
vn -0.9971 -0.0763 0.0000
vn 0.0000 -0.0763 0.9971
vn 0.0000 0.0952 -0.9955
vn 0.9971 -0.0763 0.0000
vn -0.9955 0.0952 0.0000
vn -1.0000 0.0000 0.0000
vn 0.0000 0.0000 -1.0000
vn 1.0000 0.0000 0.0000
vn 0.0000 0.0000 1.0000
vn 0.9965 -0.0840 0.0000
vn -0.0000 0.0938 -0.9956
vn -0.0832 -0.9965 0.0000
vn -0.0000 0.0995 0.9950
vn -0.9965 0.0840 -0.0000
vn 0.0832 0.9965 0.0000
vn 0.9982 0.0606 0.0000
vn 0.0601 -0.9982 0.0000
vn -0.9982 -0.0606 -0.0000
vn -0.0601 0.9982 0.0000
vn 0.7125 0.0000 -0.7017
vn -0.7017 0.0000 -0.7125
vn -0.7125 0.0000 0.7017
vn 0.7017 0.0000 0.7125
vn -0.7067 0.0000 -0.7076
vn -0.7076 0.0000 0.7067
vn 0.7067 0.0000 0.7076
vn 0.7076 0.0000 -0.7067
vn -0.0029 0.0606 -0.9982
vn -0.9956 0.0938 0.0029
vn -0.0001 -0.9982 -0.0600
vn 0.9950 0.0995 -0.0029
vn 0.0029 -0.0606 0.9982
vn 0.0002 0.9982 0.0600
usemtl MainMaterial.002
s 1
f 1/1/1 2/2/1 3/3/1 4/4/1
f 4/4/2 3/3/2 5/5/2 6/6/2
f 6/6/3 5/5/3 7/7/3 8/8/3
f 8/8/4 7/7/4 2/9/4 1/10/4
f 9/11/5 10/12/5 11/13/5 12/14/5
f 5/5/6 3/3/6 2/15/6 7/7/6
f 13/16/7 14/17/7 15/18/7 16/19/7
f 16/19/2 15/18/2 17/20/2 18/21/2
f 18/21/8 17/20/8 19/22/8 20/23/8
f 20/23/4 19/22/4 14/24/4 13/25/4
f 21/26/5 22/27/5 23/28/5 24/29/5
f 17/20/6 15/18/6 14/30/6 19/22/6
f 25/31/7 26/32/7 27/33/7 28/34/7
f 28/34/9 27/33/9 29/35/9 30/36/9
f 30/36/8 29/35/8 31/37/8 32/38/8
f 32/38/10 31/37/10 26/39/10 25/40/10
f 33/41/5 34/42/5 35/43/5 36/44/5
f 29/35/6 27/33/6 26/45/6 31/37/6
f 37/46/1 38/47/1 39/48/1 40/49/1
f 40/49/9 39/48/9 41/50/9 42/51/9
f 42/51/3 41/50/3 43/52/3 44/53/3
f 44/53/10 43/52/10 38/54/10 37/55/10
f 45/56/5 46/57/5 47/58/5 48/59/5
f 41/50/6 39/48/6 38/60/6 43/52/6
f 11/13/11 8/8/11 1/10/11 12/61/11
f 10/12/12 6/6/12 8/8/12 11/13/12
f 9/11/13 4/4/13 6/6/13 10/12/13
f 12/62/14 1/1/14 4/4/14 9/11/14
f 47/58/15 44/53/15 37/55/15 48/63/15
f 46/57/12 42/51/12 44/53/12 47/58/12
f 45/56/16 40/49/16 42/51/16 46/57/16
f 48/64/14 37/46/14 40/49/14 45/56/14
f 35/43/15 32/38/15 25/40/15 36/65/15
f 34/42/17 30/36/17 32/38/17 35/43/17
f 33/41/16 28/34/16 30/36/16 34/42/16
f 36/66/18 25/31/18 28/34/18 33/41/18
f 23/28/11 20/23/11 13/25/11 24/67/11
f 22/27/17 18/21/17 20/23/17 23/28/17
f 21/26/13 16/19/13 18/21/13 22/27/13
f 24/68/18 13/16/18 16/19/18 21/26/18
f 49/69/19 50/70/19 51/71/19 52/72/19
f 52/73/20 51/74/20 53/75/20 54/76/20
f 54/76/21 53/77/21 55/78/21 56/79/21
f 56/79/22 55/80/22 50/81/22 49/82/22
f 52/73/5 54/76/5 56/79/5 49/82/5
f 53/77/6 51/71/6 50/70/6 55/78/6
f 57/83/5 58/84/5 59/85/5 60/86/5
f 57/83/20 61/87/20 62/88/20 58/84/20
f 60/86/19 63/89/19 61/90/19 57/83/19
f 59/85/22 64/91/22 63/92/22 60/86/22
f 62/93/6 61/94/6 63/95/6 64/96/6
f 58/84/21 62/93/21 64/96/21 59/85/21
f 65/97/19 66/98/19 67/99/19 68/100/19
f 68/100/20 67/101/20 69/102/20 70/103/20
f 70/103/21 69/104/21 71/105/21 72/106/21
f 72/107/22 71/108/22 66/98/22 65/97/22
f 68/100/5 70/103/5 72/106/5 65/97/5
f 69/104/6 67/109/6 66/110/6 71/105/6
f 73/111/5 74/112/5 75/113/5 76/114/5
f 73/111/20 77/115/20 78/116/20 74/112/20
f 76/114/19 79/117/19 77/118/19 73/111/19
f 75/113/22 80/119/22 79/120/22 76/114/22
f 78/121/6 77/122/6 79/123/6 80/124/6
f 74/112/21 78/121/21 80/124/21 75/113/21
f 81/125/5 82/126/5 83/127/5 84/128/5
f 81/125/20 85/129/20 86/130/20 82/126/20
f 84/128/19 87/131/19 85/132/19 81/125/19
f 83/127/22 88/133/22 87/134/22 84/128/22
f 86/135/6 85/136/6 87/137/6 88/138/6
f 82/126/21 86/135/21 88/138/21 83/127/21
f 89/139/5 90/140/5 91/141/5 92/142/5
f 89/139/20 93/143/20 94/144/20 90/140/20
f 92/142/19 95/145/19 93/146/19 89/139/19
f 91/141/22 96/147/22 95/148/22 92/142/22
f 94/149/6 93/150/6 95/151/6 96/152/6
f 90/140/21 94/149/21 96/152/21 91/141/21
f 97/153/5 98/154/5 99/155/5 100/156/5
f 100/156/22 101/157/22 102/158/22 97/153/22
f 103/159/6 102/160/6 101/161/6 104/162/6
f 98/154/20 103/159/20 104/162/20 99/155/20
f 105/163/22 106/164/22 107/165/22 108/166/22
f 108/166/5 109/167/5 110/168/5 105/163/5
f 111/169/6 107/170/6 106/171/6 112/172/6
f 109/167/20 111/169/20 112/172/20 110/168/20
f 113/173/23 114/174/23 115/175/23 116/176/23
f 113/173/24 117/177/24 118/178/24 114/174/24
f 116/176/25 119/179/25 117/180/25 113/173/25
f 115/175/26 120/181/26 119/182/26 116/176/26
f 118/183/27 117/184/27 119/185/27 120/186/27
f 114/174/28 118/183/28 120/186/28 115/175/28
f 121/187/29 122/188/29 123/189/29 124/190/29
f 121/187/24 125/191/24 126/192/24 122/188/24
f 124/190/30 127/193/30 125/194/30 121/187/30
f 123/189/26 128/195/26 127/196/26 124/190/26
f 126/197/31 125/198/31 127/199/31 128/200/31
f 122/188/32 126/197/32 128/200/32 123/189/32
f 129/201/5 130/202/5 131/203/5 132/204/5
f 129/201/33 133/205/33 134/206/33 130/202/33
f 132/204/34 135/207/34 133/208/34 129/201/34
f 131/203/35 136/209/35 135/210/35 132/204/35
f 134/211/6 133/212/6 135/213/6 136/214/6
f 130/202/36 134/211/36 136/214/36 131/203/36
f 137/215/5 138/216/5 139/217/5 140/218/5
f 137/215/37 141/219/37 142/220/37 138/216/37
f 140/218/38 143/221/38 141/222/38 137/215/38
f 139/217/39 144/223/39 143/224/39 140/218/39
f 142/225/6 141/226/6 143/227/6 144/228/6
f 138/216/40 142/225/40 144/228/40 139/217/40
f 145/229/41 146/230/41 147/231/41 148/232/41
f 145/229/42 149/233/42 150/234/42 146/230/42
f 148/232/43 151/235/43 149/236/43 145/229/43
f 147/231/44 152/237/44 151/238/44 148/232/44
f 150/239/45 149/240/45 151/241/45 152/242/45
f 146/230/46 150/239/46 152/242/46 147/231/46
