# Blender v2.91.0 OBJ File: ''
# www.blender.org
mtllib catapult_base.mtl
o ForestCatapultBase_Cube.002
v -1.000000 0.036273 -0.057147
v -1.000000 0.372352 -0.057147
v -1.000000 0.372352 -0.857147
v -1.000000 0.036273 -0.857147
v 1.000000 0.036273 0.742853
v 1.000000 0.372352 0.742853
v 1.000000 0.372352 1.542853
v 1.000000 0.036273 1.542853
v -0.825442 0.372352 -0.628097
v -0.825442 0.372352 -0.286197
v -0.825442 1.750207 -0.286197
v -0.825442 1.750207 -0.628096
v 1.000000 0.036273 -0.857147
v 1.000000 0.372352 -0.857147
v 1.000000 0.372352 -0.057147
v 1.000000 0.036273 -0.057147
v -1.000000 0.036273 1.542853
v -1.000000 0.372352 1.542853
v -1.000000 0.372352 0.742853
v -1.000000 0.036273 0.742853
v 0.825442 0.372352 -0.286197
v 0.825442 0.372352 -0.628097
v 0.825442 1.750207 -0.628096
v 0.825442 1.750207 -0.286197
v 0.507891 0.372352 -0.628097
v 0.333333 0.372352 -0.857147
v 0.507891 0.372352 -0.286197
v 0.333333 0.372352 0.146840
v -0.507891 0.372352 -0.628097
v -0.333333 0.372352 -0.857147
v -0.507891 0.372352 -0.286197
v -0.333333 0.372352 0.146840
v -0.507891 1.750207 -0.628096
v -0.507891 1.750207 -0.286197
v 0.507891 1.750207 -0.628096
v 0.507891 1.750207 -0.286197
v 0.879753 0.372352 0.826593
v 0.879753 0.372352 1.506345
v -0.879753 0.372352 1.506345
v -0.879753 0.372352 0.826593
v -0.879753 0.372352 0.146840
v 0.879753 0.372352 0.146840
v 0.333333 0.372352 0.146840
v -0.333333 0.372352 0.146840
v -1.000000 0.481715 -0.957147
v -1.000000 -0.061468 -0.957147
v -0.879753 0.450165 1.506345
v -0.879753 0.450165 0.826593
v 0.879753 0.450165 0.146840
v 0.879753 0.450165 0.826593
v -0.333333 0.450165 0.146840
v 0.333333 0.450165 0.146840
v -0.879753 0.450165 0.146840
v 0.879753 0.450165 1.506345
v 1.000000 0.481715 -0.957147
v 1.000000 -0.061468 -0.957147
v 1.000000 0.481715 -0.857147
v -1.000000 0.481715 -0.857147
v -1.000000 -0.061468 -0.857147
v 1.000000 -0.061468 -0.857147
vt 0.462220 0.611890
vt 0.478089 0.611987
vt 0.478077 0.615015
vt 0.461863 0.614948
vt 0.455542 0.609080
vt 0.439674 0.608983
vt 0.439686 0.605956
vt 0.455900 0.606022
vt 0.440767 0.592945
vt 0.444439 0.592945
vt 0.444437 0.632136
vt 0.440766 0.632136
vt 0.455869 0.614870
vt 0.439692 0.615011
vt 0.439674 0.611996
vt 0.455554 0.611939
vt 0.461894 0.606100
vt 0.478071 0.605960
vt 0.478089 0.608975
vt 0.462209 0.609031
vt 0.467879 0.592947
vt 0.471558 0.592952
vt 0.470368 0.632229
vt 0.466689 0.632224
vt 0.454441 0.623727
vt 0.454441 0.622607
vt 0.455013 0.621857
vt 0.455013 0.624478
vt 0.449478 0.622607
vt 0.448438 0.622607
vt 0.447866 0.621857
vt 0.450050 0.621857
vt 0.448438 0.623727
vt 0.447866 0.624478
vt 0.449478 0.623727
vt 0.450050 0.624478
vt 0.453401 0.622607
vt 0.452829 0.621857
vt 0.453401 0.623727
vt 0.452829 0.624478
vt 0.451446 0.632170
vt 0.448086 0.632976
vt 0.447830 0.631776
vt 0.462974 0.632961
vt 0.459679 0.632244
vt 0.463325 0.631749
vt 0.447849 0.592945
vt 0.452711 0.592948
vt 0.463361 0.592945
vt 0.456260 0.592945
vt 0.459679 0.592945
vt 0.456260 0.632244
vt 0.456124 0.592953
vt 0.454859 0.632175
vt 0.461508 0.596111
vt 0.456033 0.596101
vt 0.448295 0.627098
vt 0.448295 0.629325
vt 0.447866 0.629719
vt 0.447866 0.627098
vt 0.454583 0.629325
vt 0.454583 0.627098
vt 0.455013 0.627098
vt 0.455013 0.629719
vt 0.454605 0.624872
vt 0.448274 0.624872
vt 0.450126 0.624872
vt 0.452752 0.624872
vt 0.076919 0.317058
vt 0.093133 0.317125
vt 0.093133 0.317125
vt 0.076919 0.317058
vt 0.460960 0.615141
vt 0.460960 0.617368
vt 0.460960 0.617368
vt 0.460960 0.615141
vt 0.454672 0.615141
vt 0.454650 0.612914
vt 0.454650 0.612914
vt 0.454672 0.615141
vt 0.456503 0.612914
vt 0.459129 0.612914
vt 0.459129 0.612914
vt 0.456503 0.612914
vt 0.460982 0.612914
vt 0.460982 0.612914
vt 0.454672 0.617368
vt 0.454672 0.617368
vt 0.468342 0.619829
vt 0.462055 0.619829
vt 0.462055 0.617602
vt 0.462033 0.615375
vt 0.463886 0.615375
vt 0.466511 0.615375
vt 0.468364 0.615375
vt 0.468342 0.617602
vt 0.075088 0.326910
vt 0.071311 0.326969
vt 0.070925 0.316980
vt 0.450050 0.621857
vt 0.452829 0.621857
vt 0.076919 0.317058
vt 0.093133 0.317125
vt 0.054748 0.317121
vt 0.070925 0.316980
vt 0.054748 0.317121
vt 0.070925 0.316980
vt 0.067885 0.323967
vt 0.065106 0.323967
vt 0.065106 0.323967
vt 0.067885 0.323967
vt 0.054748 0.317121
vt 0.461863 0.614948
vt 0.455869 0.614870
vt 0.455013 0.621857
vn -1.0000 0.0000 0.0000
vn 1.0000 0.0000 0.0000
vn -0.0000 1.0000 0.0000
vn 0.0000 -0.0000 1.0000
vn 0.0000 0.0000 -1.0000
vn 0.0000 -1.0000 -0.0000
usemtl MainMaterial.001
s 1
f 1/1/1 2/2/1 3/3/1 4/4/1
f 5/5/2 6/6/2 7/7/2 8/8/2
f 9/9/1 10/10/1 11/11/1 12/12/1
f 13/13/2 14/14/2 15/15/2 16/16/2
f 16/16/2 15/15/2 6/6/2 5/5/2
f 17/17/1 18/18/1 19/19/1 20/20/1
f 20/20/1 19/19/1 2/2/1 1/1/1
f 21/21/2 22/22/2 23/23/2 24/24/2
f 10/25/3 9/26/3 3/27/3 2/28/3
f 25/29/3 22/30/3 14/31/3 26/32/3
f 22/30/3 21/33/3 15/34/3 14/31/3
f 21/33/3 27/35/3 28/36/3 15/34/3
f 9/26/3 29/37/3 30/38/3 3/27/3
f 31/39/3 10/25/3 2/28/3 32/40/3
f 27/35/3 25/29/3 26/32/3 28/36/3
f 29/37/3 31/39/3 32/40/3 30/38/3
f 33/41/3 12/42/3 11/11/3 34/43/3
f 23/44/3 35/45/3 36/46/3 24/24/3
f 31/47/2 29/48/2 33/41/2 34/43/2
f 10/10/4 31/47/4 34/43/4 11/11/4
f 27/49/4 21/21/4 24/24/4 36/46/4
f 22/50/5 25/51/5 35/45/5 23/52/5
f 25/51/1 27/49/1 36/46/1 35/45/1
f 29/48/5 9/53/5 12/54/5 33/41/5
f 30/38/3 32/40/3 28/36/3 26/32/3
f 20/20/6 5/5/6 8/8/6 17/17/6
f 4/4/6 13/13/6 16/16/6 1/1/6
f 1/1/6 16/16/6 5/5/6 20/20/6
f 18/55/4 17/17/4 8/8/4 7/56/4
f 37/57/3 38/58/3 7/59/3 6/60/3
f 39/61/3 40/62/3 19/63/3 18/64/3
f 40/62/3 41/65/3 2/28/3 19/63/3
f 42/66/3 37/57/3 6/60/3 15/34/3
f 43/67/3 42/66/3 15/34/3 28/36/3
f 41/65/3 44/68/3 32/40/3 2/28/3
f 44/68/4 43/67/4 28/36/4 32/40/4
f 38/58/3 39/61/3 18/64/3 7/59/3
usemtl Material.006
f 4/69/1 3/70/1 45/71/1 46/72/1
f 40/73/1 39/74/1 47/75/1 48/76/1
f 37/77/2 42/78/2 49/79/2 50/80/2
f 43/81/5 44/82/5 51/83/5 52/84/5
f 42/78/5 43/81/5 52/84/5 49/79/5
f 41/85/1 40/73/1 48/76/1 53/86/1
f 38/87/2 37/77/2 50/80/2 54/88/2
f 39/74/4 38/87/4 54/88/4 47/75/4
f 44/82/5 41/85/5 53/86/5 51/83/5
f 47/89/3 54/90/3 50/91/3 49/92/3 52/93/3 51/94/3 53/95/3 48/96/3
f 45/97/5 55/98/5 56/99/5 46/72/5
f 30/38/4 26/32/4 57/100/4 58/101/4
f 4/69/1 46/72/1 59/102/1
f 45/71/1 3/70/1 58/103/1
f 14/104/2 13/105/2 56/99/2 55/106/2
f 60/107/6 59/102/6 46/72/6 56/99/6
f 58/108/3 57/109/3 55/110/3 45/111/3
f 26/32/4 14/31/4 57/100/4
f 14/104/2 55/106/2 57/112/2
f 13/13/4 4/4/4 59/113/4 60/114/4
f 56/99/2 13/105/2 60/107/2
f 3/27/4 30/38/4 58/115/4
