# Blender v2.77 (sub 0) OBJ File: 'iron crossbow.blend'
# www.blender.org
mtllib crossbow_bolt.mtl
o iron_bolt
v 1.156891 0.122574 0.515453
v 1.115538 0.153735 0.515453
v 1.156891 0.122574 0.631585
v 1.115538 0.153735 0.631585
v 1.158003 0.124050 0.515453
v 1.116650 0.155212 0.515453
v 1.158003 0.124050 0.631585
v 1.116650 0.155212 0.631585
v 1.059964 0.131452 0.515453
v 1.104806 0.157342 0.515453
v 1.059963 0.131452 0.631585
v 1.104806 0.157342 0.631585
v 1.060888 0.129852 0.515453
v 1.105730 0.155741 0.515453
v 1.060888 0.129852 0.631585
v 1.105730 0.155741 0.631585
v 1.110878 0.215324 0.515453
v 1.110878 0.163545 0.515453
v 1.110878 0.215324 0.631585
v 1.110878 0.163545 0.631585
v 1.109029 0.215324 0.515453
v 1.109029 0.163545 0.515453
v 1.109029 0.215324 0.631585
v 1.109029 0.163545 0.631585
v 1.082931 0.155813 1.425398
v 1.082931 0.155813 1.425398
v 1.109029 0.166216 1.425398
v 1.109029 0.166943 0.453440
v 1.109029 0.166943 0.453440
v 1.109029 0.166943 0.453440
v 1.097964 0.155813 0.453440
v 1.097964 0.155813 0.453440
v 1.097964 0.155813 0.453440
v 1.135127 0.155813 1.425398
v 1.120095 0.155813 0.453440
v 1.120095 0.155813 0.453440
v 1.120095 0.155813 0.453440
v 1.109029 0.145411 1.425398
v 1.109029 0.144683 0.453440
v 1.109029 0.144683 0.453440
v 1.109029 0.144683 0.453440
v 1.109029 0.155813 1.563401
v 1.109029 0.145361 1.372009
v 1.109029 0.145361 1.372009
v 1.109029 0.145361 1.372009
v 1.098637 0.155813 1.372009
v 1.098637 0.155813 1.372009
v 1.098637 0.155813 1.372009
v 1.098637 0.155813 1.372009
v 1.109029 0.166266 1.372009
v 1.109029 0.166266 1.372009
v 1.109029 0.166266 1.372009
v 1.119421 0.155813 1.372009
v 1.119421 0.155813 1.372009
v 1.119421 0.155813 1.372009
vt 0.7390 0.0964
vt 0.9163 0.0964
vt 0.9163 0.0174
vt 0.7390 0.0174
vt 0.7390 0.0964
vt 0.7390 0.0174
vt 0.9163 0.0174
vt 0.9163 0.0964
vt 0.7390 0.0964
vt 0.9163 0.0964
vt 0.9163 0.0174
vt 0.7390 0.0174
vt 0.7390 0.0964
vt 0.7390 0.0174
vt 0.9163 0.0174
vt 0.9163 0.0964
vt 0.7390 0.0964
vt 0.9163 0.0964
vt 0.9163 0.0174
vt 0.7390 0.0174
vt 0.7390 0.0964
vt 0.7390 0.0174
vt 0.9163 0.0174
vt 0.9163 0.0964
vt 0.9613 0.9621
vt 0.9613 0.9782
vt 0.0276 0.9796
vt 0.0276 0.9634
vt 0.8586 0.8331
vt 0.8575 0.8573
vt 0.8018 0.8498
vt 0.8030 0.8331
vt 0.8587 0.8855
vt 0.9865 0.8330
vt 0.9613 0.9621
vt 0.9613 0.9786
vt 0.0276 0.9787
vt 0.0276 0.9636
vt 0.8575 0.8089
vt 0.8587 0.7806
vt 0.8018 0.8165
vt 0.9613 0.9636
vt 0.9613 0.9796
vt 0.0276 0.9796
vt 0.0276 0.9634
vt 0.0648 0.9645
vt 0.0648 0.9770
vt 0.0523 0.9771
vt 0.0523 0.9646
vt 0.8007 0.8003
vt 0.8008 0.8660
vt 0.9612 0.9633
vt 0.9612 0.9798
vt 0.0276 0.9796
vt 0.0276 0.9634
vn -0.6018 -0.7986 -0.0000
vn 0.6018 0.7986 0.0000
vn -0.5000 0.8660 -0.0000
vn 0.5000 -0.8660 0.0000
vn 1.0000 0.0000 0.0000
vn -1.0000 0.0000 -0.0000
vn -0.7091 0.7051 0.0005
vn 0.3703 -0.9289 0.0009
vn 0.6942 -0.6902 -0.2042
vn -0.3694 -0.9267 0.0699
vn 0.7091 0.7051 0.0005
vn -0.3694 0.9267 0.0698
vn 0.3694 -0.9267 0.0699
vn 0.3681 0.9235 -0.1083
vn 0.7092 0.7051 0.0007
vn -0.7092 -0.7051 0.0005
vn -0.7091 -0.7051 0.0005
vn 0.0000 0.0000 -1.0000
vn -0.3703 0.9289 0.0009
vn -0.6942 0.6902 -0.2042
vn 0.3694 0.9267 0.0699
vn -0.3681 -0.9235 -0.1083
vn -0.7092 -0.7051 0.0007
vn 0.7092 -0.7051 0.0005
vn 0.7091 -0.7051 0.0005
usemtl wire_0830550
s off
f 1/1/1 3/2/1 4/3/1
f 1/1/1 4/3/1 2/4/1
f 5/5/2 6/6/2 8/7/2
f 5/5/2 8/7/2 7/8/2
f 9/9/3 11/10/3 12/11/3
f 9/9/3 12/11/3 10/12/3
f 13/13/4 14/14/4 16/15/4
f 13/13/4 16/15/4 15/16/4
f 17/17/5 19/18/5 20/19/5
f 17/17/5 20/19/5 18/20/5
f 21/21/6 22/22/6 24/23/6
f 21/21/6 24/23/6 23/24/6
f 46/25/7 50/26/7 28/27/7
f 46/25/7 28/27/7 31/28/7
f 34/29/8 38/30/8 43/31/8
f 34/29/9 43/31/9 53/32/9
f 25/33/10 38/30/10 42/34/10
f 51/35/11 54/36/11 35/37/11
f 51/35/11 35/37/11 29/38/11
f 27/39/12 26/40/12 42/34/12
f 38/30/13 34/29/13 42/34/13
f 27/39/14 34/29/14 53/32/14
f 27/39/15 53/32/15 52/41/15
f 44/42/16 47/43/16 32/44/16
f 44/42/17 32/44/17 39/45/17
f 30/46/18 36/47/18 40/48/18
f 30/46/18 40/48/18 33/49/18
f 26/40/19 27/39/19 52/41/19
f 26/40/20 52/41/20 48/50/20
f 34/29/21 27/39/21 42/34/21
f 38/30/22 25/33/22 49/51/22
f 38/30/23 49/51/23 43/31/23
f 55/52/24 45/53/24 41/54/24
f 55/52/25 41/54/25 37/55/25
