# Blender v2.90.1 OBJ File: 'BannerThing.blend'
# www.blender.org
mtllib Floating_Banner.mtl
o BannerD_Cube.016
v -0.042452 -0.824985 -0.952000
v 0.035094 -0.825141 -0.952000
v 0.035095 -0.825141 0.952000
v -0.042452 -0.824985 0.951999
v -0.030601 1.097973 -0.952000
v 0.030600 1.097973 -0.951999
v 0.030600 1.097973 0.952000
v -0.030600 1.097973 0.952000
v -0.043353 -1.271788 -0.476000
v -0.042452 -0.824985 -0.000000
v -0.043353 -1.271788 0.475999
v 0.034194 -1.271944 -0.476000
v 0.035095 -0.825141 0.000000
v 0.034194 -1.271944 0.476000
v -0.030403 1.098035 -0.476000
v -0.038774 1.078933 -0.000000
v -0.030403 1.098035 0.476000
v 0.038773 1.078933 0.000000
v 0.030797 1.097911 0.476000
v -0.030087 1.255000 0.476000
v -0.030601 1.254939 0.952000
v 0.031114 1.254877 0.476001
v 0.030600 1.254939 0.952000
v -0.030087 1.255000 -0.476000
v -0.069301 1.139139 0.476000
v -0.069581 1.138999 0.952000
v 0.069860 1.138858 0.476000
v 0.069580 1.138999 0.952000
v 0.069580 1.138999 -0.951999
v 0.069860 1.138858 -0.475999
v -0.069150 1.214053 0.476000
v -0.069581 1.213913 0.952000
v 0.070011 1.213772 0.476001
v 0.069580 1.213913 0.952000
v 0.038773 1.078933 0.952000
v -0.038774 1.078933 0.952000
v 0.038773 1.273979 0.952000
v -0.038774 1.273979 0.952000
v 0.088620 1.131396 0.952000
v 0.088620 1.221516 0.952000
v -0.088621 1.221516 0.952000
v -0.088621 1.131396 0.952000
v -0.038774 1.078933 0.476000
v 0.038773 1.078933 0.476000
v -0.038221 1.274056 0.476000
v 0.038773 1.273979 0.476000
v -0.088621 1.221516 0.476000
v -0.088621 1.131396 0.476000
v 0.089067 1.221337 0.476000
v 0.088620 1.131396 0.476000
v -0.038774 1.078933 -0.476000
v 0.038773 1.078933 -0.475999
v -0.038221 1.274056 -0.476000
v 0.039325 1.273900 -0.475999
v -0.088356 1.131575 -0.476000
v -0.088174 1.221694 -0.476000
v 0.089067 1.221337 -0.475999
v 0.088620 1.131396 -0.475999
v -0.038774 1.078933 -0.952000
v 0.038773 1.078933 -0.951999
v -0.038774 1.273979 -0.952000
v 0.038773 1.273979 -0.951999
v -0.088621 1.221516 -0.952000
v -0.088621 1.131396 -0.952000
v 0.088620 1.131396 -0.951999
v 0.088620 1.221516 -0.951999
v 0.031114 1.254877 -0.475999
v -0.069301 1.139139 -0.476000
v -0.069150 1.214053 -0.476000
v 0.070011 1.213772 -0.475999
v -0.069581 1.213913 -0.952000
v 0.069580 1.213913 -0.951999
v -0.030601 1.254939 -0.952000
v 0.030600 1.254939 -0.951999
v 0.030797 1.097911 -0.475999
v -0.069581 1.138999 -0.952000
v -0.030601 1.097973 -0.789648
v 0.030600 1.097973 -0.789648
v 0.069580 1.138999 -0.789648
v -0.069301 1.139139 -0.638352
v -0.069150 1.214053 -0.638352
v 0.031114 1.254877 -0.638351
v 0.070011 1.213772 -0.638351
v -0.030601 1.254939 -0.789648
v 0.030600 1.254939 -0.789648
v -0.030403 1.098035 -0.638351
v 0.030797 1.097911 -0.638351
v -0.030087 1.255000 -0.638351
v 0.069860 1.138858 -0.638351
v -0.069581 1.213913 -0.789648
v -0.069581 1.138999 -0.789648
v 0.069580 1.213913 -0.789648
v 0.030600 1.097973 0.781386
v 0.030600 1.254939 0.781386
v -0.030601 1.254939 0.781385
v -0.030600 1.097973 0.781385
v -0.030087 1.255000 0.646615
v -0.030403 1.098035 0.646615
v 0.031114 1.254877 0.646615
v 0.030797 1.097911 0.646615
v 0.069580 1.138999 0.781386
v 0.069580 1.213913 0.781386
v -0.069581 1.213913 0.781385
v -0.069581 1.138999 0.781385
v -0.069150 1.214053 0.646615
v -0.069301 1.139139 0.646615
v 0.070011 1.213772 0.646615
v 0.069861 1.138858 0.646615
v -0.041763 -0.483027 -0.952000
v -0.040714 0.037653 -0.952000
v -0.039664 0.558332 -0.952000
v 0.035784 -0.483183 -0.952000
v 0.036833 0.037496 -0.951999
v 0.037883 0.558176 -0.951999
v 0.035784 -0.483183 0.952000
v 0.036833 0.037496 0.952000
v 0.037883 0.558176 0.952000
v -0.041763 -0.483027 0.951999
v -0.040713 0.037652 0.952000
v -0.039664 0.558332 0.952000
v -0.042206 -0.702797 -0.476000
v -0.040868 -0.038796 -0.476000
v -0.039664 0.558332 -0.476000
v -0.041763 -0.483027 -0.000000
v -0.040714 0.037652 -0.000000
v -0.038774 0.558253 -0.000000
v -0.042206 -0.702797 0.476000
v -0.040868 -0.038796 0.476000
v -0.039664 0.558332 0.476000
v 0.037883 0.558176 -0.476000
v 0.036679 -0.038953 -0.476000
v 0.035341 -0.702953 -0.476000
v 0.037883 0.558176 0.000001
v 0.036833 0.037496 0.000000
v 0.035784 -0.483183 0.000000
v 0.037883 0.558176 0.476000
v 0.036679 -0.038953 0.476000
v 0.035341 -0.702953 0.476000
vt 0.107482 0.327961
vt 0.108377 0.327961
vt 0.108377 0.333570
vt 0.107482 0.333570
vt 0.064878 0.348136
vt 0.064171 0.348136
vt 0.064171 0.346125
vt 0.064878 0.346125
vt 0.104694 0.319567
vt 0.104694 0.313431
vt 0.105589 0.313431
vt 0.105589 0.319567
vt 0.097306 0.319567
vt 0.097306 0.313431
vt 0.102800 0.313431
vt 0.102800 0.319567
vt 0.105589 0.353517
vt 0.105589 0.359653
vt 0.104694 0.359653
vt 0.104694 0.353517
vt 0.063024 0.334429
vt 0.063024 0.341134
vt 0.057531 0.335869
vt 0.057531 0.331839
vt 0.079506 0.331839
vt 0.079506 0.335869
vt 0.074012 0.341134
vt 0.074012 0.334429
vt 0.068518 0.335869
vt 0.068518 0.331839
vt 0.080824 0.319567
vt 0.080824 0.313431
vt 0.086318 0.313431
vt 0.086318 0.319567
vt 0.091812 0.313431
vt 0.091812 0.319567
vt 0.058426 0.342480
vt 0.058426 0.348090
vt 0.057531 0.348090
vt 0.057531 0.342480
vt 0.058426 0.353699
vt 0.057531 0.353699
vt 0.107482 0.311132
vt 0.108377 0.311132
vt 0.108377 0.316742
vt 0.107482 0.316742
vt 0.108377 0.322351
vt 0.107482 0.322351
vt 0.062853 0.342480
vt 0.062853 0.348090
vt 0.061958 0.348090
vt 0.061958 0.342480
vt 0.060639 0.342480
vt 0.060639 0.348090
vt 0.059744 0.348090
vt 0.059744 0.342480
vt 0.063024 0.313431
vt 0.057531 0.313431
vt 0.057531 0.312813
vt 0.063024 0.312813
vt 0.070900 0.342480
vt 0.071373 0.342480
vt 0.071373 0.344491
vt 0.070900 0.344491
vt 0.075368 0.342480
vt 0.075841 0.342480
vt 0.075841 0.344491
vt 0.075368 0.344491
vt 0.080824 0.311132
vt 0.086318 0.311132
vt 0.086318 0.311751
vt 0.080824 0.311751
vt 0.079506 0.312813
vt 0.074012 0.312813
vt 0.074012 0.311751
vt 0.079506 0.311751
vt 0.057531 0.311751
vt 0.063024 0.311751
vt 0.086318 0.312813
vt 0.080824 0.312813
vt 0.102800 0.312813
vt 0.097306 0.312813
vt 0.097306 0.311751
vt 0.102800 0.311751
vt 0.057531 0.311132
vt 0.063024 0.311132
vt 0.097306 0.311132
vt 0.102800 0.311132
vt 0.077633 0.344491
vt 0.077160 0.344491
vt 0.077160 0.342480
vt 0.077633 0.342480
vt 0.082102 0.344491
vt 0.081628 0.344491
vt 0.081628 0.342480
vt 0.082102 0.342480
vt 0.074012 0.311132
vt 0.079506 0.311132
vt 0.079506 0.313431
vt 0.074012 0.313431
vt 0.078972 0.344491
vt 0.078498 0.344491
vt 0.078498 0.342480
vt 0.078972 0.342480
vt 0.105494 0.359877
vt 0.104788 0.359877
vt 0.104788 0.361727
vt 0.105494 0.361727
vt 0.105589 0.361951
vt 0.104694 0.361951
vt 0.105944 0.361244
vt 0.105944 0.360361
vt 0.106164 0.360271
vt 0.106164 0.361333
vt 0.104338 0.360361
vt 0.104338 0.361244
vt 0.104118 0.361333
vt 0.104118 0.360271
vt 0.068911 0.342705
vt 0.068205 0.342705
vt 0.068111 0.342480
vt 0.069006 0.342480
vt 0.068205 0.344555
vt 0.068911 0.344555
vt 0.069006 0.344779
vt 0.068111 0.344779
vt 0.069361 0.344071
vt 0.069361 0.343188
vt 0.069581 0.343099
vt 0.069581 0.344161
vt 0.067755 0.343188
vt 0.067755 0.344071
vt 0.067535 0.344161
vt 0.067535 0.343099
vt 0.065547 0.342705
vt 0.064841 0.342705
vt 0.064747 0.342480
vt 0.065642 0.342480
vt 0.064841 0.344555
vt 0.065547 0.344555
vt 0.065642 0.344779
vt 0.064747 0.344779
vt 0.064391 0.343188
vt 0.064391 0.344071
vt 0.064171 0.344161
vt 0.064171 0.343099
vt 0.065997 0.344071
vt 0.065997 0.343188
vt 0.066217 0.343099
vt 0.066217 0.344161
vt 0.104788 0.313207
vt 0.105494 0.313207
vt 0.105494 0.311357
vt 0.104788 0.311357
vt 0.104694 0.311132
vt 0.105589 0.311132
vt 0.104338 0.311840
vt 0.104338 0.312723
vt 0.104118 0.312813
vt 0.104118 0.311751
vt 0.105944 0.312723
vt 0.105944 0.311840
vt 0.106164 0.311751
vt 0.106164 0.312813
vt 0.095336 0.347653
vt 0.094630 0.347653
vt 0.094630 0.345740
vt 0.095336 0.345740
vt 0.084758 0.345740
vt 0.085232 0.345740
vt 0.085232 0.347653
vt 0.084758 0.347653
vt 0.084758 0.342480
vt 0.085232 0.342480
vt 0.085232 0.344394
vt 0.084758 0.344394
vt 0.095336 0.344394
vt 0.094630 0.344394
vt 0.094630 0.342480
vt 0.095336 0.342480
vt 0.068221 0.346125
vt 0.068927 0.346125
vt 0.068927 0.348038
vt 0.068221 0.348038
vt 0.083420 0.342480
vt 0.083894 0.342480
vt 0.083894 0.344394
vt 0.083420 0.344394
vt 0.071350 0.345837
vt 0.071350 0.347687
vt 0.070900 0.347204
vt 0.070900 0.346321
vt 0.087000 0.345740
vt 0.087707 0.345740
vt 0.087707 0.347590
vt 0.087000 0.347590
vt 0.072056 0.345837
vt 0.072056 0.347687
vt 0.088157 0.346223
vt 0.088157 0.347106
vt 0.086550 0.347106
vt 0.086550 0.346223
vt 0.072506 0.346321
vt 0.072506 0.347204
vt 0.087024 0.342480
vt 0.087889 0.342480
vt 0.087889 0.344394
vt 0.087024 0.344394
vt 0.086550 0.342480
vt 0.086550 0.344394
vt 0.091492 0.344394
vt 0.091019 0.344394
vt 0.091019 0.342480
vt 0.091492 0.342480
vt 0.090154 0.344394
vt 0.090154 0.342480
vt 0.083894 0.345740
vt 0.083894 0.347653
vt 0.089681 0.344394
vt 0.089681 0.342480
vt 0.088362 0.342480
vt 0.088362 0.344394
vt 0.083420 0.345740
vt 0.083420 0.347653
vt 0.066196 0.346125
vt 0.066903 0.346125
vt 0.066903 0.348038
vt 0.066196 0.348038
vt 0.090130 0.345740
vt 0.090837 0.345740
vt 0.090837 0.347590
vt 0.090130 0.347590
vt 0.074274 0.345837
vt 0.074981 0.345837
vt 0.074981 0.347687
vt 0.074274 0.347687
vt 0.073824 0.347204
vt 0.073824 0.346321
vt 0.091287 0.346223
vt 0.091287 0.347106
vt 0.089681 0.347106
vt 0.089681 0.346223
vt 0.075430 0.346321
vt 0.075430 0.347204
vt 0.072238 0.342480
vt 0.072711 0.342480
vt 0.072711 0.344491
vt 0.072238 0.344491
vt 0.080996 0.347848
vt 0.080290 0.347848
vt 0.080290 0.345837
vt 0.080996 0.345837
vt 0.076749 0.345837
vt 0.077455 0.345837
vt 0.077455 0.347848
vt 0.076749 0.347848
vt 0.074503 0.342480
vt 0.074503 0.344491
vt 0.092605 0.345740
vt 0.093312 0.345740
vt 0.093312 0.347751
vt 0.092605 0.347751
vt 0.080764 0.344491
vt 0.080764 0.342480
vt 0.080290 0.344491
vt 0.080290 0.342480
vt 0.074030 0.342480
vt 0.074030 0.344491
vt 0.091812 0.335869
vt 0.091812 0.331839
vt 0.097306 0.334429
vt 0.097306 0.341134
vt 0.091812 0.325703
vt 0.097306 0.326604
vt 0.086318 0.341134
vt 0.086318 0.334429
vt 0.086318 0.326604
vt 0.080824 0.335869
vt 0.080824 0.331839
vt 0.080824 0.325703
vt 0.068518 0.313431
vt 0.068518 0.319567
vt 0.063024 0.319567
vt 0.068518 0.325703
vt 0.063024 0.326604
vt 0.074012 0.319567
vt 0.074012 0.326604
vt 0.079506 0.319567
vt 0.079506 0.325703
vt 0.057531 0.319567
vt 0.057531 0.325703
vt 0.105589 0.337215
vt 0.105589 0.341245
vt 0.104694 0.341245
vt 0.104694 0.337215
vt 0.105589 0.347381
vt 0.104694 0.347381
vt 0.102800 0.331839
vt 0.102800 0.335869
vt 0.102800 0.325703
vt 0.104694 0.335869
vt 0.104694 0.331839
vt 0.105589 0.331839
vt 0.105589 0.335869
vt 0.104694 0.325703
vt 0.105589 0.325703
vn -0.0015 -0.7291 0.6844
vn 0.0000 1.0000 0.0000
vn 0.0000 -0.0000 -1.0000
vn 1.0000 -0.0019 -0.0000
vn 1.0000 -0.0017 -0.0000
vn -0.0000 -0.0000 1.0000
vn -1.0000 0.0020 0.0000
vn -0.0015 -0.7291 -0.6844
vn 0.0005 1.0000 0.0001
vn 0.0010 1.0000 -0.0000
vn -0.7249 -0.6888 0.0000
vn 0.7263 0.6873 -0.0000
vn 0.7256 0.6881 -0.0006
vn -1.0000 0.0010 0.0007
vn -1.0000 -0.0000 0.0000
vn 1.0000 -0.0025 -0.0005
vn 1.0000 -0.0025 0.0005
vn 0.7249 -0.6888 0.0000
vn -0.7233 0.6905 -0.0004
vn 0.7240 0.6898 0.0002
vn -0.7236 0.6903 0.0000
vn -0.7243 0.6895 0.0006
vn -0.7264 -0.6872 0.0003
vn -0.7263 -0.6873 0.0000
vn -0.0020 -1.0000 0.0000
vn -0.7249 0.6888 0.0000
vn 0.0020 1.0000 0.0000
vn 0.7249 0.6888 -0.0000
vn 1.0000 0.0000 -0.0000
vn 0.7236 -0.6903 0.0000
vn 1.0000 -0.0020 -0.0000
vn 0.0000 -1.0000 0.0000
vn -1.0000 0.0009 0.0000
vn -1.0000 0.0018 0.0000
vn -1.0000 0.0018 -0.0005
vn -1.0000 0.0013 -0.0005
vn -1.0000 0.0025 0.0000
vn -1.0000 0.0022 -0.0002
vn -1.0000 0.0013 0.0005
vn -1.0000 0.0018 0.0005
vn -1.0000 0.0022 0.0002
vn -1.0000 0.0017 0.0000
vn -1.0000 0.0019 0.0000
g BannerD_Cube.016_MainMaterial
usemtl MainMaterial
s 1
f 11/1/1 14/2/1 3/3/1 4/4/1
f 8/5/2 7/6/2 93/7/2 96/8/2
f 111/9/3 59/10/3 60/11/3 114/12/3
f 136/13/4 44/14/5 35/15/5 117/16/4
f 117/17/6 35/18/6 36/19/6 120/20/6
f 127/21/7 11/22/7 4/23/7 118/24/7
f 109/25/7 1/26/7 9/27/7 121/28/7
f 121/28/7 9/27/7 10/29/7 124/30/7
f 124/30/7 10/29/7 11/22/7 127/21/7
f 114/31/4 60/32/5 52/33/5 130/34/4
f 130/34/4 52/33/5 18/35/5 133/36/4
f 133/36/4 18/35/5 44/14/5 136/13/4
f 51/37/2 16/38/2 18/39/2 52/40/2
f 16/38/2 43/41/2 44/42/2 18/39/2
f 1/43/8 2/44/8 12/45/8 9/46/8
f 9/46/1 12/45/1 13/47/1 10/48/1
f 10/48/8 13/47/8 14/2/8 11/1/8
f 45/49/9 38/50/9 37/51/9 46/52/9
f 61/53/10 53/54/10 54/55/10 62/56/10
f 43/57/11 36/58/11 42/59/11 48/60/11
f 17/61/12 25/62/12 106/63/12 98/64/12
f 34/65/11 23/66/11 94/67/11 102/68/11
f 62/69/13 54/70/13 57/71/13 66/72/13
f 64/73/14 55/74/14 56/75/14 63/76/14
f 48/60/15 42/59/15 41/77/15 47/78/15
f 58/79/16 65/80/16 66/72/16 57/71/16
f 39/81/17 50/82/17 49/83/17 40/84/17
f 35/15/18 44/14/18 50/82/18 39/81/18
f 52/33/18 60/32/18 65/80/18 58/79/18
f 38/85/19 45/86/19 47/78/19 41/77/19
f 46/87/20 37/88/20 40/84/20 49/83/20
f 27/89/21 19/90/21 100/91/21 108/92/21
f 21/93/18 32/94/18 103/95/18 95/96/18
f 53/97/22 61/98/22 63/76/22 56/75/22
f 59/99/23 51/100/23 55/74/23 64/73/23
f 22/101/24 33/102/24 107/103/24 99/104/24
f 7/105/6 8/106/6 36/19/6 35/18/6
f 21/107/6 23/108/6 37/109/6 38/110/6
f 34/111/6 28/112/6 39/113/6 40/114/6
f 26/115/6 32/116/6 41/117/6 42/118/6
f 8/106/6 26/115/6 42/118/6 36/19/6
f 28/112/6 7/105/6 35/18/6 39/113/6
f 32/116/6 21/107/6 38/110/6 41/117/6
f 23/108/6 34/111/6 40/114/6 37/109/6
f 17/119/3 19/120/3 44/121/3 43/122/3
f 22/123/3 20/124/3 45/125/3 46/126/3
f 31/127/3 25/128/3 48/129/3 47/130/3
f 27/131/3 33/132/3 49/133/3 50/134/3
f 33/132/3 22/123/3 46/126/3 49/133/3
f 19/120/3 27/131/3 50/134/3 44/121/3
f 25/128/3 17/119/3 43/122/3 48/129/3
f 20/124/3 31/127/3 47/130/3 45/125/3
f 75/135/6 15/136/6 51/137/6 52/138/6
f 24/139/6 67/140/6 54/141/6 53/142/6
f 68/143/6 69/144/6 56/145/6 55/146/6
f 70/147/6 30/148/6 58/149/6 57/150/6
f 67/140/6 70/147/6 57/150/6 54/141/6
f 30/148/6 75/135/6 52/138/6 58/149/6
f 69/144/6 24/139/6 53/142/6 56/145/6
f 15/136/6 68/143/6 55/146/6 51/137/6
f 5/151/3 6/152/3 60/11/3 59/10/3
f 74/153/3 73/154/3 61/155/3 62/156/3
f 71/157/3 76/158/3 64/159/3 63/160/3
f 29/161/3 72/162/3 66/163/3 65/164/3
f 72/162/3 74/153/3 62/156/3 66/163/3
f 6/152/3 29/161/3 65/164/3 60/11/3
f 76/158/3 5/151/3 59/10/3 64/159/3
f 73/154/3 71/157/3 63/160/3 61/155/3
f 67/165/25 24/166/25 88/167/25 82/168/25
f 29/169/26 6/170/26 78/171/26 79/172/26
f 71/173/18 73/174/18 84/175/18 90/176/18
f 15/177/27 75/178/27 87/179/27 86/180/27
f 6/181/2 5/182/2 77/183/2 78/184/2
f 5/185/28 76/186/28 91/187/28 77/188/28
f 78/189/3 85/190/3 92/191/3 79/192/3
f 86/193/6 87/194/6 82/195/6 88/196/6
f 78/189/3 77/197/3 84/198/3 85/190/3
f 82/195/6 87/194/6 89/199/6 83/200/6
f 86/193/6 88/196/6 81/201/6 80/202/6
f 84/198/3 77/197/3 91/203/3 90/204/3
f 30/205/7 70/206/7 83/207/7 89/208/7
f 75/209/21 30/205/21 89/208/21 87/210/21
f 76/186/29 71/173/29 90/176/29 91/187/29
f 24/211/30 69/212/30 81/213/30 88/214/30
f 69/212/31 68/215/31 80/216/31 81/213/31
f 72/217/15 29/169/15 79/172/15 92/218/15
f 68/215/12 15/219/12 86/220/12 80/216/12
f 70/206/24 67/221/24 82/222/24 83/207/24
f 74/223/11 72/217/11 92/218/11 85/224/11
f 73/225/32 74/226/32 85/227/32 84/228/32
f 96/229/6 93/230/6 94/231/6 95/232/6
f 100/233/3 98/234/3 97/235/3 99/236/3
f 100/233/3 99/236/3 107/237/3 108/238/3
f 94/231/6 93/230/6 101/239/6 102/240/6
f 96/229/6 95/232/6 103/241/6 104/242/6
f 97/235/3 98/234/3 106/243/3 105/244/3
f 31/245/30 20/246/30 97/247/30 105/248/30
f 23/249/32 21/250/32 95/251/32 94/252/32
f 19/253/27 17/254/27 98/255/27 100/256/27
f 28/257/15 34/65/15 102/68/15 101/258/15
f 20/259/25 22/260/25 99/261/25 97/262/25
f 32/94/29 26/263/29 104/264/29 103/95/29
f 25/62/31 31/245/31 105/248/31 106/63/31
f 26/263/28 8/265/28 96/266/28 104/264/28
f 33/102/7 27/89/7 108/92/7 107/103/7
f 7/267/26 28/257/26 101/258/26 93/268/26
f 13/269/31 135/270/31 138/271/31 14/272/31
f 135/270/31 134/273/31 137/274/31 138/271/31
f 134/273/31 133/36/4 136/13/4 137/274/31
f 12/275/31 132/276/31 135/270/31 13/269/31
f 132/276/31 131/277/31 134/273/31 135/270/31
f 131/277/31 130/34/4 133/36/4 134/273/31
f 2/278/31 112/279/31 132/276/31 12/275/31
f 112/279/31 113/280/31 131/277/31 132/276/31
f 113/280/31 114/31/4 130/34/4 131/277/31
f 16/281/33 126/282/34 129/283/35 43/57/36
f 126/282/34 125/284/37 128/285/38 129/283/35
f 125/284/37 124/30/7 127/21/7 128/285/38
f 51/100/39 123/286/40 126/282/34 16/281/33
f 123/286/40 122/287/41 125/284/37 126/282/34
f 122/287/41 121/28/7 124/30/7 125/284/37
f 59/99/42 111/288/43 123/286/40 51/100/39
f 111/288/43 110/289/7 122/287/41 123/286/40
f 110/289/7 109/25/7 121/28/7 122/287/41
f 43/57/36 129/283/35 120/290/43 36/58/42
f 129/283/35 128/285/38 119/291/7 120/290/43
f 128/285/38 127/21/7 118/24/7 119/291/7
f 3/292/6 115/293/6 118/294/6 4/295/6
f 115/293/6 116/296/6 119/297/6 118/294/6
f 116/296/6 117/17/6 120/20/6 119/297/6
f 14/272/31 138/271/31 115/298/31 3/299/31
f 138/271/31 137/274/31 116/300/31 115/298/31
f 137/274/31 136/13/4 117/16/4 116/300/31
f 1/301/3 109/302/3 112/303/3 2/304/3
f 109/302/3 110/305/3 113/306/3 112/303/3
f 110/305/3 111/9/3 114/12/3 113/306/3
