# Blender v2.91.2 OBJ File: ''
# www.blender.org
mtllib pineTreeSmall.mtl
o ForestTreePineShort_Cylinder.008
v 0.126464 0.639640 -0.174063
v 0.000000 2.269154 -0.000000
v 0.133186 -0.054519 -0.183315
v 0.000000 0.639640 -0.215153
v 0.204623 0.639640 -0.066486
v 0.204623 0.639640 0.066486
v 0.126464 0.639640 0.174063
v 0.000000 0.639640 0.215153
v -0.126464 0.639640 0.174063
v -0.204623 0.639640 0.066486
v -0.204623 0.639640 -0.066486
v -0.126464 0.639640 -0.174063
v 0.000000 -0.050264 0.000000
v 0.000000 -0.054519 -0.226590
v 0.215500 -0.054519 -0.070020
v 0.215499 -0.054519 0.070020
v 0.133186 -0.054519 0.183315
v -0.000000 -0.054519 0.226590
v -0.133186 -0.054519 0.183315
v -0.215499 -0.054519 0.070020
v -0.215499 -0.054519 -0.070020
v -0.133186 -0.054519 -0.183315
v 0.000000 1.500443 -0.522474
v 0.000000 1.498015 -0.519688
v 0.305465 1.498015 -0.420437
v 0.307102 1.500443 -0.422690
v 0.494253 1.498015 -0.160593
v 0.496902 1.500443 -0.161453
v 0.494253 1.498015 0.160592
v 0.496902 1.500443 0.161453
v 0.305465 1.498015 0.420437
v 0.307102 1.500443 0.422690
v -0.000000 1.498015 0.519688
v -0.000000 1.500443 0.522474
v -0.305465 1.498015 0.420437
v -0.307102 1.500443 0.422690
v -0.494253 1.498015 0.160593
v -0.496902 1.500443 0.161453
v -0.494253 1.498015 -0.160593
v -0.496902 1.500443 -0.161453
v -0.305465 1.498015 -0.420437
v -0.307102 1.500443 -0.422690
v 0.000000 0.937648 -0.703957
v 0.000000 0.935101 -0.701536
v 0.412352 0.935101 -0.567554
v 0.413775 0.937648 -0.569513
v 0.667200 0.935101 -0.216786
v 0.669503 0.937648 -0.217535
v 0.667200 0.935101 0.216786
v 0.669503 0.937648 0.217535
v 0.412352 0.935101 0.567554
v 0.413775 0.937648 0.569513
v -0.000000 0.935101 0.701536
v -0.000000 0.937648 0.703957
v -0.412352 0.935101 0.567554
v -0.413776 0.937648 0.569513
v -0.667200 0.935101 0.216786
v -0.669503 0.937648 0.217535
v -0.667200 0.935101 -0.216787
v -0.669503 0.937648 -0.217535
v -0.412352 0.935101 -0.567554
v -0.413775 0.937648 -0.569513
v 0.512011 0.373953 -0.704723
v 0.508138 0.366939 -0.699392
v 0.000000 0.366939 -0.864496
v 0.000000 0.373953 -0.871085
v 0.828451 0.373953 -0.269180
v 0.822185 0.366939 -0.267144
v 0.828451 0.373953 0.269180
v 0.822185 0.366939 0.267144
v 0.512011 0.373953 0.704723
v 0.508138 0.366939 0.699392
v -0.000000 0.373953 0.871085
v -0.000000 0.366939 0.864497
v -0.512011 0.373953 0.704723
v -0.508138 0.366939 0.699392
v -0.828451 0.373953 0.269180
v -0.822185 0.366939 0.267144
v -0.828451 0.373953 -0.269180
v -0.822185 0.366939 -0.267144
v -0.512011 0.373953 -0.704723
v -0.508138 0.366939 -0.699393
v 0.000000 1.032975 -0.466610
v 0.000000 1.038201 -0.471643
v 0.277225 1.038201 -0.381567
v 0.274267 1.032975 -0.377496
v 0.448559 1.038201 -0.145746
v 0.443773 1.032975 -0.144191
v 0.448559 1.038201 0.145746
v 0.443773 1.032975 0.144190
v 0.277225 1.038201 0.381567
v 0.274266 1.032975 0.377495
v -0.000000 1.038201 0.471643
v -0.000000 1.032975 0.466610
v -0.277225 1.038201 0.381567
v -0.274267 1.032975 0.377495
v -0.448559 1.038201 0.145746
v -0.443773 1.032975 0.144190
v -0.448559 1.038201 -0.145746
v -0.443773 1.032975 -0.144191
v -0.277225 1.038201 -0.381567
v -0.274266 1.032975 -0.377496
v 0.000000 1.727099 -0.209835
v 0.000000 1.724192 -0.206391
v 0.121314 1.724192 -0.166974
v 0.123338 1.727099 -0.169760
v 0.196290 1.724192 -0.063778
v 0.199565 1.727099 -0.064843
v 0.196290 1.724192 0.063778
v 0.199565 1.727099 0.064843
v 0.121314 1.724192 0.166974
v 0.123338 1.727099 0.169760
v -0.000000 1.724192 0.206391
v -0.000000 1.727099 0.209835
v -0.121314 1.724192 0.166974
v -0.123338 1.727099 0.169760
v -0.196290 1.724192 0.063778
v -0.199565 1.727099 0.064843
v -0.196290 1.724192 -0.063779
v -0.199565 1.727099 -0.064843
v -0.121314 1.724192 -0.166974
v -0.123338 1.727099 -0.169760
vt 0.653895 0.806606
vt 0.647552 0.803320
vt 0.657531 0.799187
vt 0.658720 0.800641
vt 0.666234 0.826366
vt 0.667916 0.833027
vt 0.665249 0.833679
vt 0.663339 0.826925
vt 0.681511 0.805008
vt 0.675732 0.807096
vt 0.671386 0.798869
vt 0.672846 0.797547
vt 0.657001 0.828259
vt 0.659618 0.835548
vt 0.656491 0.836813
vt 0.653008 0.829164
vt 0.672242 0.807979
vt 0.669790 0.799808
vt 0.653209 0.838301
vt 0.646821 0.830380
vt 0.669562 0.808463
vt 0.668162 0.800513
vt 0.682599 0.822940
vt 0.681681 0.831869
vt 0.678757 0.832028
vt 0.678035 0.824083
vt 0.667180 0.808734
vt 0.666537 0.801041
vt 0.675950 0.832044
vt 0.674818 0.824769
vt 0.662519 0.808755
vt 0.660071 0.808457
vt 0.661760 0.801584
vt 0.663332 0.801592
vt 0.673225 0.832212
vt 0.671899 0.825322
vt 0.667609 0.819925
vt 0.669022 0.825657
vt 0.666189 0.826179
vt 0.664786 0.820288
vt 0.670560 0.832541
vt 0.669066 0.825840
vt 0.657365 0.807847
vt 0.660215 0.801321
vt 0.664865 0.808834
vt 0.664926 0.801403
vt 0.660311 0.827542
vt 0.662506 0.834511
vt 0.668037 0.833438
vt 0.671128 0.843549
vt 0.669658 0.844087
vt 0.665410 0.834087
vt 0.658768 0.820343
vt 0.655547 0.820488
vt 0.657266 0.808240
vt 0.660008 0.808842
vt 0.672708 0.843632
vt 0.673493 0.850891
vt 0.671244 0.843921
vt 0.674203 0.843182
vt 0.672641 0.843251
vt 0.670643 0.832958
vt 0.673272 0.832639
vt 0.674221 0.843571
vt 0.675836 0.843336
vt 0.675961 0.832486
vt 0.675805 0.843732
vt 0.677638 0.843696
vt 0.678732 0.832491
vt 0.670298 0.819069
vt 0.667534 0.819479
vt 0.667201 0.809115
vt 0.669608 0.808847
vt 0.677559 0.844098
vt 0.680013 0.844263
vt 0.681617 0.832366
vt 0.673051 0.818614
vt 0.672312 0.808369
vt 0.679892 0.844678
vt 0.665338 0.847557
vt 0.663313 0.849923
vt 0.653603 0.838762
vt 0.656810 0.837243
vt 0.675854 0.818143
vt 0.675831 0.807495
vt 0.665675 0.847890
vt 0.663707 0.850252
vt 0.666817 0.846005
vt 0.659874 0.835965
vt 0.678742 0.817593
vt 0.681648 0.805420
vt 0.667092 0.846347
vt 0.668228 0.844889
vt 0.662711 0.834921
vt 0.652126 0.820519
vt 0.648563 0.820358
vt 0.647351 0.803746
vt 0.653753 0.807011
vt 0.668446 0.845242
vt 0.669824 0.844451
vt 0.661811 0.820120
vt 0.662487 0.809136
vt 0.655587 0.821027
vt 0.656951 0.828040
vt 0.652965 0.828923
vt 0.652141 0.821116
vt 0.670382 0.819508
vt 0.671855 0.825139
vt 0.664718 0.819831
vt 0.664860 0.809215
vt 0.658820 0.820845
vt 0.660261 0.827338
vt 0.675955 0.818574
vt 0.677981 0.823901
vt 0.674771 0.824586
vt 0.673143 0.819049
vt 0.646821 0.830107
vt 0.648499 0.821066
vt 0.678876 0.818018
vt 0.682516 0.822767
vt 0.663292 0.826731
vt 0.661870 0.820595
vt 0.470385 0.619103
vt 0.471161 0.600063
vt 0.475000 0.600239
vt 0.474031 0.619270
vt 0.441195 0.619103
vt 0.440419 0.600063
vt 0.444260 0.599926
vt 0.444842 0.618973
vt 0.459439 0.618824
vt 0.459633 0.599770
vt 0.463477 0.599828
vt 0.463089 0.618880
vt 0.448491 0.618880
vt 0.448103 0.599828
vt 0.451946 0.599770
vt 0.452140 0.618824
vt 0.466737 0.618973
vt 0.467319 0.599926
vt 0.437549 0.619270
vt 0.436579 0.600239
vt 0.455790 0.618806
vt 0.455790 0.599750
vt 0.442496 0.625524
vt 0.448412 0.623602
vt 0.448412 0.627446
vt 0.446153 0.630556
vt 0.442498 0.631745
vt 0.438842 0.630558
vt 0.436581 0.627449
vt 0.436581 0.623599
vt 0.438842 0.620490
vt 0.442498 0.619304
vt 0.446153 0.620492
vn 0.1828 -0.9504 0.2517
vn 0.0000 -0.9504 0.3110
vn 0.0000 -0.9058 0.4236
vn 0.2490 -0.9058 0.3427
vn 0.0000 -0.0877 -0.9961
vn 0.0000 -0.1762 -0.9843
vn 0.5786 -0.1762 -0.7964
vn 0.5855 -0.0877 -0.8059
vn -0.1828 -0.9504 0.2517
vn -0.2490 -0.9058 0.3427
vn 0.9474 -0.0877 0.3078
vn 0.9362 -0.1762 0.3042
vn 0.5786 -0.1762 0.7964
vn 0.5855 -0.0877 0.8059
vn -0.2958 -0.9504 0.0961
vn -0.4029 -0.9058 0.1309
vn 0.0000 -0.1762 0.9843
vn 0.0000 -0.0877 0.9961
vn -0.2958 -0.9504 -0.0961
vn -0.4029 -0.9058 -0.1309
vn -0.5786 -0.1762 0.7963
vn -0.5855 -0.0877 0.8059
vn -0.1828 -0.9504 -0.2517
vn -0.2490 -0.9058 -0.3427
vn -0.9362 -0.1762 0.3041
vn -0.9474 -0.0877 0.3078
vn 0.1828 -0.9504 -0.2517
vn 0.2958 -0.9504 -0.0961
vn 0.4029 -0.9058 -0.1309
vn 0.2490 -0.9058 -0.3427
vn -0.9362 -0.1762 -0.3042
vn -0.9474 -0.0877 -0.3078
vn -0.0445 -0.9971 -0.0613
vn -0.1756 -0.9543 -0.2416
vn 0.0000 -0.9543 -0.2987
vn 0.0000 -0.9971 -0.0757
vn -0.5786 -0.1762 -0.7964
vn -0.5855 -0.0877 -0.8059
vn 0.2958 -0.9504 0.0961
vn 0.4029 -0.9058 0.1309
vn 0.0000 -0.9504 -0.3110
vn 0.0000 -0.9058 -0.4236
vn 0.9474 -0.0877 -0.3078
vn 0.9362 -0.1762 -0.3042
vn 0.0000 -0.9958 0.0909
vn 0.0000 -0.9867 -0.1622
vn 0.0954 -0.9867 -0.1313
vn -0.0534 -0.9958 0.0735
vn 0.9438 -0.1235 -0.3066
vn 0.9438 -0.1235 0.3066
vn 0.9471 -0.0913 0.3077
vn 0.9471 -0.0913 -0.3077
vn -0.5839 -0.1141 -0.8037
vn 0.0000 1.0000 0.0000
vn 0.0000 -0.1141 -0.9934
vn -0.1543 -0.9867 -0.0501
vn -0.0954 -0.9867 -0.1313
vn 0.0534 -0.9958 0.0735
vn 0.0865 -0.9958 0.0281
vn -0.9448 -0.1141 -0.3070
vn -0.1543 -0.9867 0.0501
vn 0.0865 -0.9958 -0.0281
vn -0.9448 -0.1141 0.3070
vn -0.0954 -0.9867 0.1313
vn 0.0534 -0.9958 -0.0736
vn -0.9438 -0.1235 -0.3066
vn -0.5833 -0.1235 -0.8028
vn -0.5853 -0.0913 -0.8056
vn -0.9471 -0.0913 -0.3077
vn -0.5839 -0.1141 0.8037
vn 0.0000 -0.9867 0.1622
vn 0.0000 -0.9958 -0.0909
vn -0.9438 -0.1235 0.3066
vn -0.9471 -0.0913 0.3077
vn 0.0000 -0.1141 0.9934
vn 0.0954 -0.9867 0.1313
vn -0.0534 -0.9958 -0.0736
vn -0.5833 -0.1235 0.8028
vn -0.5853 -0.0913 0.8056
vn 0.5839 -0.1141 0.8037
vn 0.1543 -0.9867 0.0501
vn -0.0865 -0.9958 -0.0281
vn 0.0000 -0.1235 0.9923
vn 0.0000 -0.0913 0.9958
vn 0.9448 -0.1141 0.3070
vn 0.1543 -0.9867 -0.0501
vn -0.0865 -0.9958 0.0281
vn 0.5833 -0.1235 0.8028
vn 0.5853 -0.0913 0.8056
vn 0.9448 -0.1141 -0.3070
vn 0.5839 -0.1141 -0.8037
vn 0.5833 -0.1235 -0.8028
vn 0.5853 -0.0913 -0.8056
vn 0.0720 -0.9971 0.0234
vn 0.2841 -0.9543 0.0923
vn 0.1756 -0.9543 0.2416
vn 0.0445 -0.9971 0.0613
vn -0.0720 -0.9971 -0.0234
vn -0.2841 -0.9543 -0.0923
vn 0.0000 -0.1235 -0.9923
vn 0.0000 -0.0913 -0.9958
vn 0.0720 -0.9971 -0.0234
vn 0.2841 -0.9543 -0.0923
vn -0.0445 -0.9971 0.0613
vn -0.1756 -0.9543 0.2416
vn -0.2841 -0.9543 0.0923
vn -0.0720 -0.9971 0.0234
vn 0.0000 -0.9543 0.2987
vn 0.0000 -0.9971 0.0757
vn 0.1756 -0.9543 -0.2416
vn 0.0445 -0.9971 -0.0613
vn -0.4499 -0.6435 0.6192
vn 0.0000 -0.6435 0.7654
vn 0.4499 -0.6435 0.6192
vn 0.7280 -0.6435 0.2365
vn -0.4499 -0.6435 -0.6192
vn -0.7280 -0.6435 -0.2365
vn 0.7280 -0.6435 -0.2365
vn 0.4499 -0.6435 -0.6192
vn -0.7280 -0.6435 0.2365
vn 0.0000 -0.6435 -0.7654
vn 0.0000 -1.0000 0.0000
usemtl MainMaterial.001
s 1
f 72/1/1 74/2/2 8/3/3 7/4/4
f 43/5/5 104/6/6 105/7/7 46/8/8
f 74/9/2 76/10/9 9/11/10 8/12/3
f 50/13/11 109/14/12 111/15/13 52/16/14
f 76/10/9 78/17/15 10/18/16 9/11/10
f 52/16/14 111/15/13 113/19/17 54/20/18
f 78/17/15 80/21/19 11/22/20 10/18/16
f 54/23/18 113/24/17 115/25/21 56/26/22
f 80/21/19 82/27/23 12/28/24 11/22/20
f 56/26/22 115/25/21 117/29/25 58/30/26
f 64/31/27 68/32/28 5/33/29 1/34/30
f 58/30/26 117/29/25 119/35/31 60/36/32
f 101/37/33 61/38/34 44/39/35 84/40/36
f 60/36/32 119/35/31 121/41/37 62/42/38
f 68/32/28 70/43/39 6/44/40 5/33/29
f 70/43/39 72/1/1 7/4/4 6/44/40
f 82/27/23 65/45/41 4/46/42 12/28/24
f 48/47/43 107/48/44 109/14/12 50/13/11
f 103/49/45 24/50/46 25/51/47 106/52/48
f 88/53/49 90/54/50 69/55/51 67/56/52
f 42/57/53 2/58/54 23/59/55
f 39/60/56 41/61/57 122/62/58 120/63/59
f 40/64/60 2/58/54 42/57/53
f 37/65/61 39/60/56 120/63/59 118/66/62
f 62/42/38 121/41/37 104/6/6 43/5/5
f 38/67/63 2/58/54 40/64/60
f 35/68/64 37/65/61 118/66/62 116/69/65
f 100/70/66 102/71/67 81/72/68 79/73/69
f 36/74/70 2/58/54 38/67/63
f 33/75/71 35/68/64 116/69/65 114/76/72
f 98/77/73 100/70/66 79/73/69 77/78/74
f 34/79/75 2/58/54 36/74/70
f 31/80/76 33/81/71 114/82/72 112/83/77
f 96/84/78 98/77/73 77/78/74 75/85/79
f 32/86/80 2/58/54 34/87/75
f 29/88/81 31/80/76 112/83/77 110/89/82
f 94/90/83 96/84/78 75/85/79 73/91/84
f 30/92/85 2/58/54 32/86/80
f 27/93/86 29/88/81 110/89/82 108/94/87
f 92/95/88 94/96/83 73/97/84 71/98/89
f 28/99/90 2/58/54 30/92/85
f 25/51/47 27/93/86 108/94/87 106/52/48
f 90/54/50 92/95/88 71/98/89 69/55/51
f 26/100/91 2/58/54 28/99/90
f 86/101/92 88/53/49 67/56/52 63/102/93
f 41/61/57 24/50/46 103/49/45 122/62/58
f 23/59/55 2/58/54 26/100/91
f 89/103/94 49/104/95 51/105/96 91/106/97
f 99/107/98 59/108/99 61/38/34 101/37/33
f 83/109/100 86/101/92 63/102/93 66/110/101
f 87/111/102 47/112/103 49/104/95 89/103/94
f 95/113/104 55/114/105 57/115/106 97/116/107
f 91/106/97 51/105/96 53/117/108 93/118/109
f 65/45/41 64/31/27 1/34/30 4/46/42
f 97/116/107 57/115/106 59/108/99 99/107/98
f 93/119/109 53/120/108 55/114/105 95/113/104
f 42/57/53 23/59/55 24/50/46 41/61/57
f 40/64/60 42/57/53 41/61/57 39/60/56
f 38/67/63 40/64/60 39/60/56 37/65/61
f 36/74/70 38/67/63 37/65/61 35/68/64
f 34/79/75 36/74/70 35/68/64 33/75/71
f 32/86/80 34/87/75 33/81/71 31/80/76
f 30/92/85 32/86/80 31/80/76 29/88/81
f 28/99/90 30/92/85 29/88/81 27/93/86
f 26/100/91 28/99/90 27/93/86 25/51/47
f 23/59/55 26/100/91 25/51/47 24/50/46
f 46/8/8 105/7/7 107/48/44 48/47/43
f 62/42/38 43/5/5 44/39/35 61/38/34
f 60/36/32 62/42/38 61/38/34 59/108/99
f 58/30/26 60/36/32 59/108/99 57/115/106
f 56/26/22 58/30/26 57/115/106 55/114/105
f 54/23/18 56/26/22 55/114/105 53/120/108
f 52/16/14 54/20/18 53/117/108 51/105/96
f 50/13/11 52/16/14 51/105/96 49/104/95
f 48/47/43 50/13/11 49/104/95 47/112/103
f 46/8/8 48/47/43 47/112/103 45/121/110
f 43/5/5 46/8/8 45/121/110 44/39/35
f 102/71/67 83/109/100 66/110/101 81/72/68
f 66/110/101 63/102/93 64/31/27 65/45/41
f 63/102/93 67/56/52 68/32/28 64/31/27
f 67/56/52 69/55/51 70/43/39 68/32/28
f 69/55/51 71/98/89 72/1/1 70/43/39
f 71/98/89 73/97/84 74/2/2 72/1/1
f 73/91/84 75/85/79 76/10/9 74/9/2
f 75/85/79 77/78/74 78/17/15 76/10/9
f 77/78/74 79/73/69 80/21/19 78/17/15
f 79/73/69 81/72/68 82/27/23 80/21/19
f 81/72/68 66/110/101 65/45/41 82/27/23
f 85/122/111 45/121/110 47/112/103 87/111/102
f 84/40/36 85/122/111 86/101/92 83/109/100
f 85/122/111 87/111/102 88/53/49 86/101/92
f 87/111/102 89/103/94 90/54/50 88/53/49
f 89/103/94 91/106/97 92/95/88 90/54/50
f 91/106/97 93/118/109 94/96/83 92/95/88
f 93/119/109 95/113/104 96/84/78 94/90/83
f 95/113/104 97/116/107 98/77/73 96/84/78
f 97/116/107 99/107/98 100/70/66 98/77/73
f 99/107/98 101/37/33 102/71/67 100/70/66
f 101/37/33 84/40/36 83/109/100 102/71/67
f 122/62/58 103/49/45 104/6/6 121/41/37
f 120/63/59 122/62/58 121/41/37 119/35/31
f 118/66/62 120/63/59 119/35/31 117/29/25
f 116/69/65 118/66/62 117/29/25 115/25/21
f 114/76/72 116/69/65 115/25/21 113/24/17
f 112/83/77 114/82/72 113/19/17 111/15/13
f 110/89/82 112/83/77 111/15/13 109/14/12
f 108/94/87 110/89/82 109/14/12 107/48/44
f 106/52/48 108/94/87 107/48/44 105/7/7
f 103/49/45 106/52/48 105/7/7 104/6/6
f 84/40/36 44/39/35 45/121/110 85/122/111
usemtl Material.002
f 9/123/10 19/124/112 18/125/113 8/126/3
f 7/127/4 17/128/114 16/129/115 6/130/40
f 12/131/24 22/132/116 21/133/117 11/134/20
f 5/135/29 15/136/118 3/137/119 1/138/30
f 10/139/16 20/140/120 19/124/112 9/123/10
f 8/141/3 18/142/113 17/128/114 7/127/4
f 4/143/42 14/144/121 22/132/116 12/131/24
f 6/130/40 16/129/115 15/136/118 5/135/29
f 11/134/20 21/133/117 20/140/120 10/139/16
f 13/145/122 14/146/121 3/147/119
f 13/145/122 3/147/119 15/148/118
f 13/145/122 15/148/118 16/149/115
f 13/145/122 16/149/115 17/150/114
f 13/145/122 17/150/114 18/151/113
f 13/145/122 18/151/113 19/152/112
f 13/145/122 19/152/112 20/153/120
f 13/145/122 20/153/120 21/154/117
f 13/145/122 21/154/117 22/155/116
f 13/145/122 22/155/116 14/146/121
f 1/138/30 3/137/119 14/144/121 4/143/42
