# Blender v2.90.1 OBJ File: ''
# www.blender.org
mtllib Skull01.mtl
o Skull01_Cube.011
v -0.399499 0.209226 0.495744
v -0.425165 0.429089 -0.587846
v 0.402030 0.209226 0.495744
v 0.427696 0.429089 -0.587846
v -0.478432 -0.048691 0.479739
v 0.390025 0.005018 -0.598424
v 0.480963 -0.048691 0.479739
v -0.495506 -0.346966 -0.233874
v -0.545559 0.417631 0.099919
v -0.545559 0.417631 -0.233874
v 0.498037 -0.346966 -0.233874
v 0.548090 0.417631 -0.233874
v 0.548090 0.417631 0.099919
v 0.561319 -0.073617 -0.233874
v -0.611834 -0.073617 0.037787
v -0.558788 -0.073617 -0.233874
v 0.263098 -0.367868 -0.598424
v -0.260567 -0.367868 -0.598424
v 0.143409 0.429089 -0.739180
v 0.155676 0.147873 0.576706
v -0.153145 0.147873 0.576706
v 0.148112 -0.095553 -0.749758
v -0.383543 -0.480841 0.169888
v 0.604484 -0.380270 0.433094
v 0.295776 -0.501080 0.633086
v -0.185245 -0.111936 0.596989
v 0.614365 -0.073617 0.037787
v -0.293586 -0.501081 0.633095
v 0.187776 -0.111936 0.596989
v 0.274850 -0.579955 -0.182506
v 0.305576 -0.748074 0.077872
v -0.303045 -0.748074 0.077872
v -0.237722 -0.776952 0.642466
v 0.239653 -0.776952 0.642463
v -0.449467 0.596807 -0.201844
v -0.350229 0.532089 -0.512910
v 0.118430 0.585349 -0.512910
v 0.451998 0.596807 0.098645
v 0.451998 0.567418 0.293410
v -0.449467 0.596807 0.098645
v 0.451998 0.596807 -0.201844
v 0.151510 0.726294 -0.201844
v 0.151510 0.726294 0.098645
v 0.151510 0.596807 0.355555
v -0.148979 0.726294 0.098645
v -0.062491 0.318059 0.589430
v 0.548090 0.417631 0.408092
v 0.065022 0.318059 0.589430
v -0.112110 -0.161024 0.623107
v 0.114641 -0.161024 0.623107
v -0.478432 -0.053944 0.419490
v -0.399499 0.198517 0.389206
v -0.153145 0.137164 0.470167
v 0.402030 0.198517 0.389206
v 0.480963 -0.053944 0.419490
v 0.155676 0.137164 0.470167
v -0.185245 -0.122645 0.490451
v 0.187776 -0.122645 0.490451
v -0.140878 0.429089 -0.739180
v -0.145581 -0.095553 -0.749758
v -0.020711 -0.393010 0.653018
v -0.020711 -0.189490 0.642559
v -0.272319 -0.579955 -0.182506
v 0.017803 -0.783951 0.680153
v -0.115899 0.585349 -0.512910
v -0.148979 0.596807 0.355555
v -0.148979 0.726294 -0.201844
v -0.052182 -0.189490 0.642559
v -0.132461 -0.393010 0.653018
v -0.133708 -0.781526 0.680203
v 0.059403 -0.189490 0.642559
v 0.179260 -0.781526 0.663045
v 0.133779 -0.393010 0.653018
v -0.053278 -0.214464 0.626388
v -0.029763 -0.214464 0.626388
v -0.029763 -0.366529 0.624486
v -0.113260 -0.366529 0.624486
v 0.059578 -0.214464 0.626388
v -0.202780 -0.501079 0.667844
v 0.023599 -0.393010 0.653018
v 0.023599 -0.189490 0.642559
v -0.055689 -0.161024 0.643286
v 0.064898 -0.161024 0.643286
v 0.001265 -0.161024 0.643286
v -0.018705 -0.501079 0.685961
v 0.141910 -0.501079 0.685961
v 0.032826 -0.214464 0.626388
v 0.032826 -0.366529 0.624486
v 0.115150 -0.366529 0.624486
v -0.323738 -0.480841 -0.233874
v 0.286006 -0.621063 0.638424
v 0.386074 -0.480841 0.169888
v 0.326269 -0.480841 -0.233874
v -0.283817 -0.621063 0.638428
v -0.198599 -0.621064 0.665129
v -0.018705 -0.621064 0.683497
v 0.136957 -0.621064 0.683497
v -0.332553 -0.480841 0.619105
v -0.141901 -0.501079 0.685961
v -0.259786 -0.673783 0.637524
v -0.138186 -0.621064 0.683497
v -0.162350 -0.480841 0.672211
v 0.020622 -0.501079 0.685961
v -0.137423 -0.669209 0.682666
v 0.020622 -0.621064 0.683497
v 0.001265 -0.480841 0.657893
v 0.202830 -0.501079 0.667852
v 0.017803 -0.666784 0.682716
v 0.197262 -0.621064 0.665132
v 0.162259 -0.480841 0.672211
v 0.335045 -0.480841 0.619105
v 0.261834 -0.673783 0.637520
v 0.194661 -0.669209 0.665778
v 0.296790 -0.655086 0.617893
v 0.269213 -0.821427 0.596905
v 0.133054 -0.783951 0.680153
v 0.138208 -0.666784 0.682716
v -0.018214 -0.781526 0.680203
v 0.141250 -0.827541 0.637804
v -0.018214 -0.669209 0.682666
v 0.155634 -0.648971 0.670613
v -0.182143 -0.781526 0.663042
v 0.001265 -0.827541 0.623486
v -0.196284 -0.669209 0.665774
v 0.001265 -0.648971 0.656296
v -0.266877 -0.821427 0.596905
v -0.144504 -0.827541 0.637804
v -0.294314 -0.655086 0.617893
v -0.157381 -0.648971 0.670613
v -0.387494 -0.267297 -0.598424
v -0.545559 0.417631 0.408092
v -0.601953 -0.380270 0.433094
v -0.597352 -0.073617 0.420372
v -0.545877 -0.380270 0.068544
v -0.276322 0.192643 0.536225
v -0.276322 0.181934 0.429687
v -0.331838 -0.102124 0.454970
v -0.387494 0.005018 -0.598424
v -0.449467 0.567418 0.293410
v 0.390025 -0.267297 -0.598424
v 0.599883 -0.073617 0.420372
v 0.352760 0.532089 -0.512910
v 0.278853 0.192643 0.536225
v 0.278853 0.181934 0.429687
v 0.334369 -0.102124 0.454970
v 0.548408 -0.380270 0.068544
vt 0.460765 0.687774
vt 0.460019 0.691681
vt 0.457079 0.691980
vt 0.456635 0.689308
vt 0.447236 0.689717
vt 0.450401 0.695441
vt 0.448889 0.695035
vt 0.440529 0.688467
vt 0.472336 0.684975
vt 0.472319 0.689592
vt 0.471631 0.688652
vt 0.471901 0.686003
vt 0.459733 0.685585
vt 0.455313 0.687921
vt 0.464245 0.683229
vt 0.463574 0.686340
vt 0.454058 0.689232
vt 0.453761 0.690694
vt 0.449730 0.690207
vt 0.450236 0.688033
vt 0.447533 0.687015
vt 0.461879 0.691538
vt 0.465447 0.691133
vt 0.463857 0.693259
vt 0.460540 0.693905
vt 0.465437 0.692282
vt 0.465428 0.693431
vt 0.459023 0.696068
vt 0.461440 0.694664
vt 0.453491 0.693521
vt 0.451371 0.694360
vt 0.468360 0.684971
vt 0.458027 0.684974
vt 0.456321 0.684362
vt 0.465766 0.680332
vt 0.465005 0.681781
vt 0.447406 0.684737
vt 0.443480 0.680883
vt 0.438893 0.678563
vt 0.447135 0.682334
vt 0.455481 0.687757
vt 0.455649 0.687593
vt 0.459554 0.694648
vt 0.455870 0.698735
vt 0.459779 0.693532
vt 0.456500 0.693153
vt 0.453900 0.694783
vt 0.450769 0.696525
vt 0.454279 0.693261
vt 0.455067 0.693001
vt 0.455420 0.694857
vt 0.454660 0.694820
vt 0.455677 0.689307
vt 0.454719 0.689305
vt 0.453826 0.688429
vt 0.452527 0.686476
vt 0.455487 0.689958
vt 0.451124 0.698584
vt 0.450038 0.697063
vt 0.455531 0.683495
vt 0.456723 0.683638
vt 0.454710 0.683251
vt 0.455173 0.683042
vt 0.459565 0.682269
vt 0.467077 0.678229
vt 0.467645 0.689230
vt 0.467897 0.686064
vt 0.467681 0.686628
vt 0.468037 0.688571
vt 0.456124 0.692196
vt 0.455170 0.692412
vt 0.461117 0.683845
vt 0.473677 0.682766
vt 0.467632 0.683030
vt 0.443701 0.685903
vt 0.469320 0.681285
vt 0.445508 0.684731
vt 0.444543 0.686488
vt 0.448558 0.684509
vt 0.447315 0.683559
vt 0.467400 0.677319
vt 0.468360 0.679302
vt 0.453717 0.684556
vt 0.448324 0.675153
vt 0.442236 0.673246
vt 0.466400 0.669249
vt 0.463522 0.658342
vt 0.374461 0.618778
vt 0.374264 0.620413
vt 0.373081 0.621836
vt 0.372425 0.620356
vt 0.457167 0.698687
vt 0.456807 0.696476
vt 0.454004 0.699178
vt 0.452722 0.707943
vt 0.455013 0.694116
vt 0.469982 0.689411
vt 0.447325 0.693170
vt 0.440775 0.688905
vt 0.451208 0.692667
vt 0.454221 0.694842
vt 0.446228 0.687634
vt 0.451680 0.686364
vt 0.455092 0.692165
vt 0.250778 0.683288
vt 0.249944 0.704312
vt 0.239308 0.704527
vt 0.238428 0.683288
vt 0.250778 0.661969
vt 0.251613 0.682993
vt 0.240977 0.682777
vt 0.238428 0.661969
vt 0.433284 0.688873
vt 0.444013 0.687547
vt 0.461633 0.692225
vt 0.452360 0.692974
vt 0.469834 0.688611
vt 0.454741 0.686222
vt 0.470117 0.685520
vt 0.469791 0.686316
vt 0.443087 0.693724
vt 0.379173 0.617695
vt 0.376677 0.619258
vt 0.378728 0.617350
vt 0.380529 0.615797
vt 0.475052 0.664078
vt 0.453315 0.683893
vt 0.448515 0.681030
vt 0.467498 0.676538
vt 0.390393 0.612598
vt 0.386580 0.614626
vt 0.385718 0.616251
vt 0.389329 0.615161
vt 0.451487 0.679702
vt 0.450543 0.680667
vt 0.452759 0.680682
vt 0.450100 0.680499
vt 0.273103 0.659679
vt 0.273104 0.681530
vt 0.269725 0.681530
vt 0.261106 0.659680
vt 0.461023 0.677912
vt 0.460984 0.678699
vt 0.463486 0.679063
vt 0.459056 0.678689
vt 0.464635 0.683110
vt 0.464279 0.682802
vt 0.463253 0.682208
vt 0.465046 0.682419
vt 0.272935 0.681675
vt 0.264950 0.703526
vt 0.261106 0.703526
vt 0.261106 0.681675
vt 0.456290 0.677937
vt 0.396702 0.611562
vt 0.397620 0.614773
vt 0.393457 0.614935
vt 0.393234 0.610956
vt 0.404671 0.604171
vt 0.397268 0.608527
vt 0.390458 0.606968
vt 0.394133 0.601419
vt 0.396011 0.606976
vt 0.381641 0.611897
vt 0.380918 0.612807
vt 0.386869 0.609862
vt 0.377042 0.614793
vt 0.375526 0.616412
vt 0.375809 0.614735
vt 0.372426 0.613594
vt 0.374089 0.616021
vt 0.371223 0.617919
vt 0.369839 0.619108
vt 0.371249 0.617448
vt 0.255489 0.618035
vt 0.259652 0.617873
vt 0.256671 0.619181
vt 0.256573 0.619962
vt 0.255267 0.614057
vt 0.255573 0.611891
vt 0.258735 0.614662
vt 0.254623 0.613687
vt 0.251361 0.618262
vt 0.247750 0.619352
vt 0.245464 0.620580
vt 0.252426 0.615698
vt 0.248613 0.617726
vt 0.243160 0.617592
vt 0.240761 0.620450
vt 0.238710 0.622358
vt 0.237689 0.623673
vt 0.242562 0.618897
vt 0.241206 0.620795
vt 0.237082 0.620674
vt 0.234457 0.623456
vt 0.235114 0.624936
vt 0.236489 0.626202
vt 0.236297 0.623514
vt 0.232654 0.623526
vt 0.236494 0.621879
vt 0.231872 0.622208
vt 0.233256 0.621019
vt 0.228066 0.621205
vt 0.236121 0.619122
vt 0.237497 0.617796
vt 0.233282 0.620548
vt 0.239074 0.617893
vt 0.234459 0.616694
vt 0.231410 0.615889
vt 0.237841 0.617835
vt 0.237559 0.619512
vt 0.243673 0.614998
vt 0.258043 0.610076
vt 0.264225 0.606721
vt 0.248902 0.612962
vt 0.242951 0.615908
vt 0.266704 0.607271
vt 0.256165 0.604520
vt 0.252695 0.600985
vt 0.252491 0.610068
vt 0.259301 0.611628
vt 0.263129 0.683288
vt 0.260580 0.704097
vt 0.471019 0.683869
vt 0.455756 0.693635
vt 0.263129 0.661969
vt 0.262248 0.683208
vt 0.447470 0.685876
vt 0.452954 0.697899
vt 0.451381 0.687254
vt 0.453942 0.688830
vt 0.454624 0.690326
vn -0.9255 -0.0203 -0.3783
vn 0.9928 0.1182 0.0208
vn -0.9925 0.1217 -0.0122
vn -0.9205 -0.1068 -0.3758
vn -0.9570 -0.2231 -0.1853
vn 0.9205 -0.1068 -0.3758
vn 0.9570 -0.2231 -0.1853
vn -0.8584 0.5121 0.0299
vn -0.1807 0.6230 0.7610
vn 0.9255 -0.0203 -0.3783
vn 0.9925 0.0858 -0.0870
vn -0.9928 0.1182 0.0208
vn -0.9925 0.0858 -0.0870
vn -0.5445 -0.8295 -0.1241
vn 0.9648 -0.2561 0.0598
vn -0.5823 -0.7418 -0.3327
vn 0.0000 0.6428 0.7661
vn -0.7622 0.5748 -0.2977
vn 0.7622 0.5748 -0.2977
vn 0.2495 0.7733 -0.5829
vn -0.4448 -0.1514 -0.8828
vn 0.0000 -0.9552 -0.2960
vn 0.0000 -0.4858 -0.8741
vn 0.8584 0.5121 0.0299
vn 0.0000 -0.5435 0.8394
vn -0.9279 -0.3113 -0.2053
vn 0.9552 -0.2947 0.0282
vn -0.4983 0.0020 -0.8670
vn -0.1742 0.1076 0.9788
vn 0.9931 -0.1033 -0.0553
vn -0.9931 -0.1033 -0.0553
vn 0.4194 0.1631 0.8930
vn -0.4209 -0.9071 -0.0026
vn 0.0000 0.0202 -0.9998
vn 0.0000 -0.8401 -0.5424
vn -0.0069 -0.9903 -0.1388
vn 0.0027 -0.9898 -0.1422
vn -0.0074 -0.9903 -0.1386
vn 0.9279 -0.3113 -0.2053
vn -0.9649 -0.2558 0.0596
vn 0.3205 -0.0102 0.9472
vn -0.3920 0.9097 0.1373
vn -0.3772 0.8753 -0.3025
vn -0.3957 0.9184 0.0000
vn 0.3957 0.9184 0.0000
vn 0.0000 -0.4601 -0.8878
vn 0.2009 0.8841 -0.4219
vn 0.1776 0.8788 0.4429
vn 0.8813 0.4726 0.0000
vn -0.8813 0.4726 0.0000
vn 0.3920 0.9097 0.1373
vn -0.1776 0.8788 0.4429
vn -0.2009 0.8841 -0.4219
vn 0.3772 0.8753 -0.3025
vn -0.4447 0.0732 0.8927
vn -0.3123 0.1335 0.9405
vn 0.4447 0.0732 0.8927
vn 0.2820 0.1973 0.9389
vn 0.4013 -0.1571 0.9024
vn 0.3006 0.1025 0.9482
vn -0.3006 0.1025 0.9482
vn -0.2324 0.1576 0.9598
vn 0.2421 0.1197 0.9628
vn -0.3290 0.9407 -0.0820
vn 0.3670 -0.9256 0.0930
vn -0.1646 -0.9814 0.0987
vn 0.9925 0.1217 -0.0122
vn 0.2467 0.9505 -0.1889
vn -0.9552 -0.2947 0.0282
vn 0.0000 0.8930 0.4501
vn 0.0000 0.9109 -0.4127
vn 0.0000 1.0000 0.0000
vn 0.0000 -0.0205 0.9998
vn -0.0089 -0.9904 -0.1380
vn 0.0830 0.1113 0.9903
vn 0.0000 0.8229 -0.5683
vn 0.3072 0.1889 0.9327
vn -0.3020 0.1908 0.9340
vn 0.0000 0.7330 0.6803
vn 0.0000 -0.0125 0.9999
vn -0.8814 -0.3136 0.3533
vn 0.0515 0.1333 0.9897
vn -0.0626 0.0477 0.9969
vn 0.0000 -0.0256 0.9997
vn 0.7645 -0.2277 0.6031
vn 0.0616 0.0478 0.9970
vn -0.0523 0.1338 0.9896
vn -0.7169 -0.1846 0.6723
vn -0.3296 -0.0089 0.9441
vn 0.9242 0.0092 0.3818
vn 0.8764 -0.3374 0.3436
vn -0.9267 0.0090 0.3756
vn -0.3788 -0.0542 0.9239
vn 0.0000 -0.0219 0.9998
vn 0.3570 -0.0527 0.9326
vn -0.9706 -0.2138 0.1102
vn 0.9706 -0.2139 0.1103
vn -0.3104 0.2305 0.9222
vn -0.5556 -0.0791 0.8277
vn -0.1215 -0.0187 0.9924
vn -0.3045 -0.3649 0.8799
vn 0.0347 0.7183 0.6949
vn -0.5537 -0.0284 0.8323
vn 0.8099 -0.0083 0.5865
vn 0.0418 -0.5825 0.8118
vn -0.0352 0.7185 0.6946
vn -0.8185 -0.0081 0.5744
vn 0.5588 -0.0341 0.8286
vn -0.0429 -0.5825 0.8117
vn 0.3056 0.2295 0.9241
vn 0.5512 -0.0783 0.8307
vn 0.1207 -0.0200 0.9925
vn 0.2958 -0.3621 0.8840
vn 0.6672 -0.1664 0.7261
vn 0.2773 -0.6080 0.7439
vn -0.2249 -0.0955 0.9697
vn 0.3536 0.3643 0.8616
vn -0.0371 -0.7485 0.6621
vn -0.9232 -0.0456 0.3816
vn 0.8771 -0.1138 0.4666
vn -0.0353 0.7341 0.6781
vn 0.0374 -0.7307 0.6817
vn -0.8416 -0.1121 0.5284
vn 0.8977 -0.0530 0.4374
vn 0.0373 0.6882 0.7245
vn -0.2920 -0.6062 0.7398
vn -0.6717 -0.1664 0.7219
vn 0.2255 -0.0975 0.9694
vn -0.3653 0.3662 0.8559
vn 0.3290 0.9407 -0.0820
vn -0.3670 -0.9256 0.0930
vn -0.2421 0.1197 0.9628
vn -0.4013 -0.1571 0.9024
vn -0.2820 0.1972 0.9389
vn -0.2495 0.7733 -0.5829
vn -0.4194 0.1631 0.8930
vn 0.1646 -0.9814 0.0987
vn -0.2467 0.9505 -0.1889
vn 0.2324 0.1576 0.9598
vn 0.3123 0.1335 0.9405
vn 0.4208 -0.9071 -0.0026
vn 0.1807 0.6230 0.7610
vn 0.5445 -0.8295 -0.1241
vn 0.5823 -0.7418 -0.3327
vn 0.4448 -0.1514 -0.8828
vn 0.4983 0.0020 -0.8670
usemtl None
s 1
f 16/1/1 10/2/1 2/3/1 138/4/1
f 27/5/2 13/6/2 47/7/2 141/8/2
f 26/9/3 21/10/3 53/11/3 57/12/3
f 8/13/4 16/1/4 138/4/4 130/14/4
f 134/15/5 15/16/5 16/1/5 8/13/5
f 140/17/6 6/18/6 14/19/6 11/20/6
f 11/20/7 14/19/7 27/5/7 146/21/7
f 9/22/8 131/23/8 139/24/8 40/25/8
f 131/26/9 46/27/9 66/28/9 139/29/9
f 6/18/10 4/30/10 12/31/10 14/19/10
f 14/19/11 12/31/11 13/6/11 27/5/11
f 133/32/12 131/23/12 9/22/12 15/16/12
f 15/16/13 9/22/13 10/2/13 16/1/13
f 8/33/14 90/34/14 23/35/14 134/36/14
f 92/37/15 114/38/15 115/39/15 31/40/15
f 130/41/16 18/42/16 90/34/16 8/33/16
f 46/27/17 48/43/17 44/44/17 66/28/17
f 2/3/18 10/2/18 35/45/18 36/46/18
f 12/31/19 4/30/19 142/47/19 41/48/19
f 4/49/20 19/50/20 37/51/20 142/52/20
f 130/41/21 138/53/21 60/54/21 18/42/21
f 18/42/22 17/55/22 93/56/22 90/34/22
f 18/42/23 60/54/23 22/57/23 17/55/23
f 47/7/24 13/6/24 38/58/24 39/59/24
f 71/60/25 81/61/25 87/62/25 78/63/25
f 23/35/26 90/34/26 63/64/26 32/65/26
f 1/66/27 5/67/27 51/68/27 52/69/27
f 138/53/28 2/70/28 59/71/28 60/54/28
f 84/72/29 46/27/29 49/73/29 82/74/29
f 146/21/30 27/5/30 141/8/30 24/75/30
f 132/76/31 133/32/31 15/16/31 134/15/31
f 24/77/32 141/78/32 50/79/32 111/80/32
f 134/36/33 23/35/33 98/81/33 132/82/33
f 60/54/34 59/71/34 19/50/34 22/57/34
f 63/64/35 30/83/35 31/40/35 32/65/35
f 32/65/36 31/40/37 115/39/37 119/84/37 123/85/38
f 93/56/39 92/37/39 31/40/39 30/83/39
f 128/86/40 23/35/40 32/65/40 126/87/40
f 109/88/41 91/89/41 25/90/41 107/91/41
f 45/92/42 40/25/42 139/24/42
f 36/46/43 35/45/43 67/93/43
f 67/93/44 35/45/44 40/25/44 45/92/44
f 41/48/45 42/94/45 43/95/45 38/58/45
f 90/34/46 93/56/46 30/83/46 63/64/46
f 142/52/47 37/51/47 42/94/47
f 43/95/48 44/44/48 39/59/48
f 13/6/49 12/31/49 41/48/49 38/58/49
f 10/2/50 9/22/50 40/25/50 35/45/50
f 38/58/51 43/95/51 39/59/51
f 66/28/52 45/92/52 139/29/52
f 65/96/53 36/46/53 67/93/53
f 41/48/54 142/47/54 42/94/54
f 5/67/55 1/66/55 131/23/55 133/32/55
f 135/97/56 21/10/56 46/27/56 131/26/56
f 3/98/57 7/99/57 141/8/57 47/7/57
f 143/100/58 3/98/58 47/101/58
f 7/102/59 29/103/59 50/79/59 141/78/59
f 29/103/60 20/104/60 48/43/60 50/79/60
f 21/10/61 26/9/61 49/73/61 46/27/61
f 137/105/62 136/106/62 52/107/62 51/108/62
f 145/109/63 144/110/63 56/111/63 58/112/63
f 7/99/64 55/113/64 145/114/64
f 143/100/65 20/104/65 56/115/65 144/116/65
f 135/97/66 1/66/66 52/69/66 136/117/66
f 20/104/67 29/103/67 58/118/67 56/115/67
f 5/119/68 26/9/68 57/12/68 137/120/68
f 7/99/69 3/98/69 54/121/69 55/113/69
f 43/95/70 45/92/70 66/28/70 44/44/70
f 37/51/71 65/96/71 67/93/71 42/94/71
f 42/94/72 67/93/72 45/92/72 43/95/72
f 97/122/73 86/123/73 103/124/73 105/125/73
f 32/65/36 123/85/38 127/126/74 126/87/74
f 50/79/75 48/43/75 46/27/75 84/72/75 83/127/75
f 19/50/76 59/71/76 65/96/76 37/51/76
f 111/80/77 50/79/77 83/127/77 110/128/77
f 102/129/78 82/74/78 49/73/78 98/81/78
f 101/130/73 96/131/73 85/132/73 99/133/73
f 80/134/79 73/135/79 89/136/79 88/137/79
f 76/138/80 75/139/80 74/140/80 77/141/80
f 69/142/79 61/143/79 76/144/79 77/145/79
f 73/135/81 71/60/81 78/63/81 89/136/81
f 62/146/25 68/147/25 74/148/25 75/149/25
f 89/150/80 78/151/80 87/152/80 88/153/80
f 61/143/82 69/142/82 102/129/82 106/154/82
f 62/146/83 61/143/83 106/154/83 84/72/83
f 68/147/84 62/146/84 84/72/84 82/74/84
f 69/142/85 68/147/85 82/74/85 102/129/85
f 81/61/84 71/60/84 83/127/84 84/72/84
f 80/134/86 81/61/86 84/72/86 106/154/86
f 73/135/87 80/134/87 106/154/87 110/128/87
f 71/60/88 73/135/88 110/128/88 83/127/88
f 95/155/89 79/156/89 28/157/89 94/158/89
f 81/61/90 80/134/90 88/137/90 87/62/90
f 68/147/91 69/142/91 77/145/91 74/148/91
f 61/143/92 62/146/92 75/149/92 76/144/92
f 122/159/93 124/160/93 100/161/93 33/162/93
f 70/163/94 118/164/94 120/165/94 104/166/94
f 116/167/94 117/168/94 108/169/94 64/170/94
f 72/171/95 34/172/95 112/173/95 113/174/95
f 98/81/96 23/35/96 128/86/96
f 92/37/97 111/80/97 114/38/97
f 28/175/98 79/176/98 102/177/98 98/178/98
f 94/179/99 28/175/99 98/178/99 128/180/99
f 79/176/100 95/181/100 129/182/100 102/177/100
f 95/181/101 94/179/101 128/180/101 129/182/101
f 99/183/102 85/184/102 106/185/102 102/177/102
f 101/186/103 99/183/103 102/177/103 129/182/103
f 85/184/104 96/187/104 125/188/104 106/185/104
f 96/187/105 101/186/105 129/182/105 125/188/105
f 103/189/106 86/190/106 110/191/106 106/185/106
f 105/192/107 103/189/107 106/185/107 125/188/107
f 86/190/108 97/193/108 121/194/108 110/191/108
f 97/193/109 105/192/109 125/188/109 121/194/109
f 107/195/110 25/196/110 111/197/110 110/191/110
f 25/196/111 91/198/111 114/199/111 111/197/111
f 109/200/112 107/195/112 110/191/112 121/194/112
f 91/198/113 109/200/113 121/194/113 114/199/113
f 112/201/114 34/202/114 115/203/114 114/199/114
f 34/202/115 72/204/115 119/205/115 115/203/115
f 72/204/116 113/206/116 121/194/116 119/205/116
f 113/206/117 112/201/117 114/199/117 121/194/117
f 116/207/118 64/208/118 123/209/118 119/205/118
f 64/208/119 108/210/119 125/188/119 123/209/119
f 117/211/120 116/207/120 119/205/120 121/194/120
f 108/210/121 117/211/121 121/194/121 125/188/121
f 118/212/122 70/213/122 127/214/122 123/209/122
f 70/213/123 104/215/123 129/182/123 127/214/123
f 120/216/124 118/212/124 123/209/124 125/188/124
f 104/215/125 120/216/125 125/188/125 129/182/125
f 122/217/126 33/218/126 126/219/126 127/214/126
f 33/218/127 100/220/127 128/180/127 126/219/127
f 124/221/128 122/217/128 127/214/128 129/182/128
f 100/220/129 124/221/129 129/182/129 128/180/129
f 5/119/130 137/120/130 51/68/130
f 21/10/131 135/97/131 136/117/131 53/11/131
f 57/222/132 53/223/132 136/106/132 137/105/132
f 26/9/133 5/119/133 133/224/133 49/73/133
f 1/66/134 135/97/134 131/23/134
f 59/71/135 2/70/135 36/225/135 65/96/135
f 98/81/136 49/73/136 133/224/136 132/82/136
f 3/98/137 143/100/137 144/116/137 54/121/137
f 29/103/138 7/102/138 145/114/138 58/118/138
f 55/226/139 54/227/139 144/110/139 145/109/139
f 20/104/140 143/100/140 47/101/140 48/43/140
f 92/37/141 146/228/141 24/77/141 111/80/141
f 48/43/142 47/101/142 39/229/142 44/44/142
f 93/56/143 11/230/143 146/228/143 92/37/143
f 17/55/144 140/231/144 11/230/144 93/56/144
f 17/55/145 22/57/145 6/232/145 140/231/145
f 22/57/146 19/50/146 4/49/146 6/232/146
