# Blender v2.91.2 OBJ File: ''
# www.blender.org
mtllib Skull04.mtl
o DesertCowSkull_Cube.125
v 0.125327 -0.076208 0.556302
v 0.353458 0.525533 -0.130038
v 0.034888 -0.554853 0.801144
v 0.204542 0.594607 -0.196095
v 0.379645 0.496831 0.093261
v 0.160533 0.380210 0.312002
v 0.143245 0.158879 0.469806
v 0.345827 0.283185 -0.157103
v 0.218108 0.206541 -0.355597
v 0.245520 -0.151800 0.478111
v 0.226329 -0.335680 0.254754
v 0.944017 0.660516 0.038648
v 0.077489 -0.624068 0.510806
v 1.054826 0.846136 -0.017446
v 0.392080 0.250447 0.063665
v 0.277034 0.034591 -0.240189
v 0.148238 -0.468340 0.644548
v 0.158428 -0.577082 0.491480
v 0.390082 0.223421 0.245583
v 0.260817 -0.148149 0.014102
v 0.312038 0.013389 0.406373
v 0.246653 -0.255359 0.172305
v 0.205062 0.291400 0.337682
v 0.180751 0.159889 0.408466
v 0.656183 0.572188 -0.096498
v 0.300724 0.049176 0.401022
v 0.731178 0.463328 0.088339
v 0.365572 0.545691 -0.019418
v 0.272914 0.135731 -0.302721
v 0.370569 0.231748 -0.044335
v 0.343265 0.416348 -0.182731
v 0.728868 0.405074 -0.123235
v 0.120552 -0.662739 0.786843
v 0.204542 0.437675 -0.307118
v 0.392877 0.361091 0.118978
v 0.685041 0.496212 -0.139289
v 0.766974 0.389440 0.043833
v 0.760185 0.373714 -0.038734
v 0.679233 0.552833 0.071946
v 0.330357 0.198058 0.226850
v 0.656034 0.585826 -0.012216
v 0.915443 0.673885 -0.091856
v 0.880257 0.713178 -0.018271
v 0.898320 0.698321 0.029754
v 0.884119 0.707784 -0.066687
v 0.979203 0.621223 -0.034937
v 0.957128 0.633578 -0.083339
v 0.978654 0.629171 0.012667
v 0.288867 0.351919 0.236015
v 0.240226 0.314701 0.208842
v 0.316122 0.080061 0.289149
v 0.373841 0.095587 0.320866
v -0.353458 0.525533 -0.130038
v -0.204542 0.594607 -0.196095
v -0.379645 0.496831 0.093261
v -0.027456 -0.545092 0.764622
v -0.160533 0.380210 0.312002
v -0.143245 0.158879 0.469806
v -0.345827 0.283185 -0.157103
v -0.218108 0.206541 -0.355597
v -0.245520 -0.151800 0.478111
v -0.226329 -0.335680 0.254754
v -0.944017 0.660516 0.038648
v -0.077489 -0.624068 0.510806
v -1.054826 0.846136 -0.017446
v -0.392080 0.250447 0.063665
v -0.277034 0.034591 -0.240189
v -0.148238 -0.468340 0.644548
v -0.158428 -0.577082 0.491480
v -0.390082 0.223421 0.245583
v -0.260817 -0.148149 0.014102
v -0.312038 0.013389 0.406373
v -0.246653 -0.255359 0.172305
v -0.205062 0.291400 0.337682
v -0.180751 0.159889 0.408466
v -0.656183 0.572188 -0.096498
v -0.300724 0.049176 0.401022
v -0.000000 0.569673 -0.059228
v -0.000000 0.594607 -0.196095
v -0.000000 0.542026 0.118801
v -0.007789 -0.533781 0.790863
v -0.000000 0.335084 0.355969
v -0.000000 0.198994 0.492987
v 0.000000 -0.624068 0.510806
v -0.731178 0.463328 0.088339
v 0.000000 0.280742 -0.418142
v -0.000000 0.450845 -0.325734
v -0.365572 0.545691 -0.019418
v -0.273504 0.135731 -0.302721
v -0.370569 0.231748 -0.044335
v -0.000000 0.555849 0.029787
v -0.343265 0.416348 -0.182731
v -0.728868 0.405074 -0.123235
v -0.120552 -0.662739 0.786843
v -0.204542 0.437675 -0.307118
v -0.392877 0.361091 0.118978
v -0.685041 0.496212 -0.139289
v -0.766974 0.389440 0.043833
v -0.760185 0.373714 -0.038734
v -0.679233 0.552833 0.071946
v -0.330357 0.198058 0.226850
v 0.000000 -0.662739 0.786843
v -0.656034 0.585825 -0.012216
v -0.915442 0.673885 -0.091856
v -0.880257 0.713178 -0.018271
v -0.898320 0.698321 0.029754
v -0.884119 0.707784 -0.066687
v -0.979203 0.621223 -0.034937
v -0.957128 0.633578 -0.083339
v -0.978654 0.629171 0.012667
v -0.288867 0.351919 0.236015
v -0.240226 0.314701 0.208842
v -0.316122 0.080061 0.289149
v -0.373841 0.095587 0.320866
v 0.007811 -0.020568 0.595884
v 0.007789 -0.533781 0.790863
v -0.034888 -0.554853 0.801144
v -0.125327 -0.076208 0.556302
v -0.007811 -0.020222 0.596129
v -0.000000 -0.554853 0.801144
v -0.002295 -0.046506 0.558618
v -0.002274 -0.545512 0.763648
v -0.110655 -0.087939 0.529088
v 0.110655 -0.087939 0.529088
v 0.002295 -0.046506 0.558618
v 0.002274 -0.545512 0.763648
v 0.027456 -0.545092 0.764622
v 0.533815 0.449754 -0.172961
v 0.600351 0.311904 0.044395
v 0.586105 0.294468 -0.052060
v 0.524074 0.543412 -0.124612
v 0.582344 0.405217 0.094935
v 0.557631 0.336311 -0.151893
v 0.530054 0.560503 -0.025966
v 0.549019 0.519109 0.073647
v -0.533815 0.449754 -0.172961
v -0.600351 0.311904 0.044395
v -0.586105 0.294468 -0.052060
v -0.524074 0.543412 -0.124612
v -0.582344 0.405217 0.094935
v -0.557631 0.336311 -0.151893
v -0.530054 0.560503 -0.025966
v -0.549019 0.519109 0.073647
vt 0.387531 0.700040
vt 0.389585 0.693756
vt 0.393185 0.694772
vt 0.393868 0.701110
vt 0.389465 0.690255
vt 0.384871 0.690598
vt 0.386563 0.687215
vt 0.406639 0.688901
vt 0.406420 0.694412
vt 0.402234 0.692346
vt 0.402767 0.689148
vt 0.376402 0.675249
vt 0.378666 0.677811
vt 0.376118 0.678885
vt 0.374535 0.678275
vt 0.403721 0.698217
vt 0.399662 0.691795
vt 0.397108 0.693008
vt 0.399691 0.700698
vt 0.378980 0.684052
vt 0.378980 0.684052
vt 0.374273 0.684596
vt 0.374273 0.684596
vt 0.373895 0.684572
vt 0.381303 0.681485
vt 0.398571 0.692714
vt 0.401772 0.699626
vt 0.379284 0.683961
vt 0.397706 0.684571
vt 0.395666 0.690253
vt 0.394605 0.689424
vt 0.394861 0.683530
vt 0.388114 0.681147
vt 0.382320 0.677832
vt 0.399512 0.685475
vt 0.396845 0.689207
vt 0.396032 0.691782
vt 0.394391 0.692440
vt 0.398558 0.688977
vt 0.401253 0.685579
vt 0.406168 0.682310
vt 0.380405 0.675849
vt 0.391557 0.682533
vt 0.380629 0.674215
vt 0.406283 0.682381
vt 0.390869 0.692767
vt 0.392733 0.693658
vt 0.393605 0.691981
vt 0.393551 0.690359
vt 0.399668 0.690285
vt 0.391954 0.689104
vt 0.392312 0.690072
vt 0.390346 0.690792
vt 0.401952 0.656075
vt 0.408107 0.658950
vt 0.403564 0.664063
vt 0.399878 0.662707
vt 0.397632 0.665584
vt 0.393384 0.666361
vt 0.394002 0.662517
vt 0.411599 0.678274
vt 0.408092 0.675026
vt 0.409789 0.671924
vt 0.415035 0.672946
vt 0.377654 0.670369
vt 0.377987 0.666636
vt 0.379699 0.667094
vt 0.381255 0.669559
vt 0.415035 0.667725
vt 0.407189 0.670705
vt 0.405787 0.668028
vt 0.413034 0.662928
vt 0.393714 0.655823
vt 0.393939 0.662412
vt 0.393939 0.662412
vt 0.393714 0.655823
vt 0.385602 0.668012
vt 0.385389 0.664734
vt 0.393781 0.655672
vt 0.406848 0.669214
vt 0.414200 0.665210
vt 0.400827 0.675482
vt 0.397952 0.674485
vt 0.401405 0.669459
vt 0.402816 0.669438
vt 0.391016 0.672303
vt 0.384286 0.671638
vt 0.402829 0.675882
vt 0.403118 0.671070
vt 0.404096 0.668385
vt 0.403125 0.666796
vt 0.404388 0.672375
vt 0.404330 0.676915
vt 0.381688 0.672324
vt 0.394693 0.673275
vt 0.402482 0.664730
vt 0.400353 0.664332
vt 0.401110 0.668020
vt 0.402174 0.666692
vt 0.406202 0.672001
vt 0.399004 0.668074
vt 0.398697 0.665673
vt 0.399900 0.667488
vt 0.381585 0.661196
vt 0.381255 0.660989
vt 0.385189 0.664476
vt 0.380888 0.695698
vt 0.380856 0.695855
vt 0.384762 0.690644
vt 0.384762 0.690644
vt 0.380888 0.695698
vt 0.381585 0.661196
vt 0.660725 0.675974
vt 0.662284 0.674709
vt 0.665397 0.675714
vt 0.664206 0.676781
vt 0.658292 0.679036
vt 0.659370 0.677381
vt 0.663482 0.677982
vt 0.663159 0.679259
vt 0.659197 0.682027
vt 0.658446 0.680650
vt 0.663466 0.680362
vt 0.663879 0.681325
vt 0.662957 0.684877
vt 0.660684 0.683442
vt 0.664574 0.682436
vt 0.665841 0.683637
vt 0.671715 0.679395
vt 0.671870 0.679954
vt 0.664384 0.673392
vt 0.667091 0.674689
vt 0.672183 0.680435
vt 0.672717 0.680992
vt 0.672444 0.678194
vt 0.671976 0.678764
vt 0.673144 0.677643
vt 0.674061 0.677126
vt 0.676732 0.679191
vt 0.676178 0.679388
vt 0.676719 0.679596
vt 0.676237 0.679479
vt 0.673658 0.681644
vt 0.676251 0.679295
vt 0.677654 0.679363
vt 0.676410 0.679218
vt 0.676373 0.679555
vt 0.661311 0.687968
vt 0.660882 0.689677
vt 0.658190 0.689507
vt 0.658036 0.687819
vt 0.668482 0.688812
vt 0.666167 0.690693
vt 0.663565 0.690092
vt 0.664739 0.688270
vt 0.673642 0.690821
vt 0.669677 0.692115
vt 0.668085 0.691425
vt 0.671454 0.689775
vt 0.676927 0.693780
vt 0.672955 0.694123
vt 0.671392 0.692991
vt 0.675485 0.692153
vt 0.662585 0.694227
vt 0.661612 0.693856
vt 0.655293 0.689541
vt 0.654359 0.687836
vt 0.664076 0.695116
vt 0.663320 0.694610
vt 0.660270 0.693596
vt 0.658926 0.693444
vt 0.657489 0.693387
vt 0.658212 0.695981
vt 0.655992 0.693426
vt 0.658872 0.695437
vt 0.659296 0.695627
vt 0.659088 0.695463
vt 0.664783 0.695823
vt 0.658637 0.695451
vt 0.659180 0.695775
vt 0.658404 0.695552
vt 0.659228 0.695535
vt 0.659171 0.673704
vt 0.661677 0.672096
vt 0.656794 0.684447
vt 0.654514 0.682730
vt 0.655258 0.676781
vt 0.657245 0.675168
vt 0.653425 0.680938
vt 0.653425 0.678814
vt 0.660073 0.686117
vt 0.657882 0.686130
vt 0.653425 0.686130
vt 0.679578 0.691315
vt 0.677607 0.689527
vt 0.665913 0.686449
vt 0.661740 0.686259
vt 0.674822 0.688126
vt 0.670797 0.686931
vt 0.680899 0.693437
vt 0.796308 0.698483
vt 0.803033 0.692044
vt 0.812874 0.693550
vt 0.817742 0.699466
vt 0.810271 0.706630
vt 0.801076 0.706630
vt 0.817644 0.684660
vt 0.811699 0.691992
vt 0.802609 0.690601
vt 0.796308 0.682390
vt 0.802015 0.677277
vt 0.811970 0.677277
vt 0.820037 0.685882
vt 0.820037 0.698257
vt 0.785431 0.693393
vt 0.785829 0.690571
vt 0.820037 0.685874
vt 0.785829 0.681186
vt 0.785431 0.678364
vt 0.820037 0.673499
vn 0.1589 0.6236 0.7654
vn 0.5519 0.2033 0.8088
vn 0.0556 0.6239 -0.7795
vn 0.0000 -0.1314 0.9913
vn 0.1175 0.9312 0.3452
vn 0.0775 0.7951 0.6015
vn 0.3134 0.9140 0.2575
vn 0.6206 0.4037 0.6722
vn 0.0997 0.9521 0.2890
vn 0.6905 0.1970 0.6960
vn 0.9484 -0.2994 -0.1043
vn 0.9723 -0.1951 0.1284
vn 0.9474 -0.2081 -0.2430
vn 0.6141 0.5274 0.5871
vn 0.5895 0.1988 -0.7829
vn 0.9113 -0.4118 -0.0026
vn 0.9559 -0.2770 0.0973
vn 0.0000 -0.9903 -0.1387
vn 0.1100 0.4745 -0.8734
vn 0.6628 0.3505 0.6617
vn -0.3160 -0.1411 0.9382
vn 0.6505 -0.1314 -0.7480
vn 0.9370 -0.3486 0.0212
vn -0.0102 0.8693 0.4941
vn 0.8983 -0.0105 -0.4392
vn 0.0693 0.9970 -0.0358
vn 0.6255 0.5527 0.5506
vn 0.5898 0.4067 -0.6977
vn 0.9999 -0.0118 0.0092
vn 0.7254 0.1957 0.6600
vn 0.7807 -0.0329 0.6240
vn 0.9586 -0.2247 -0.1747
vn -0.4816 0.4727 0.7380
vn -0.1589 0.6236 0.7654
vn -0.5519 0.2033 0.8088
vn -0.0556 0.6239 -0.7795
vn -0.1175 0.9312 0.3452
vn -0.0775 0.7951 0.6015
vn 0.1878 -0.8202 0.5403
vn -0.6206 0.4037 0.6722
vn -0.3413 0.3556 0.8701
vn -0.0997 0.9521 0.2890
vn -0.6905 0.1970 0.6960
vn -0.9484 -0.2994 -0.1043
vn -0.9723 -0.1951 0.1284
vn -0.9475 -0.2103 -0.2408
vn -0.6141 0.5274 0.5871
vn -0.5895 0.1988 -0.7829
vn -0.9113 -0.4118 -0.0026
vn -0.9559 -0.2770 0.0973
vn -0.1100 0.4745 -0.8734
vn -0.6628 0.3505 0.6617
vn 0.3160 -0.1411 0.9382
vn -0.6505 -0.1314 -0.7480
vn -0.9370 -0.3486 0.0212
vn 0.0102 0.8693 0.4941
vn -0.8982 -0.0066 -0.4394
vn -0.0693 0.9970 -0.0358
vn -0.6255 0.5527 0.5506
vn -0.5898 0.4067 -0.6977
vn -0.9999 -0.0118 0.0092
vn -0.5305 0.4026 0.7460
vn -0.7807 -0.0329 0.6240
vn -0.9586 -0.2247 -0.1747
vn 0.4816 0.4727 0.7380
vn 0.0000 -0.8278 -0.5610
vn 0.0000 -0.8121 -0.5836
vn 0.0000 -0.3804 -0.9248
vn 0.0000 -0.7002 -0.7140
vn 0.0000 -0.7163 -0.6978
vn 0.0000 -0.6445 -0.7646
vn 0.0000 -0.5259 -0.8506
vn 0.0000 -0.5983 -0.8013
vn -0.2652 0.3418 0.9016
vn -0.4016 0.7634 0.5059
vn 0.1031 0.3554 0.9290
vn -0.8977 0.3213 0.3014
vn -0.1881 -0.8212 0.5387
vn 0.0000 0.9183 -0.3958
vn -0.9891 -0.0541 -0.1368
vn 0.9890 -0.0544 -0.1374
vn 0.5305 0.4026 0.7460
vn -0.7254 0.1957 0.6600
vn 0.3243 0.3598 0.8749
vn 0.8977 0.3213 0.3014
vn -0.1781 0.9713 -0.1575
vn 0.2238 -0.1019 -0.9693
vn 0.4114 -0.9037 0.1191
vn -0.0270 0.1711 0.9849
vn 0.3978 -0.8011 -0.4472
vn 0.0621 0.4833 -0.8732
vn 0.2084 -0.4344 0.8763
vn 0.2062 -0.4328 0.8776
vn 0.2060 -0.4327 0.8777
vn 0.6676 -0.5850 -0.4606
vn -0.2231 0.8847 0.4093
vn 0.4444 -0.2739 0.8529
vn 0.7489 -0.6573 0.0836
vn -0.1621 0.4533 -0.8765
vn -0.5488 0.7178 0.4285
vn 0.3262 0.1399 -0.9349
vn 0.5518 -0.0785 0.8303
vn 0.8546 -0.2520 -0.4541
vn -0.4408 0.7912 0.4240
vn 0.0334 0.2193 0.9751
vn 0.2201 -0.0390 -0.9747
vn -0.4925 0.8593 -0.1381
vn -0.1533 0.4938 -0.8559
vn 0.0357 0.2695 0.9623
vn -0.5999 0.7885 -0.1357
vn 0.9443 -0.3225 0.0647
vn 0.1781 0.9713 -0.1575
vn -0.2238 -0.1019 -0.9693
vn -0.4114 -0.9037 0.1191
vn 0.0270 0.1711 0.9849
vn -0.3978 -0.8011 -0.4472
vn -0.0621 0.4833 -0.8732
vn -0.2084 -0.4344 0.8763
vn -0.2060 -0.4327 0.8777
vn -0.2062 -0.4328 0.8776
vn -0.6676 -0.5850 -0.4606
vn 0.2231 0.8847 0.4093
vn -0.4444 -0.2739 0.8529
vn -0.7489 -0.6573 0.0836
vn 0.1621 0.4533 -0.8765
vn 0.5488 0.7178 0.4285
vn -0.3262 0.1399 -0.9349
vn -0.5518 -0.0785 0.8303
vn -0.8546 -0.2520 -0.4541
vn 0.4408 0.7912 0.4240
vn -0.0334 0.2193 0.9751
vn -0.2201 -0.0390 -0.9747
vn 0.4925 0.8593 -0.1381
vn 0.1533 0.4938 -0.8559
vn -0.0357 0.2695 0.9623
vn 0.5999 0.7885 -0.1357
vn -0.9443 -0.3225 0.0647
vn -0.0702 0.9140 0.3995
vn 0.2111 -0.4362 0.8748
vn -0.0257 0.4458 -0.8948
vn 0.2327 -0.8678 -0.4390
vn 0.0819 0.1992 0.9765
vn 0.2861 -0.9509 0.1180
vn 0.0748 -0.1778 -0.9812
vn -0.0963 0.9814 -0.1664
vn 0.0702 0.9140 0.3995
vn -0.2111 -0.4362 0.8748
vn 0.0257 0.4458 -0.8948
vn -0.2327 -0.8678 -0.4390
vn -0.0820 0.1992 0.9765
vn -0.2861 -0.9509 0.1180
vn -0.0748 -0.1778 -0.9812
vn 0.0963 0.9814 -0.1664
vn 0.7412 0.4226 0.5216
vn -0.7412 0.4226 0.5216
vn 0.3029 0.3769 0.8753
vn -0.3029 0.3769 0.8753
usemtl MainMaterial
s 1
f 83/1/1 7/2/1 6/3/1 82/4/1
f 21/5/2 7/2/2 1/6/2 10/7/2
f 87/8/3 79/9/3 4/10/3 34/11/3
f 102/12/4 33/13/4 3/14/4 120/15/4
f 78/16/5 2/17/5 4/10/5 79/9/5
f 5/18/6 80/19/6 82/4/6 6/3/6
f 3/20/7 127/21/7 126/22/7 116/23/7 120/24/7
f 17/25/8 3/14/8 33/13/8
f 28/26/9 91/27/9 80/19/9 5/18/9
f 10/7/10 1/6/10 3/28/10 17/25/10
f 16/29/11 15/30/11 19/31/11 20/32/11
f 11/33/12 10/7/12 17/25/12 18/34/12
f 29/35/13 30/36/13 15/30/13 16/29/13
f 35/37/14 49/38/14 19/31/14
f 8/39/15 9/40/15 86/41/15 34/11/15
f 18/34/16 17/25/16 33/13/16 13/42/16
f 22/43/17 21/5/17 10/7/17 11/33/17
f 33/13/18 102/12/18 84/44/18 13/42/18
f 87/8/19 34/11/19 86/45/19
f 6/3/20 7/2/20 24/46/20 23/47/20
f 19/31/21 49/38/21 50/48/21 40/49/21
f 31/50/22 8/39/22 34/11/22
f 21/5/23 22/43/23 20/32/23 52/51/23
f 21/5/24 52/51/24 51/52/24 26/53/24
f 9/40/25 8/39/25 30/36/25 29/35/25
f 2/17/26 78/16/26 91/27/26 28/26/26
f 7/2/27 21/5/27 26/53/27 24/46/27
f 2/17/28 31/50/28 34/11/28 4/10/28
f 15/30/29 35/37/29 19/31/29
f 49/38/30 35/37/30 5/18/30
f 50/48/31 49/38/31 6/3/31 23/47/31
f 52/51/32 20/32/32 19/31/32
f 51/52/33 52/51/33 19/31/33 40/49/33
f 83/54/34 82/55/34 57/56/34 58/57/34
f 72/58/35 61/59/35 118/60/35 58/57/35
f 87/61/36 95/62/36 54/63/36 79/64/36
f 102/65/4 120/66/4 117/67/4 94/68/4
f 78/69/37 79/64/37 54/63/37 53/70/37
f 55/71/38 57/56/38 82/55/38 80/72/38
f 119/73/39 118/74/39 123/75/39 121/76/39
f 68/77/40 94/68/40 117/78/40
f 83/54/41 58/57/41 118/60/41 119/79/41
f 88/80/42 55/71/42 80/72/42 91/81/42
f 61/59/43 68/77/43 117/78/43 118/60/43
f 67/82/44 71/83/44 70/84/44 66/85/44
f 62/86/45 69/87/45 68/77/45 61/59/45
f 89/88/46 67/82/46 66/85/46 90/89/46
f 96/90/47 70/84/47 111/91/47
f 59/92/48 95/62/48 86/41/48 60/93/48
f 69/87/49 64/94/49 94/68/49 68/77/49
f 73/95/50 62/86/50 61/59/50 72/58/50
f 94/68/18 64/94/18 84/44/18 102/65/18
f 87/61/51 86/41/51 95/62/51
f 57/56/52 74/96/52 75/97/52 58/57/52
f 70/84/53 101/98/53 112/99/53 111/91/53
f 92/100/54 95/62/54 59/92/54
f 72/58/55 114/101/55 71/83/55 73/95/55
f 72/58/56 77/102/56 113/103/56 114/101/56
f 60/93/57 89/88/57 90/89/57 59/92/57
f 53/70/58 88/80/58 91/81/58 78/69/58
f 58/57/59 75/97/59 77/102/59 72/58/59
f 53/70/60 54/63/60 95/62/60 92/100/60
f 66/85/61 70/84/61 96/90/61
f 111/91/62 57/56/62 55/71/62
f 112/99/63 74/96/63 57/56/63 111/91/63
f 114/101/64 70/84/64 71/83/64
f 113/103/65 101/98/65 70/84/65 114/101/65
f 20/32/66 22/43/66 73/95/66 71/83/66
f 71/83/67 67/82/67 16/29/67 20/32/67
f 69/87/68 18/34/68 13/42/68 84/44/68 64/94/68
f 62/86/69 11/33/69 18/34/69 69/87/69
f 73/95/70 22/43/70 11/33/70 62/86/70
f 60/93/71 86/41/71 9/40/71
f 67/82/72 89/88/72 29/35/72 16/29/72
f 89/88/73 60/93/73 9/40/73 29/35/73
f 119/73/74 81/104/74 120/105/74
f 81/104/75 56/106/75 117/78/75 120/105/75
f 116/23/76 115/107/76 119/108/76 120/24/76
f 3/20/77 1/109/77 124/110/77 127/21/77
f 1/109/78 115/107/78 125/111/78 124/110/78
f 56/106/79 81/104/79 122/112/79
f 81/104/80 119/73/80 121/76/80 122/112/80
f 115/107/81 116/23/81 126/22/81 125/111/81
f 6/3/82 49/38/82 5/18/82
f 96/90/83 111/91/83 55/71/83
f 115/107/84 1/6/84 7/2/84 83/1/84 119/108/84
f 118/60/85 117/78/85 56/106/85 123/75/85
usemtl Material.001
f 131/113/86 134/114/86 41/115/86 25/116/86
f 133/117/87 128/118/87 36/119/87 32/120/87
f 129/121/88 130/122/88 38/123/88 37/124/88
f 135/125/89 132/126/89 27/127/89 39/128/89
f 130/122/90 133/117/90 32/120/90 38/123/90
f 128/118/91 131/113/91 25/116/91 36/119/91
f 132/126/92 129/121/93 37/124/94 27/127/94
f 38/123/95 32/120/95 47/129/95 46/130/95
f 134/114/96 135/131/96 39/132/96 41/115/96
f 27/127/97 37/124/97 48/133/97 12/134/97
f 37/124/98 38/123/98 46/130/98 48/133/98
f 36/119/99 25/116/99 45/135/99 42/136/99
f 43/137/100 44/138/100 14/139/100
f 47/129/101 42/136/101 14/140/101
f 12/134/102 48/133/102 14/141/102
f 46/130/103 47/129/103 14/142/103
f 41/115/104 39/132/104 44/138/104 43/137/104
f 39/128/105 27/127/105 12/134/105 44/143/105
f 32/120/106 36/119/106 42/136/106 47/129/106
f 25/116/107 41/115/107 43/137/107 45/135/107
f 42/136/108 45/135/108 14/144/108
f 44/143/109 12/134/109 14/145/109
f 45/135/110 43/137/110 14/146/110
f 48/133/111 46/130/111 14/147/111
f 139/148/112 76/149/112 103/150/112 142/151/112
f 141/152/113 93/153/113 97/154/113 136/155/113
f 137/156/114 98/157/114 99/158/114 138/159/114
f 143/160/115 100/161/115 85/162/115 140/163/115
f 138/159/116 99/158/116 93/153/116 141/152/116
f 136/155/117 97/154/117 76/149/117 139/148/117
f 140/163/118 85/162/119 98/157/119 137/156/120
f 99/158/121 108/164/121 109/165/121 93/153/121
f 142/151/122 103/150/122 100/166/122 143/167/122
f 85/162/123 63/168/123 110/169/123 98/157/123
f 98/157/124 110/169/124 108/164/124 99/158/124
f 97/154/125 104/170/125 107/171/125 76/149/125
f 105/172/126 65/173/126 106/174/126
f 109/165/127 65/175/127 104/170/127
f 63/168/128 65/176/128 110/169/128
f 108/164/129 65/177/129 109/165/129
f 103/150/130 105/172/130 106/174/130 100/166/130
f 100/161/131 106/178/131 63/168/131 85/162/131
f 93/153/132 109/165/132 104/170/132 97/154/132
f 76/149/133 107/171/133 105/172/133 103/150/133
f 104/170/134 65/179/134 107/171/134
f 106/178/135 65/180/135 63/168/135
f 107/171/136 65/181/136 105/172/136
f 110/169/137 65/182/137 108/164/137
f 28/183/138 5/184/138 135/131/138 134/114/138
f 35/185/139 15/186/139 129/121/93 132/126/92
f 31/187/140 2/188/140 131/113/140 128/118/140
f 30/189/141 8/190/141 133/117/141 130/122/141
f 5/191/142 35/185/142 132/126/142 135/125/142
f 15/186/143 30/189/143 130/122/143 129/121/143
f 8/190/144 31/187/144 128/118/144 133/117/144
f 2/188/145 28/183/145 134/114/145 131/113/145
f 88/192/146 142/151/146 143/167/146 55/193/146
f 96/194/147 140/163/118 137/156/120 66/195/147
f 92/196/148 136/155/148 139/148/148 53/197/148
f 90/198/149 138/159/149 141/152/149 59/199/149
f 55/200/150 143/160/150 140/163/150 96/194/150
f 66/195/151 137/156/151 138/159/151 90/198/151
f 59/199/152 141/152/152 136/155/152 92/196/152
f 53/197/153 139/148/153 142/151/153 88/192/153
usemtl Material.002
f 24/201/154 26/202/154 51/203/154 40/204/154 50/205/154 23/206/154
f 75/207/155 74/208/155 112/209/155 101/210/155 113/211/155 77/212/155
f 124/213/156 125/214/156 126/215/156 127/216/156
f 123/217/157 56/218/157 122/219/157 121/220/157
