# Blender v2.91.2 OBJ File: 'Dungeon Arena.blend'
# www.blender.org
mtllib skull.mtl
o Skull01_Cube.011
v 5.051002 3.591135 -6.958959
v 5.025337 2.507545 -7.178822
v 5.852532 3.591135 -6.958959
v 5.878197 2.507545 -7.178822
v 4.972070 3.575130 -6.701042
v 5.840527 2.496966 -6.754750
v 5.931464 3.575130 -6.701042
v 4.954996 2.861516 -6.402767
v 4.904943 3.195309 -7.167363
v 4.904943 2.861516 -7.167363
v 5.948538 2.861516 -6.402767
v 5.998591 2.861516 -7.167363
v 5.998591 3.195309 -7.167363
v 6.011820 2.861516 -6.676116
v 4.838668 3.133178 -6.676116
v 4.891714 2.861516 -6.676116
v 5.713600 2.496966 -6.381865
v 5.189934 2.496966 -6.381865
v 5.593910 2.356211 -7.178822
v 5.606178 3.672096 -6.897606
v 5.297356 3.672096 -6.897606
v 5.598613 2.345632 -6.654180
v 5.066958 3.265279 -6.268892
v 6.054986 3.528484 -6.369462
v 5.746278 3.728477 -6.248652
v 5.265257 3.692380 -6.637797
v 6.064866 3.133178 -6.676116
v 5.156915 3.728485 -6.248652
v 5.638277 3.692380 -6.637797
v 5.725352 2.912884 -6.169778
v 5.756077 3.173262 -6.001658
v 5.147457 3.173262 -6.001658
v 5.212780 3.737856 -5.972780
v 5.690155 3.737854 -5.972780
v 5.001035 2.893547 -7.346540
v 5.100273 2.582480 -7.281822
v 5.568932 2.582480 -7.335082
v 5.902499 3.194035 -7.346540
v 5.902499 3.388801 -7.317150
v 5.001035 3.194035 -7.346540
v 5.902499 2.893547 -7.346540
v 5.602011 2.893547 -7.476027
v 5.602011 3.194035 -7.476027
v 5.602011 3.450946 -7.346540
v 5.301523 3.194035 -7.476027
v 5.388010 3.684820 -7.067792
v 5.998591 3.503483 -7.167363
v 5.515524 3.684820 -7.067792
v 5.338391 3.718497 -6.588709
v 5.565143 3.718497 -6.588709
v 4.972070 3.514880 -6.695789
v 5.051002 3.484596 -6.948250
v 5.297356 3.565558 -6.886897
v 5.852532 3.484596 -6.948250
v 5.931464 3.514880 -6.695789
v 5.606178 3.565558 -6.886897
v 5.265257 3.585841 -6.627088
v 5.638277 3.585841 -6.627088
v 5.309624 2.356211 -7.178822
v 5.304921 2.345632 -6.654180
v 5.429791 3.748408 -6.356723
v 5.429791 3.737949 -6.560243
v 5.178182 2.912884 -6.169778
v 5.468304 3.775544 -5.965782
v 5.334602 2.582480 -7.335082
v 5.301523 3.450946 -7.346540
v 5.301523 2.893547 -7.476027
v 5.398319 3.737949 -6.560243
v 5.318040 3.748408 -6.356723
v 5.316793 3.775594 -5.968207
v 5.509905 3.737949 -6.560243
v 5.629762 3.758435 -5.968206
v 5.584280 3.748408 -6.356723
v 5.397223 3.721779 -6.535269
v 5.420738 3.721779 -6.535269
v 5.420738 3.719876 -6.383204
v 5.337241 3.719876 -6.383204
v 5.510080 3.721779 -6.535269
v 5.247721 3.763235 -6.248653
v 5.474101 3.748408 -6.356723
v 5.474101 3.737949 -6.560243
v 5.394813 3.738677 -6.588709
v 5.515399 3.738677 -6.588709
v 5.451767 3.738677 -6.588709
v 5.431797 3.781351 -6.248653
v 5.592412 3.781351 -6.248653
v 5.483328 3.721779 -6.535269
v 5.483328 3.719876 -6.383204
v 5.565651 3.719876 -6.383204
v 5.126764 2.861516 -6.268892
v 5.736508 3.733815 -6.128670
v 5.836576 3.265279 -6.268892
v 5.776770 2.861516 -6.268892
v 5.166685 3.733819 -6.128670
v 5.251902 3.760519 -6.128668
v 5.431797 3.778888 -6.128668
v 5.587458 3.778888 -6.128668
v 5.117949 3.714495 -6.268892
v 5.308600 3.781351 -6.248653
v 5.190715 3.732914 -6.075950
v 5.312315 3.778888 -6.128668
v 5.288151 3.767601 -6.268892
v 5.471124 3.781351 -6.248653
v 5.313078 3.778057 -6.080523
v 5.471124 3.778888 -6.128668
v 5.451767 3.753283 -6.268892
v 5.653331 3.763243 -6.248653
v 5.468304 3.778107 -6.082949
v 5.647763 3.760523 -6.128668
v 5.612761 3.767601 -6.268892
v 5.785547 3.714495 -6.268892
v 5.712336 3.732911 -6.075950
v 5.645163 3.761168 -6.080523
v 5.747291 3.713284 -6.094647
v 5.719715 3.692295 -5.928306
v 5.583556 3.775544 -5.965782
v 5.588710 3.778107 -6.082949
v 5.432287 3.775594 -5.968207
v 5.591751 3.733194 -5.922192
v 5.432287 3.778057 -6.080523
v 5.606136 3.766004 -6.100761
v 5.268359 3.758433 -5.968206
v 5.451767 3.718876 -5.922192
v 5.254218 3.761164 -6.080523
v 5.451767 3.751686 -6.100761
v 5.183624 3.692295 -5.928306
v 5.305998 3.733194 -5.922192
v 5.156187 3.713284 -6.094647
v 5.293120 3.766004 -6.100761
v 5.063007 2.496966 -6.482435
v 4.904943 3.503483 -7.167363
v 4.848548 3.528484 -6.369462
v 4.853149 3.515762 -6.676116
v 4.904624 3.163934 -6.369462
v 5.174179 3.631615 -6.942376
v 5.174179 3.525077 -6.931666
v 5.118663 3.550361 -6.647608
v 5.063007 2.496966 -6.754750
v 5.001035 3.388801 -7.317150
v 5.840527 2.496966 -6.482435
v 6.050385 3.515762 -6.676116
v 5.803261 2.582480 -7.281822
v 5.729355 3.631615 -6.942376
v 5.729355 3.525077 -6.931666
v 5.784871 3.550361 -6.647608
v 5.998910 3.163934 -6.369462
vt 0.460765 0.687774
vt 0.460019 0.691681
vt 0.457079 0.691980
vt 0.456635 0.689308
vt 0.447236 0.689717
vt 0.450401 0.695441
vt 0.448889 0.695035
vt 0.440529 0.688467
vt 0.472336 0.684975
vt 0.472319 0.689592
vt 0.471631 0.688652
vt 0.471901 0.686003
vt 0.459733 0.685585
vt 0.455313 0.687921
vt 0.464245 0.683229
vt 0.463574 0.686340
vt 0.454058 0.689232
vt 0.453761 0.690694
vt 0.449730 0.690207
vt 0.450236 0.688033
vt 0.447533 0.687015
vt 0.461879 0.691538
vt 0.465447 0.691133
vt 0.463857 0.693259
vt 0.460540 0.693905
vt 0.465437 0.692282
vt 0.465428 0.693431
vt 0.459023 0.696068
vt 0.461440 0.694664
vt 0.453491 0.693521
vt 0.451371 0.694360
vt 0.468360 0.684971
vt 0.458027 0.684974
vt 0.456321 0.684362
vt 0.465766 0.680332
vt 0.465005 0.681781
vt 0.447406 0.684737
vt 0.443480 0.680883
vt 0.438893 0.678563
vt 0.447135 0.682334
vt 0.455481 0.687757
vt 0.455649 0.687593
vt 0.459554 0.694648
vt 0.455870 0.698735
vt 0.459779 0.693532
vt 0.456500 0.693153
vt 0.453900 0.694783
vt 0.450769 0.696525
vt 0.454279 0.693261
vt 0.455067 0.693001
vt 0.455420 0.694857
vt 0.454660 0.694820
vt 0.455677 0.689307
vt 0.454719 0.689305
vt 0.453826 0.688429
vt 0.452527 0.686476
vt 0.455487 0.689958
vt 0.451124 0.698584
vt 0.450038 0.697063
vt 0.455531 0.683495
vt 0.456723 0.683638
vt 0.454710 0.683251
vt 0.455173 0.683042
vt 0.459565 0.682269
vt 0.467077 0.678229
vt 0.467645 0.689230
vt 0.467897 0.686064
vt 0.467681 0.686628
vt 0.468037 0.688571
vt 0.456124 0.692196
vt 0.455170 0.692412
vt 0.461117 0.683845
vt 0.473677 0.682766
vt 0.467632 0.683030
vt 0.443701 0.685903
vt 0.469320 0.681285
vt 0.445508 0.684731
vt 0.444543 0.686488
vt 0.448558 0.684509
vt 0.447315 0.683559
vt 0.467400 0.677319
vt 0.468360 0.679302
vt 0.453717 0.684556
vt 0.448324 0.675153
vt 0.442236 0.673246
vt 0.466400 0.669249
vt 0.463522 0.658342
vt 0.374461 0.618778
vt 0.374264 0.620413
vt 0.373081 0.621836
vt 0.372425 0.620356
vt 0.457167 0.698687
vt 0.456807 0.696476
vt 0.454004 0.699178
vt 0.452722 0.707943
vt 0.455013 0.694116
vt 0.469982 0.689411
vt 0.447325 0.693170
vt 0.440775 0.688905
vt 0.451208 0.692667
vt 0.454221 0.694842
vt 0.446228 0.687634
vt 0.451680 0.686364
vt 0.455092 0.692165
vt 0.433284 0.688873
vt 0.444013 0.687547
vt 0.461633 0.692225
vt 0.452360 0.692974
vt 0.469834 0.688611
vt 0.454741 0.686222
vt 0.470117 0.685520
vt 0.469791 0.686316
vt 0.443087 0.693724
vt 0.379173 0.617695
vt 0.376677 0.619258
vt 0.378728 0.617350
vt 0.380529 0.615797
vt 0.475052 0.664078
vt 0.453315 0.683893
vt 0.448515 0.681030
vt 0.467498 0.676538
vt 0.390393 0.612598
vt 0.386580 0.614626
vt 0.385718 0.616251
vt 0.389329 0.615161
vt 0.451487 0.679702
vt 0.450543 0.680667
vt 0.452759 0.680682
vt 0.450100 0.680499
vt 0.461023 0.677912
vt 0.460984 0.678699
vt 0.463486 0.679063
vt 0.459056 0.678689
vt 0.464635 0.683110
vt 0.464279 0.682802
vt 0.463253 0.682208
vt 0.465046 0.682419
vt 0.456290 0.677937
vt 0.396702 0.611562
vt 0.397620 0.614773
vt 0.393457 0.614935
vt 0.393234 0.610956
vt 0.404671 0.604171
vt 0.397268 0.608527
vt 0.390458 0.606968
vt 0.394133 0.601419
vt 0.396011 0.606976
vt 0.381641 0.611897
vt 0.380918 0.612807
vt 0.386869 0.609862
vt 0.377042 0.614793
vt 0.375526 0.616412
vt 0.375809 0.614735
vt 0.372426 0.613594
vt 0.374089 0.616021
vt 0.371223 0.617919
vt 0.369839 0.619108
vt 0.371249 0.617448
vt 0.255489 0.618035
vt 0.259652 0.617873
vt 0.256671 0.619181
vt 0.256573 0.619962
vt 0.255267 0.614057
vt 0.255573 0.611891
vt 0.258735 0.614662
vt 0.254623 0.613687
vt 0.251361 0.618262
vt 0.247750 0.619352
vt 0.245464 0.620580
vt 0.252426 0.615698
vt 0.248613 0.617726
vt 0.243160 0.617592
vt 0.240761 0.620450
vt 0.238710 0.622358
vt 0.237689 0.623673
vt 0.242562 0.618897
vt 0.241206 0.620795
vt 0.237082 0.620674
vt 0.234457 0.623456
vt 0.235114 0.624936
vt 0.236489 0.626202
vt 0.236297 0.623514
vt 0.232654 0.623526
vt 0.236494 0.621879
vt 0.231872 0.622208
vt 0.233256 0.621019
vt 0.228066 0.621205
vt 0.236121 0.619122
vt 0.237497 0.617796
vt 0.233282 0.620548
vt 0.239074 0.617893
vt 0.234459 0.616694
vt 0.231410 0.615889
vt 0.237841 0.617835
vt 0.237559 0.619512
vt 0.243673 0.614998
vt 0.258043 0.610076
vt 0.264225 0.606721
vt 0.248902 0.612962
vt 0.242951 0.615908
vt 0.266704 0.607271
vt 0.256165 0.604520
vt 0.252695 0.600985
vt 0.252491 0.610068
vt 0.259301 0.611628
vt 0.471019 0.683869
vt 0.455756 0.693635
vt 0.447470 0.685876
vt 0.452954 0.697899
vt 0.451381 0.687254
vt 0.453942 0.688830
vt 0.454624 0.690326
vt 0.250778 0.683288
vt 0.249944 0.704312
vt 0.239308 0.704527
vt 0.238428 0.683288
vt 0.250778 0.661969
vt 0.251613 0.682993
vt 0.240977 0.682777
vt 0.238428 0.661969
vt 0.273103 0.659679
vt 0.273104 0.681530
vt 0.269725 0.681530
vt 0.261106 0.659680
vt 0.272935 0.681675
vt 0.264950 0.703526
vt 0.261106 0.703526
vt 0.261106 0.681675
vt 0.263129 0.683288
vt 0.260580 0.704097
vt 0.263129 0.661969
vt 0.262248 0.683208
vn -0.9255 -0.3783 0.0203
vn 0.9928 0.0208 -0.1182
vn -0.9925 -0.0122 -0.1217
vn -0.9205 -0.3758 0.1068
vn -0.9570 -0.1853 0.2231
vn 0.9205 -0.3758 0.1068
vn 0.9570 -0.1853 0.2231
vn -0.8584 0.0299 -0.5121
vn -0.1807 0.7610 -0.6230
vn 0.9255 -0.3783 0.0203
vn 0.9925 -0.0870 -0.0858
vn -0.9928 0.0208 -0.1182
vn -0.9925 -0.0870 -0.0858
vn -0.5445 -0.1241 0.8295
vn 0.9648 0.0598 0.2561
vn -0.5823 -0.3327 0.7418
vn 0.0000 0.7661 -0.6428
vn -0.7622 -0.2977 -0.5748
vn 0.7622 -0.2977 -0.5748
vn 0.2495 -0.5829 -0.7733
vn -0.4448 -0.8828 0.1514
vn 0.0000 -0.2960 0.9552
vn 0.0000 -0.8741 0.4858
vn 0.8584 0.0299 -0.5121
vn 0.0000 0.8394 0.5435
vn -0.9279 -0.2053 0.3113
vn 0.9552 0.0282 0.2947
vn -0.4983 -0.8670 -0.0020
vn -0.1742 0.9788 -0.1076
vn 0.9931 -0.0553 0.1033
vn -0.9931 -0.0553 0.1033
vn 0.4194 0.8930 -0.1631
vn -0.4209 -0.0026 0.9071
vn 0.0000 -0.9998 -0.0202
vn 0.0000 -0.5424 0.8401
vn 0.0027 -0.1422 0.9898
vn 0.9279 -0.2053 0.3113
vn -0.9649 0.0596 0.2558
vn 0.3205 0.9472 0.0101
vn -0.3920 0.1373 -0.9097
vn -0.3772 -0.3025 -0.8754
vn -0.3957 0.0000 -0.9184
vn 0.3957 0.0000 -0.9184
vn 0.0000 -0.8878 0.4601
vn 0.2009 -0.4219 -0.8841
vn 0.1776 0.4429 -0.8788
vn 0.8813 0.0000 -0.4726
vn -0.8813 0.0000 -0.4726
vn 0.3920 0.1373 -0.9097
vn -0.1776 0.4429 -0.8788
vn -0.2009 -0.4219 -0.8841
vn 0.3772 -0.3025 -0.8754
vn -0.4447 0.8927 -0.0732
vn -0.3123 0.9405 -0.1335
vn 0.4447 0.8927 -0.0732
vn 0.2820 0.9389 -0.1972
vn 0.4013 0.9024 0.1571
vn 0.3006 0.9482 -0.1025
vn -0.3006 0.9482 -0.1025
vn -0.3291 -0.0820 -0.9407
vn 0.3670 0.0930 0.9256
vn -0.1646 0.0987 0.9814
vn 0.9925 -0.0122 -0.1217
vn 0.2467 -0.1889 -0.9505
vn -0.9552 0.0282 0.2947
vn 0.0000 0.4501 -0.8930
vn 0.0000 -0.4127 -0.9109
vn 0.0000 0.0000 -1.0000
vn 0.0000 0.9998 0.0205
vn -0.0089 -0.1380 0.9904
vn 0.0830 0.9903 -0.1113
vn 0.0000 -0.5683 -0.8229
vn 0.3072 0.9327 -0.1889
vn -0.3020 0.9340 -0.1908
vn 0.0000 0.6803 -0.7330
vn -0.8814 0.3533 0.3136
vn 0.0515 0.9897 -0.1333
vn -0.0626 0.9969 -0.0477
vn 0.0000 0.9997 0.0256
vn 0.7645 0.6031 0.2277
vn 0.0000 0.9997 0.0255
vn 0.0616 0.9970 -0.0477
vn -0.0523 0.9896 -0.1338
vn -0.7169 0.6723 0.1846
vn -0.3296 0.9441 0.0089
vn 0.9242 0.3818 -0.0092
vn 0.8764 0.3436 0.3374
vn -0.9267 0.3756 -0.0090
vn -0.3788 0.9239 0.0542
vn 0.0000 0.9998 0.0219
vn 0.3570 0.9326 0.0527
vn -0.9706 0.1102 0.2138
vn 0.9706 0.1103 0.2139
vn -0.3104 0.9222 -0.2305
vn -0.5556 0.8277 0.0791
vn -0.1215 0.9924 0.0187
vn -0.3045 0.8799 0.3649
vn 0.0347 0.6949 -0.7183
vn -0.5536 0.8323 0.0284
vn 0.8099 0.5865 0.0083
vn 0.0418 0.8118 0.5825
vn -0.0352 0.6946 -0.7185
vn -0.8185 0.5744 0.0081
vn 0.5588 0.8286 0.0341
vn -0.0429 0.8117 0.5825
vn 0.3056 0.9241 -0.2295
vn 0.5512 0.8307 0.0783
vn 0.1207 0.9925 0.0200
vn 0.2958 0.8840 0.3621
vn 0.6672 0.7261 0.1664
vn 0.2773 0.7439 0.6080
vn -0.2249 0.9697 0.0955
vn 0.3536 0.8616 -0.3643
vn -0.0371 0.6621 0.7485
vn -0.9232 0.3816 0.0456
vn 0.8771 0.4666 0.1138
vn -0.0353 0.6781 -0.7341
vn 0.0374 0.6817 0.7307
vn -0.8416 0.5284 0.1121
vn 0.8977 0.4374 0.0530
vn 0.0373 0.7245 -0.6882
vn -0.2920 0.7398 0.6062
vn -0.6717 0.7219 0.1664
vn 0.2255 0.9694 0.0975
vn -0.3653 0.8559 -0.3662
vn 0.3291 -0.0820 -0.9407
vn -0.3670 0.0930 0.9256
vn -0.4013 0.9024 0.1571
vn -0.2820 0.9389 -0.1973
vn -0.2495 -0.5829 -0.7733
vn -0.4194 0.8930 -0.1631
vn 0.1646 0.0987 0.9814
vn -0.2467 -0.1889 -0.9505
vn 0.3123 0.9405 -0.1335
vn 0.4208 -0.0026 0.9071
vn 0.1807 0.7610 -0.6230
vn 0.5445 -0.1241 0.8295
vn 0.5823 -0.3327 0.7418
vn 0.4448 -0.8828 0.1514
vn 0.4983 -0.8670 -0.0020
vn -0.2324 0.9598 -0.1576
vn 0.2421 0.9628 -0.1197
vn 0.0000 0.9999 0.0125
vn -0.2421 0.9628 -0.1197
vn 0.2324 0.9598 -0.1576
usemtl Material
s off
f 16/1/1 10/2/1 2/3/1 138/4/1
f 27/5/2 13/6/2 47/7/2 141/8/2
f 26/9/3 21/10/3 53/11/3 57/12/3
f 8/13/4 16/1/4 138/4/4 130/14/4
f 134/15/5 15/16/5 16/1/5 8/13/5
f 140/17/6 6/18/6 14/19/6 11/20/6
f 11/20/7 14/19/7 27/5/7 146/21/7
f 9/22/8 131/23/8 139/24/8 40/25/8
f 131/26/9 46/27/9 66/28/9 139/29/9
f 6/18/10 4/30/10 12/31/10 14/19/10
f 14/19/11 12/31/11 13/6/11 27/5/11
f 133/32/12 131/23/12 9/22/12 15/16/12
f 15/16/13 9/22/13 10/2/13 16/1/13
f 8/33/14 90/34/14 23/35/14 134/36/14
f 92/37/15 114/38/15 115/39/15 31/40/15
f 130/41/16 18/42/16 90/34/16 8/33/16
f 46/27/17 48/43/17 44/44/17 66/28/17
f 2/3/18 10/2/18 35/45/18 36/46/18
f 12/31/19 4/30/19 142/47/19 41/48/19
f 4/49/20 19/50/20 37/51/20 142/52/20
f 130/41/21 138/53/21 60/54/21 18/42/21
f 18/42/22 17/55/22 93/56/22 90/34/22
f 18/42/23 60/54/23 22/57/23 17/55/23
f 47/7/24 13/6/24 38/58/24 39/59/24
f 71/60/25 81/61/25 87/62/25 78/63/25
f 23/35/26 90/34/26 63/64/26 32/65/26
f 1/66/27 5/67/27 51/68/27 52/69/27
f 138/53/28 2/70/28 59/71/28 60/54/28
f 84/72/29 46/27/29 49/73/29 82/74/29
f 146/21/30 27/5/30 141/8/30 24/75/30
f 132/76/31 133/32/31 15/16/31 134/15/31
f 24/77/32 141/78/32 50/79/32 111/80/32
f 134/36/33 23/35/33 98/81/33 132/82/33
f 60/54/34 59/71/34 19/50/34 22/57/34
f 63/64/35 30/83/35 31/40/35 32/65/35
f 32/65/36 31/40/36 115/39/36 119/84/36 123/85/36
f 93/56/37 92/37/37 31/40/37 30/83/37
f 128/86/38 23/35/38 32/65/38 126/87/38
f 109/88/39 91/89/39 25/90/39 107/91/39
f 45/92/40 40/25/40 139/24/40
f 36/46/41 35/45/41 67/93/41
f 67/93/42 35/45/42 40/25/42 45/92/42
f 41/48/43 42/94/43 43/95/43 38/58/43
f 90/34/44 93/56/44 30/83/44 63/64/44
f 142/52/45 37/51/45 42/94/45
f 43/95/46 44/44/46 39/59/46
f 13/6/47 12/31/47 41/48/47 38/58/47
f 10/2/48 9/22/48 40/25/48 35/45/48
f 38/58/49 43/95/49 39/59/49
f 66/28/50 45/92/50 139/29/50
f 65/96/51 36/46/51 67/93/51
f 41/48/52 142/47/52 42/94/52
f 5/67/53 1/66/53 131/23/53 133/32/53
f 135/97/54 21/10/54 46/27/54 131/26/54
f 3/98/55 7/99/55 141/8/55 47/7/55
f 143/100/56 3/98/56 47/101/56
f 7/102/57 29/103/57 50/79/57 141/78/57
f 29/103/58 20/104/58 48/43/58 50/79/58
f 21/10/59 26/9/59 49/73/59 46/27/59
f 7/99/60 55/105/60 145/106/60
f 143/100/61 20/104/61 56/107/61 144/108/61
f 135/97/62 1/66/62 52/69/62 136/109/62
f 20/104/63 29/103/63 58/110/63 56/107/63
f 5/111/64 26/9/64 57/12/64 137/112/64
f 7/99/65 3/98/65 54/113/65 55/105/65
f 43/95/66 45/92/66 66/28/66 44/44/66
f 37/51/67 65/96/67 67/93/67 42/94/67
f 42/94/68 67/93/68 45/92/68 43/95/68
f 97/114/69 86/115/69 103/116/69 105/117/69
f 32/65/70 123/85/70 127/118/70 126/87/70
f 50/79/71 48/43/71 46/27/71 84/72/71 83/119/71
f 19/50/72 59/71/72 65/96/72 37/51/72
f 111/80/73 50/79/73 83/119/73 110/120/73
f 102/121/74 82/74/74 49/73/74 98/81/74
f 101/122/69 96/123/69 85/124/69 99/125/69
f 80/126/75 73/127/75 89/128/75 88/129/75
f 69/130/75 61/131/75 76/132/75 77/133/75
f 73/127/76 71/60/76 78/63/76 89/128/76
f 62/134/25 68/135/25 74/136/25 75/137/25
f 61/131/77 69/130/77 102/121/77 106/138/77
f 62/134/78 61/131/78 106/138/78 84/72/78
f 68/135/79 62/134/79 84/72/79 82/74/79
f 69/130/80 68/135/80 82/74/80 102/121/80
f 81/61/81 71/60/81 83/119/81 84/72/81
f 80/126/82 81/61/82 84/72/82 106/138/82
f 73/127/83 80/126/83 106/138/83 110/120/83
f 71/60/84 73/127/84 110/120/84 83/119/84
f 95/139/85 79/140/85 28/141/85 94/142/85
f 81/61/86 80/126/86 88/129/86 87/62/86
f 68/135/87 69/130/87 77/133/87 74/136/87
f 61/131/88 62/134/88 75/137/88 76/132/88
f 122/143/89 124/144/89 100/145/89 33/146/89
f 70/147/90 118/148/90 120/149/90 104/150/90
f 116/151/90 117/152/90 108/153/90 64/154/90
f 72/155/91 34/156/91 112/157/91 113/158/91
f 98/81/92 23/35/92 128/86/92
f 92/37/93 111/80/93 114/38/93
f 28/159/94 79/160/94 102/161/94 98/162/94
f 94/163/95 28/159/95 98/162/95 128/164/95
f 79/160/96 95/165/96 129/166/96 102/161/96
f 95/165/97 94/163/97 128/164/97 129/166/97
f 99/167/98 85/168/98 106/169/98 102/161/98
f 101/170/99 99/167/99 102/161/99 129/166/99
f 85/168/100 96/171/100 125/172/100 106/169/100
f 96/171/101 101/170/101 129/166/101 125/172/101
f 103/173/102 86/174/102 110/175/102 106/169/102
f 105/176/103 103/173/103 106/169/103 125/172/103
f 86/174/104 97/177/104 121/178/104 110/175/104
f 97/177/105 105/176/105 125/172/105 121/178/105
f 107/179/106 25/180/106 111/181/106 110/175/106
f 25/180/107 91/182/107 114/183/107 111/181/107
f 109/184/108 107/179/108 110/175/108 121/178/108
f 91/182/109 109/184/109 121/178/109 114/183/109
f 112/185/110 34/186/110 115/187/110 114/183/110
f 34/186/111 72/188/111 119/189/111 115/187/111
f 72/188/112 113/190/112 121/178/112 119/189/112
f 113/190/113 112/185/113 114/183/113 121/178/113
f 116/191/114 64/192/114 123/193/114 119/189/114
f 64/192/115 108/194/115 125/172/115 123/193/115
f 117/195/116 116/191/116 119/189/116 121/178/116
f 108/194/117 117/195/117 121/178/117 125/172/117
f 118/196/118 70/197/118 127/198/118 123/193/118
f 70/197/119 104/199/119 129/166/119 127/198/119
f 120/200/120 118/196/120 123/193/120 125/172/120
f 104/199/121 120/200/121 125/172/121 129/166/121
f 122/201/122 33/202/122 126/203/122 127/198/122
f 33/202/123 100/204/123 128/164/123 126/203/123
f 124/205/124 122/201/124 127/198/124 129/166/124
f 100/204/125 124/205/125 129/166/125 128/164/125
f 5/111/126 137/112/126 51/68/126
f 21/10/127 135/97/127 136/109/127 53/11/127
f 26/9/128 5/111/128 133/206/128 49/73/128
f 1/66/129 135/97/129 131/23/129
f 59/71/130 2/70/130 36/207/130 65/96/130
f 98/81/131 49/73/131 133/206/131 132/82/131
f 3/98/132 143/100/132 144/108/132 54/113/132
f 29/103/133 7/102/133 145/106/133 58/110/133
f 20/104/134 143/100/134 47/101/134 48/43/134
f 92/37/135 146/208/135 24/77/135 111/80/135
f 48/43/136 47/101/136 39/209/136 44/44/136
f 93/56/137 11/210/137 146/208/137 92/37/137
f 17/55/138 140/211/138 11/210/138 93/56/138
f 17/55/139 22/57/139 6/212/139 140/211/139
f 22/57/140 19/50/140 4/49/140 6/212/140
usemtl Material.002
f 137/213/141 136/214/141 52/215/141 51/216/141
f 145/217/142 144/218/142 56/219/142 58/220/142
f 76/221/143 75/222/143 74/223/143 77/224/143
f 89/225/143 78/226/143 87/227/143 88/228/143
f 57/229/144 53/230/144 136/214/144 137/213/144
f 55/231/145 54/232/145 144/218/145 145/217/145
