# Blender v2.91.2 OBJ File: 'Dungeon Arena.blend'
# www.blender.org
mtllib Skull02.mtl
o Skull01_Cube.001
v 0.558788 -0.073617 0.233874
v 0.545559 0.417631 0.233874
v 0.425165 0.429089 0.587846
v 0.387494 0.005018 0.598424
v -0.614365 -0.073617 -0.037787
v -0.548090 0.417631 -0.099919
v -0.548090 0.417631 -0.408092
v -0.599883 -0.073617 -0.420372
v 0.185245 -0.111936 -0.596989
v 0.153145 0.147873 -0.576706
v 0.153145 0.137164 -0.470167
v 0.185245 -0.122645 -0.490451
v 0.495506 -0.346966 0.233874
v 0.387494 -0.267297 0.598424
v 0.545877 -0.380270 -0.068544
v 0.611834 -0.073617 -0.037787
v -0.390025 -0.267297 0.598424
v -0.390025 0.005018 0.598424
v -0.561319 -0.073617 0.233874
v -0.498037 -0.346966 0.233874
v -0.548408 -0.380270 -0.068544
v 0.545559 0.417631 -0.099919
v 0.545559 0.417631 -0.408092
v 0.449467 0.567418 -0.293410
v 0.449467 0.596807 -0.098645
v 0.062491 0.318059 -0.589430
v 0.148979 0.596807 -0.355555
v -0.427696 0.429089 0.587846
v -0.548090 0.417631 0.233874
v 0.597352 -0.073617 -0.420372
v 0.323738 -0.480841 0.233874
v 0.383543 -0.480841 -0.169888
v -0.386074 -0.480841 -0.169888
v -0.296790 -0.655086 -0.617893
v -0.269213 -0.821427 -0.596905
v -0.305576 -0.748074 -0.077872
v 0.260567 -0.367868 0.598424
v -0.065022 0.318059 -0.589430
v -0.151510 0.596807 -0.355555
v 0.449467 0.596807 0.201844
v 0.350229 0.532089 0.512910
v -0.352760 0.532089 0.512910
v -0.451998 0.596807 0.201844
v -0.143409 0.429089 0.739180
v -0.118430 0.585349 0.512910
v 0.145581 -0.095553 0.749758
v -0.263098 -0.367868 0.598424
v -0.326269 -0.480841 0.233874
v -0.148112 -0.095553 0.749758
v -0.451998 0.596807 -0.098645
v -0.451998 0.567418 -0.293410
v -0.059403 -0.189490 -0.642559
v -0.023599 -0.189490 -0.642559
v -0.032826 -0.214464 -0.626388
v -0.059578 -0.214464 -0.626388
v 0.272319 -0.579955 0.182506
v 0.303045 -0.748074 -0.077872
v 0.399499 0.209226 -0.495744
v 0.478432 -0.048691 -0.479739
v 0.478432 -0.053944 -0.419490
v 0.399499 0.198517 -0.389206
v 0.140878 0.429089 0.739180
v -0.001265 -0.161024 -0.643286
v 0.112110 -0.161024 -0.623107
v 0.055689 -0.161024 -0.643286
v -0.604484 -0.380270 -0.433094
v 0.601953 -0.380270 -0.433094
v -0.114641 -0.161024 -0.623107
v -0.335045 -0.480841 -0.619105
v 0.332553 -0.480841 -0.619105
v -0.274850 -0.579955 0.182506
v -0.141250 -0.827541 -0.637804
v -0.001265 -0.827541 -0.623486
v 0.294314 -0.655086 -0.617893
v 0.266877 -0.821427 -0.596905
v -0.197262 -0.621064 -0.665132
v -0.286006 -0.621063 -0.638424
v -0.295776 -0.501080 -0.633086
v -0.202830 -0.501079 -0.667852
v 0.148979 0.726294 -0.098645
v 0.148979 0.726294 0.201844
v -0.151510 0.726294 0.201844
v -0.151510 0.726294 -0.098645
v 0.115899 0.585349 0.512910
v 0.276322 0.192643 -0.536225
v -0.402030 0.209226 -0.495744
v -0.480963 -0.048691 -0.479739
v -0.278853 0.192643 -0.536225
v -0.187776 -0.111936 -0.596989
v -0.155676 0.147873 -0.576706
v 0.331838 -0.102124 -0.454970
v 0.276322 0.181934 -0.429687
v -0.334369 -0.102124 -0.454970
v -0.278853 0.181934 -0.429687
v -0.155676 0.137164 -0.470167
v -0.187776 -0.122645 -0.490451
v -0.480963 -0.053944 -0.419490
v -0.402030 0.198517 -0.389206
v -0.136957 -0.621064 -0.683497
v -0.141910 -0.501079 -0.685961
v -0.020622 -0.501079 -0.685961
v -0.020622 -0.621064 -0.683497
v 0.144504 -0.827541 -0.637804
v -0.064898 -0.161024 -0.643286
v -0.162259 -0.480841 -0.672211
v 0.162350 -0.480841 -0.672211
v 0.138186 -0.621064 -0.683497
v 0.018705 -0.621064 -0.683497
v 0.018705 -0.501079 -0.685961
v 0.141901 -0.501079 -0.685961
v -0.023599 -0.393010 -0.653018
v -0.133779 -0.393010 -0.653018
v -0.115150 -0.366529 -0.624486
v -0.032826 -0.366529 -0.624486
v 0.029763 -0.366529 -0.624486
v 0.029763 -0.214464 -0.626388
v 0.053278 -0.214464 -0.626388
v 0.113260 -0.366529 -0.624486
v 0.132461 -0.393010 -0.653018
v 0.020711 -0.393010 -0.653018
v 0.020711 -0.189490 -0.642559
v 0.052182 -0.189490 -0.642559
v -0.001265 -0.480841 -0.657893
v 0.198599 -0.621064 -0.665129
v 0.202780 -0.501079 -0.667844
v 0.293586 -0.501081 -0.633095
v 0.283817 -0.621063 -0.638428
v 0.182143 -0.781526 -0.663042
v 0.196284 -0.669209 -0.665774
v 0.259786 -0.673783 -0.637524
v 0.237722 -0.776952 -0.642466
v 0.133708 -0.781526 -0.680203
v 0.018214 -0.781526 -0.680203
v 0.018214 -0.669209 -0.682666
v 0.137423 -0.669209 -0.682666
v -0.133054 -0.783951 -0.680153
v -0.138208 -0.666784 -0.682716
v -0.017803 -0.666784 -0.682716
v -0.017803 -0.783951 -0.680153
v -0.179260 -0.781526 -0.663045
v -0.239653 -0.776952 -0.642463
v -0.261834 -0.673783 -0.637520
v -0.194661 -0.669209 -0.665778
v 0.157381 -0.648971 -0.670613
v -0.001265 -0.648971 -0.656296
v -0.155634 -0.648971 -0.670613
vt 0.460765 0.687774
vt 0.460019 0.691681
vt 0.457079 0.691980
vt 0.456635 0.689308
vt 0.447236 0.689717
vt 0.450401 0.695441
vt 0.448889 0.695035
vt 0.440529 0.688467
vt 0.472336 0.684975
vt 0.472319 0.689592
vt 0.471631 0.688652
vt 0.471901 0.686003
vt 0.459733 0.685585
vt 0.455313 0.687921
vt 0.464245 0.683229
vt 0.463574 0.686340
vt 0.454058 0.689232
vt 0.453761 0.690694
vt 0.449730 0.690207
vt 0.450236 0.688033
vt 0.447533 0.687015
vt 0.461879 0.691538
vt 0.465447 0.691133
vt 0.463857 0.693259
vt 0.460540 0.693905
vt 0.465437 0.692282
vt 0.465428 0.693431
vt 0.459023 0.696068
vt 0.461440 0.694664
vt 0.453491 0.693521
vt 0.451371 0.694360
vt 0.468360 0.684971
vt 0.458027 0.684974
vt 0.456321 0.684362
vt 0.465766 0.680332
vt 0.465005 0.681781
vt 0.447406 0.684737
vt 0.443480 0.680883
vt 0.438893 0.678563
vt 0.447135 0.682334
vt 0.455481 0.687757
vt 0.455649 0.687593
vt 0.459554 0.694648
vt 0.455870 0.698735
vt 0.459779 0.693532
vt 0.456500 0.693153
vt 0.453900 0.694783
vt 0.450769 0.696525
vt 0.454279 0.693261
vt 0.455067 0.693001
vt 0.455420 0.694857
vt 0.454660 0.694820
vt 0.455677 0.689307
vt 0.454719 0.689305
vt 0.453826 0.688429
vt 0.452527 0.686476
vt 0.455487 0.689958
vt 0.451124 0.698584
vt 0.450038 0.697063
vt 0.455531 0.683495
vt 0.456723 0.683638
vt 0.454710 0.683251
vt 0.455173 0.683042
vt 0.459565 0.682269
vt 0.467077 0.678229
vt 0.467645 0.689230
vt 0.467897 0.686064
vt 0.467681 0.686628
vt 0.468037 0.688571
vt 0.456124 0.692196
vt 0.455170 0.692412
vt 0.461117 0.683845
vt 0.473677 0.682766
vt 0.467632 0.683030
vt 0.443701 0.685903
vt 0.469320 0.681285
vt 0.445508 0.684731
vt 0.444543 0.686488
vt 0.448558 0.684509
vt 0.447315 0.683559
vt 0.467400 0.677319
vt 0.468360 0.679302
vt 0.453717 0.684556
vt 0.448324 0.675153
vt 0.442236 0.673246
vt 0.466400 0.669249
vt 0.463522 0.658342
vt 0.374461 0.618778
vt 0.374264 0.620413
vt 0.373081 0.621836
vt 0.372425 0.620356
vt 0.457167 0.698687
vt 0.456807 0.696476
vt 0.454004 0.699178
vt 0.452722 0.707943
vt 0.455013 0.694116
vt 0.469982 0.689411
vt 0.447325 0.693170
vt 0.440775 0.688905
vt 0.451208 0.692667
vt 0.454221 0.694842
vt 0.446228 0.687634
vt 0.451680 0.686364
vt 0.455092 0.692165
vt 0.433284 0.688873
vt 0.444013 0.687547
vt 0.461633 0.692225
vt 0.452360 0.692974
vt 0.469834 0.688611
vt 0.454741 0.686222
vt 0.470117 0.685520
vt 0.469791 0.686316
vt 0.443087 0.693724
vt 0.379173 0.617695
vt 0.376677 0.619258
vt 0.378728 0.617350
vt 0.380529 0.615797
vt 0.475052 0.664078
vt 0.453315 0.683893
vt 0.448515 0.681030
vt 0.467498 0.676538
vt 0.390393 0.612598
vt 0.386580 0.614626
vt 0.385718 0.616251
vt 0.389329 0.615161
vt 0.451487 0.679702
vt 0.450543 0.680667
vt 0.452759 0.680682
vt 0.450100 0.680499
vt 0.461023 0.677912
vt 0.460984 0.678699
vt 0.463486 0.679063
vt 0.459056 0.678689
vt 0.464635 0.683110
vt 0.464279 0.682802
vt 0.463253 0.682208
vt 0.465046 0.682419
vt 0.456290 0.677937
vt 0.396702 0.611562
vt 0.397620 0.614773
vt 0.393457 0.614935
vt 0.393234 0.610956
vt 0.404671 0.604171
vt 0.397268 0.608527
vt 0.390458 0.606968
vt 0.394133 0.601419
vt 0.396011 0.606976
vt 0.381641 0.611897
vt 0.380918 0.612807
vt 0.386869 0.609862
vt 0.377042 0.614793
vt 0.375526 0.616412
vt 0.375809 0.614735
vt 0.372426 0.613594
vt 0.374089 0.616021
vt 0.371223 0.617919
vt 0.369839 0.619108
vt 0.371249 0.617448
vt 0.255489 0.618035
vt 0.259652 0.617873
vt 0.256671 0.619181
vt 0.256573 0.619962
vt 0.255267 0.614057
vt 0.255573 0.611891
vt 0.258735 0.614662
vt 0.254623 0.613687
vt 0.251361 0.618262
vt 0.247750 0.619352
vt 0.245464 0.620580
vt 0.252426 0.615698
vt 0.248613 0.617726
vt 0.243160 0.617592
vt 0.240761 0.620450
vt 0.238710 0.622358
vt 0.237689 0.623673
vt 0.242562 0.618897
vt 0.241206 0.620795
vt 0.237082 0.620674
vt 0.234457 0.623456
vt 0.235114 0.624936
vt 0.236489 0.626202
vt 0.236297 0.623514
vt 0.232654 0.623526
vt 0.236494 0.621879
vt 0.231872 0.622208
vt 0.233256 0.621019
vt 0.228066 0.621205
vt 0.236121 0.619122
vt 0.237497 0.617796
vt 0.233282 0.620548
vt 0.239074 0.617893
vt 0.234459 0.616694
vt 0.231410 0.615889
vt 0.237841 0.617835
vt 0.237559 0.619512
vt 0.243673 0.614998
vt 0.258043 0.610076
vt 0.264225 0.606721
vt 0.248902 0.612962
vt 0.242951 0.615908
vt 0.266704 0.607271
vt 0.256165 0.604520
vt 0.252695 0.600985
vt 0.252491 0.610068
vt 0.259301 0.611628
vt 0.471019 0.683869
vt 0.455756 0.693635
vt 0.447470 0.685876
vt 0.452954 0.697899
vt 0.451381 0.687254
vt 0.453942 0.688830
vt 0.454624 0.690326
vt 0.250778 0.683288
vt 0.249944 0.704312
vt 0.239308 0.704527
vt 0.238428 0.683288
vt 0.250778 0.661969
vt 0.251613 0.682993
vt 0.240977 0.682777
vt 0.238428 0.661969
vt 0.273103 0.659679
vt 0.273104 0.681530
vt 0.269725 0.681530
vt 0.261106 0.659680
vt 0.272935 0.681675
vt 0.264950 0.703526
vt 0.261106 0.703526
vt 0.261106 0.681675
vt 0.263129 0.683288
vt 0.260580 0.704097
vt 0.263129 0.661969
vt 0.262248 0.683208
vn 0.9255 -0.0203 0.3783
vn -0.9928 0.1182 -0.0208
vn 0.9925 0.1217 0.0122
vn 0.9205 -0.1068 0.3758
vn 0.9570 -0.2231 0.1853
vn -0.9205 -0.1068 0.3758
vn -0.9570 -0.2231 0.1853
vn 0.8584 0.5121 -0.0299
vn 0.1807 0.6230 -0.7610
vn -0.9255 -0.0203 0.3783
vn -0.9925 0.0858 0.0870
vn 0.9928 0.1182 -0.0208
vn 0.9925 0.0858 0.0870
vn 0.5445 -0.8295 0.1241
vn -0.9648 -0.2561 -0.0598
vn 0.5823 -0.7418 0.3327
vn 0.0000 0.6428 -0.7661
vn 0.7622 0.5748 0.2977
vn -0.7622 0.5748 0.2977
vn -0.2495 0.7733 0.5829
vn 0.4448 -0.1514 0.8828
vn 0.0000 -0.9552 0.2960
vn 0.0000 -0.4858 0.8741
vn -0.8584 0.5121 -0.0299
vn 0.0000 -0.5435 -0.8394
vn 0.9279 -0.3113 0.2053
vn -0.9552 -0.2947 -0.0282
vn 0.4983 0.0020 0.8670
vn 0.1742 0.1076 -0.9788
vn -0.9931 -0.1033 0.0553
vn 0.9931 -0.1033 0.0553
vn -0.4194 0.1631 -0.8930
vn 0.4209 -0.9071 0.0026
vn 0.0000 0.0202 0.9998
vn 0.0000 -0.8401 0.5424
vn 0.0069 -0.9903 0.1388
vn -0.0027 -0.9898 0.1422
vn 0.0074 -0.9903 0.1386
vn -0.9279 -0.3113 0.2053
vn 0.9649 -0.2557 -0.0596
vn -0.3205 -0.0102 -0.9472
vn 0.3920 0.9097 -0.1373
vn 0.3772 0.8753 0.3025
vn 0.3957 0.9184 0.0000
vn -0.3957 0.9184 0.0000
vn 0.0000 -0.4601 0.8878
vn -0.2009 0.8841 0.4219
vn -0.1776 0.8788 -0.4429
vn -0.8813 0.4726 0.0000
vn 0.8813 0.4726 0.0000
vn -0.3920 0.9097 -0.1373
vn 0.1776 0.8788 -0.4429
vn 0.2009 0.8841 0.4219
vn -0.3772 0.8753 0.3025
vn 0.4447 0.0732 -0.8927
vn 0.3123 0.1335 -0.9405
vn -0.4447 0.0732 -0.8927
vn -0.2820 0.1972 -0.9389
vn -0.4013 -0.1571 -0.9024
vn -0.3006 0.1025 -0.9482
vn 0.3006 0.1025 -0.9482
vn 0.3290 0.9407 0.0820
vn -0.3670 -0.9256 -0.0930
vn 0.1645 -0.9814 -0.0987
vn -0.9925 0.1217 0.0122
vn -0.2467 0.9505 0.1889
vn 0.9552 -0.2947 -0.0282
vn 0.0000 0.8930 -0.4501
vn 0.0000 0.9109 0.4127
vn 0.0000 1.0000 0.0000
vn 0.0000 -0.0205 -0.9998
vn 0.0089 -0.9904 0.1380
vn -0.0830 0.1113 -0.9903
vn 0.0000 0.8229 0.5683
vn -0.3072 0.1889 -0.9327
vn 0.3020 0.1909 -0.9340
vn 0.0000 0.7330 -0.6803
vn 0.8814 -0.3136 -0.3533
vn -0.0515 0.1333 -0.9897
vn 0.0626 0.0477 -0.9969
vn 0.0000 -0.0255 -0.9997
vn -0.7645 -0.2277 -0.6031
vn -0.0616 0.0478 -0.9970
vn 0.0523 0.1338 -0.9896
vn 0.7168 -0.1846 -0.6724
vn 0.3296 -0.0089 -0.9441
vn -0.9242 0.0092 -0.3818
vn -0.8764 -0.3374 -0.3436
vn 0.9267 0.0090 -0.3756
vn 0.3788 -0.0542 -0.9239
vn 0.0000 -0.0219 -0.9998
vn -0.3571 -0.0527 -0.9326
vn 0.9706 -0.2138 -0.1102
vn -0.9706 -0.2139 -0.1103
vn 0.3104 0.2305 -0.9222
vn 0.5557 -0.0791 -0.8276
vn 0.1215 -0.0187 -0.9924
vn 0.3045 -0.3649 -0.8798
vn -0.0347 0.7183 -0.6949
vn 0.5536 -0.0284 -0.8323
vn -0.8099 -0.0083 -0.5864
vn -0.0418 -0.5824 -0.8118
vn 0.0352 0.7185 -0.6946
vn 0.8185 -0.0081 -0.5745
vn -0.5588 -0.0341 -0.8286
vn 0.0429 -0.5825 -0.8117
vn -0.3056 0.2295 -0.9241
vn -0.5512 -0.0783 -0.8307
vn -0.1207 -0.0200 -0.9925
vn -0.2958 -0.3621 -0.8840
vn -0.6671 -0.1664 -0.7261
vn -0.2773 -0.6080 -0.7440
vn 0.2249 -0.0955 -0.9697
vn -0.3536 0.3643 -0.8616
vn 0.0371 -0.7485 -0.6621
vn 0.9232 -0.0457 -0.3817
vn -0.8771 -0.1138 -0.4666
vn 0.0353 0.7341 -0.6781
vn -0.0374 -0.7307 -0.6817
vn 0.8416 -0.1121 -0.5284
vn -0.8977 -0.0530 -0.4374
vn -0.0373 0.6882 -0.7245
vn 0.2920 -0.6062 -0.7398
vn 0.6717 -0.1664 -0.7219
vn -0.2255 -0.0975 -0.9694
vn 0.3653 0.3662 -0.8559
vn -0.3290 0.9407 0.0820
vn 0.3670 -0.9256 -0.0930
vn 0.4013 -0.1571 -0.9024
vn 0.2820 0.1972 -0.9389
vn 0.2495 0.7733 0.5829
vn 0.4194 0.1631 -0.8930
vn -0.1645 -0.9814 -0.0987
vn 0.2467 0.9505 0.1889
vn -0.3123 0.1335 -0.9405
vn -0.4208 -0.9071 0.0026
vn -0.1807 0.6230 -0.7610
vn -0.5445 -0.8295 0.1241
vn -0.5823 -0.7418 0.3327
vn -0.4448 -0.1514 0.8828
vn -0.4983 0.0020 0.8670
vn 0.2324 0.1576 -0.9598
vn -0.2421 0.1197 -0.9628
vn 0.0000 -0.0125 -0.9999
vn 0.2421 0.1197 -0.9628
vn -0.2324 0.1576 -0.9598
usemtl Material.004
s 1
f 1/1/1 2/2/1 3/3/1 4/4/1
f 5/5/2 6/6/2 7/7/2 8/8/2
f 9/9/3 10/10/3 11/11/3 12/12/3
f 13/13/4 1/1/4 4/4/4 14/14/4
f 15/15/5 16/16/5 1/1/5 13/13/5
f 17/17/6 18/18/6 19/19/6 20/20/6
f 20/20/7 19/19/7 5/5/7 21/21/7
f 22/22/8 23/23/8 24/24/8 25/25/8
f 23/26/9 26/27/9 27/28/9 24/29/9
f 18/18/10 28/30/10 29/31/10 19/19/10
f 19/19/11 29/31/11 6/6/11 5/5/11
f 30/32/12 23/23/12 22/22/12 16/16/12
f 16/16/13 22/22/13 2/2/13 1/1/13
f 13/33/14 31/34/14 32/35/14 15/36/14
f 33/37/15 34/38/15 35/39/15 36/40/15
f 14/41/16 37/42/16 31/34/16 13/33/16
f 26/27/17 38/43/17 39/44/17 27/28/17
f 3/3/18 2/2/18 40/45/18 41/46/18
f 29/31/19 28/30/19 42/47/19 43/48/19
f 28/49/20 44/50/20 45/51/20 42/52/20
f 14/41/21 4/53/21 46/54/21 37/42/21
f 37/42/22 47/55/22 48/56/22 31/34/22
f 37/42/23 46/54/23 49/57/23 47/55/23
f 7/7/24 6/6/24 50/58/24 51/59/24
f 52/60/25 53/61/25 54/62/25 55/63/25
f 32/35/26 31/34/26 56/64/26 57/65/26
f 58/66/27 59/67/27 60/68/27 61/69/27
f 4/53/28 3/70/28 62/71/28 46/54/28
f 63/72/29 26/27/29 64/73/29 65/74/29
f 21/21/30 5/5/30 8/8/30 66/75/30
f 67/76/31 30/32/31 16/16/31 15/15/31
f 66/77/32 8/78/32 68/79/32 69/80/32
f 15/36/33 32/35/33 70/81/33 67/82/33
f 46/54/34 62/71/34 44/50/34 49/57/34
f 56/64/35 71/83/35 36/40/35 57/65/35
f 57/65/36 36/40/37 35/39/37 72/84/37 73/85/38
f 48/56/39 33/37/39 36/40/39 71/83/39
f 74/86/40 32/35/40 57/65/40 75/87/40
f 76/88/41 77/89/41 78/90/41 79/91/41
f 80/92/42 25/25/42 24/24/42
f 41/46/43 40/45/43 81/93/43
f 81/93/44 40/45/44 25/25/44 80/92/44
f 43/48/45 82/94/45 83/95/45 50/58/45
f 31/34/46 48/56/46 71/83/46 56/64/46
f 42/52/47 45/51/47 82/94/47
f 83/95/48 39/44/48 51/59/48
f 6/6/49 29/31/49 43/48/49 50/58/49
f 2/2/50 22/22/50 25/25/50 40/45/50
f 50/58/51 83/95/51 51/59/51
f 27/28/52 80/92/52 24/29/52
f 84/96/53 41/46/53 81/93/53
f 43/48/54 42/47/54 82/94/54
f 59/67/55 58/66/55 23/23/55 30/32/55
f 85/97/56 10/10/56 26/27/56 23/26/56
f 86/98/57 87/99/57 8/8/57 7/7/57
f 88/100/58 86/98/58 7/101/58
f 87/102/59 89/103/59 68/79/59 8/78/59
f 89/103/60 90/104/60 38/43/60 68/79/60
f 10/10/61 9/9/61 64/73/61 26/27/61
f 87/99/62 97/105/62 93/106/62
f 88/100/63 90/104/63 95/107/63 94/108/63
f 85/97/64 58/66/64 61/69/64 92/109/64
f 90/104/65 89/103/65 96/110/65 95/107/65
f 59/111/66 9/9/66 12/12/66 91/112/66
f 87/99/67 86/98/67 98/113/67 97/105/67
f 83/95/68 80/92/68 27/28/68 39/44/68
f 45/51/69 84/96/69 81/93/69 82/94/69
f 82/94/70 81/93/70 80/92/70 83/95/70
f 99/114/71 100/115/71 101/116/71 102/117/71
f 57/65/36 73/85/38 103/118/72 75/87/72
f 68/79/73 38/43/73 26/27/73 63/72/73 104/119/73
f 44/50/74 62/71/74 84/96/74 45/51/74
f 69/80/75 68/79/75 104/119/75 105/120/75
f 106/121/76 65/74/76 64/73/76 70/81/76
f 107/122/71 108/123/71 109/124/71 110/125/71
f 111/126/77 112/127/77 113/128/77 114/129/77
f 119/130/77 120/131/77 115/132/77 118/133/77
f 112/127/78 52/60/78 55/63/78 113/128/78
f 121/134/25 122/135/25 117/136/25 116/137/25
f 120/131/79 119/130/79 106/121/79 123/138/79
f 121/134/80 120/131/80 123/138/80 63/72/80
f 122/135/81 121/134/81 63/72/81 65/74/81
f 119/130/82 122/135/82 65/74/82 106/121/82
f 53/61/81 52/60/81 104/119/81 63/72/81
f 111/126/83 53/61/83 63/72/83 123/138/83
f 112/127/84 111/126/84 123/138/84 105/120/84
f 52/60/85 112/127/85 105/120/85 104/119/85
f 124/139/86 125/140/86 126/141/86 127/142/86
f 53/61/87 111/126/87 114/129/87 54/62/87
f 122/135/88 119/130/88 118/133/88 117/136/88
f 120/131/89 121/134/89 116/137/89 115/132/89
f 128/143/90 129/144/90 130/145/90 131/146/90
f 132/147/91 133/148/91 134/149/91 135/150/91
f 136/151/91 137/152/91 138/153/91 139/154/91
f 140/155/92 141/156/92 142/157/92 143/158/92
f 70/81/93 32/35/93 74/86/93
f 33/37/94 69/80/94 34/38/94
f 126/159/95 125/160/95 106/161/95 70/162/95
f 127/163/96 126/159/96 70/162/96 74/164/96
f 125/160/97 124/165/97 144/166/97 106/161/97
f 124/165/98 127/163/98 74/164/98 144/166/98
f 110/167/99 109/168/99 123/169/99 106/161/99
f 107/170/100 110/167/100 106/161/100 144/166/100
f 109/168/101 108/171/101 145/172/101 123/169/101
f 108/171/102 107/170/102 144/166/102 145/172/102
f 101/173/103 100/174/103 105/175/103 123/169/103
f 102/176/104 101/173/104 123/169/104 145/172/104
f 100/174/105 99/177/105 146/178/105 105/175/105
f 99/177/106 102/176/106 145/172/106 146/178/106
f 79/179/107 78/180/107 69/181/107 105/175/107
f 78/180/108 77/182/108 34/183/108 69/181/108
f 76/184/109 79/179/109 105/175/109 146/178/109
f 77/182/110 76/184/110 146/178/110 34/183/110
f 142/185/111 141/186/111 35/187/111 34/183/111
f 141/186/112 140/188/112 72/189/112 35/187/112
f 140/188/113 143/190/113 146/178/113 72/189/113
f 143/190/114 142/185/114 34/183/114 146/178/114
f 136/191/115 139/192/115 73/193/115 72/189/115
f 139/192/116 138/194/116 145/172/116 73/193/116
f 137/195/117 136/191/117 72/189/117 146/178/117
f 138/194/118 137/195/118 146/178/118 145/172/118
f 133/196/119 132/197/119 103/198/119 73/193/119
f 132/197/120 135/199/120 144/166/120 103/198/120
f 134/200/121 133/196/121 73/193/121 145/172/121
f 135/199/122 134/200/122 145/172/122 144/166/122
f 128/201/123 131/202/123 75/203/123 103/198/123
f 131/202/124 130/204/124 74/164/124 75/203/124
f 129/205/125 128/201/125 103/198/125 144/166/125
f 130/204/126 129/205/126 144/166/126 74/164/126
f 59/111/127 91/112/127 60/68/127
f 10/10/128 85/97/128 92/109/128 11/11/128
f 9/9/129 59/111/129 30/206/129 64/73/129
f 58/66/130 85/97/130 23/23/130
f 62/71/131 3/70/131 41/207/131 84/96/131
f 70/81/132 64/73/132 30/206/132 67/82/132
f 86/98/133 88/100/133 94/108/133 98/113/133
f 89/103/134 87/102/134 93/106/134 96/110/134
f 90/104/135 88/100/135 7/101/135 38/43/135
f 33/37/136 21/208/136 66/77/136 69/80/136
f 38/43/137 7/101/137 51/209/137 39/44/137
f 48/56/138 20/210/138 21/208/138 33/37/138
f 47/55/139 17/211/139 20/210/139 48/56/139
f 47/55/140 49/57/140 18/212/140 17/211/140
f 49/57/141 44/50/141 28/49/141 18/212/141
usemtl Material.005
f 91/213/142 92/214/142 61/215/142 60/216/142
f 93/217/143 94/218/143 95/219/143 96/220/143
f 115/221/144 116/222/144 117/223/144 118/224/144
f 113/225/144 55/226/144 54/227/144 114/228/144
f 12/229/145 11/230/145 92/214/145 91/213/145
f 97/231/146 98/232/146 94/218/146 93/217/146
