# Blender v2.90.1 OBJ File: ''
# www.blender.org
mtllib Skull01.mtl
o Skull01_Cube.011
v 0.233874 -0.073617 -0.558788
v 0.233874 0.417631 -0.545559
v 0.587846 0.429089 -0.425165
v 0.598424 0.005018 -0.387494
v -0.037787 -0.073617 0.614365
v -0.099919 0.417631 0.548090
v -0.408092 0.417631 0.548090
v -0.420372 -0.073617 0.599883
v -0.596989 -0.111936 -0.185245
v -0.576706 0.147873 -0.153145
v -0.470167 0.137164 -0.153145
v -0.490451 -0.122645 -0.185245
v 0.233874 -0.346966 -0.495506
v 0.598424 -0.267297 -0.387494
v -0.068544 -0.380270 -0.545877
v -0.037787 -0.073617 -0.611834
v 0.598424 -0.267297 0.390025
v 0.598424 0.005018 0.390025
v 0.233874 -0.073617 0.561319
v 0.233874 -0.346966 0.498037
v -0.068544 -0.380270 0.548408
v -0.099919 0.417631 -0.545559
v -0.408092 0.417631 -0.545559
v -0.293410 0.567418 -0.449467
v -0.098645 0.596807 -0.449467
v -0.589430 0.318059 -0.062491
v -0.355555 0.596807 -0.148979
v 0.587846 0.429089 0.427696
v 0.233874 0.417631 0.548090
v -0.420372 -0.073617 -0.597352
v 0.233874 -0.480841 -0.323738
v -0.169888 -0.480841 -0.383543
v -0.169888 -0.480841 0.386074
v -0.617893 -0.655086 0.296790
v -0.596905 -0.821427 0.269213
v -0.077872 -0.748074 0.305576
v 0.598424 -0.367868 -0.260567
v -0.589430 0.318059 0.065022
v -0.355555 0.596807 0.151510
v 0.201844 0.596807 -0.449467
v 0.512910 0.532089 -0.350229
v 0.512910 0.532089 0.352760
v 0.201844 0.596807 0.451998
v 0.739180 0.429089 0.143409
v 0.512910 0.585349 0.118430
v 0.749758 -0.095553 -0.145581
v 0.598424 -0.367868 0.263098
v 0.233874 -0.480841 0.326269
v 0.749758 -0.095553 0.148112
v -0.098645 0.596807 0.451998
v -0.293410 0.567418 0.451998
v -0.642559 -0.189490 0.059403
v -0.642559 -0.189490 0.023599
v -0.626388 -0.214464 0.032826
v -0.626388 -0.214464 0.059578
v 0.182506 -0.579955 -0.272319
v -0.077872 -0.748074 -0.303045
v -0.495744 0.209226 -0.399499
v -0.479739 -0.048691 -0.478432
v -0.419490 -0.053944 -0.478432
v -0.389206 0.198517 -0.399499
v 0.739180 0.429089 -0.140878
v -0.643286 -0.161024 0.001265
v -0.623107 -0.161024 -0.112110
v -0.643286 -0.161024 -0.055689
v -0.433094 -0.380270 0.604484
v -0.433094 -0.380270 -0.601953
v -0.623107 -0.161024 0.114641
v -0.619105 -0.480841 0.335045
v -0.619105 -0.480841 -0.332553
v 0.182506 -0.579955 0.274850
v -0.637804 -0.827541 0.141250
v -0.623486 -0.827541 0.001265
v -0.617893 -0.655086 -0.294314
v -0.596905 -0.821427 -0.266877
v -0.665132 -0.621064 0.197262
v -0.638424 -0.621063 0.286006
v -0.633086 -0.501080 0.295776
v -0.667852 -0.501079 0.202830
v -0.098645 0.726294 -0.148979
v 0.201844 0.726294 -0.148979
v 0.201844 0.726294 0.151510
v -0.098645 0.726294 0.151510
v 0.512910 0.585349 -0.115899
v -0.536225 0.192643 -0.276322
v -0.495744 0.209226 0.402030
v -0.479739 -0.048691 0.480963
v -0.536225 0.192643 0.278853
v -0.596989 -0.111936 0.187776
v -0.576706 0.147873 0.155676
v -0.454970 -0.102124 -0.331838
v -0.429687 0.181934 -0.276322
v -0.454970 -0.102124 0.334369
v -0.429687 0.181934 0.278853
v -0.470167 0.137164 0.155676
v -0.490451 -0.122645 0.187776
v -0.419490 -0.053944 0.480963
v -0.389206 0.198517 0.402030
v -0.683497 -0.621064 0.136957
v -0.685961 -0.501079 0.141910
v -0.685961 -0.501079 0.020622
v -0.683497 -0.621064 0.020622
v -0.637804 -0.827541 -0.144504
v -0.643286 -0.161024 0.064898
v -0.672211 -0.480841 0.162259
v -0.672211 -0.480841 -0.162350
v -0.683497 -0.621064 -0.138186
v -0.683497 -0.621064 -0.018705
v -0.685961 -0.501079 -0.018705
v -0.685961 -0.501079 -0.141901
v -0.653018 -0.393010 0.023599
v -0.653018 -0.393010 0.133779
v -0.624486 -0.366529 0.115150
v -0.624486 -0.366529 0.032826
v -0.624486 -0.366529 -0.029763
v -0.626388 -0.214464 -0.029763
v -0.626388 -0.214464 -0.053278
v -0.624486 -0.366529 -0.113260
v -0.653018 -0.393010 -0.132461
v -0.653018 -0.393010 -0.020711
v -0.642559 -0.189490 -0.020711
v -0.642559 -0.189490 -0.052182
v -0.657893 -0.480841 0.001265
v -0.665129 -0.621064 -0.198599
v -0.667844 -0.501079 -0.202780
v -0.633095 -0.501081 -0.293586
v -0.638428 -0.621063 -0.283817
v -0.663042 -0.781526 -0.182143
v -0.665774 -0.669209 -0.196284
v -0.637524 -0.673783 -0.259786
v -0.642466 -0.776952 -0.237722
v -0.680203 -0.781526 -0.133708
v -0.680203 -0.781526 -0.018214
v -0.682666 -0.669209 -0.018214
v -0.682666 -0.669209 -0.137423
v -0.680153 -0.783951 0.133054
v -0.682716 -0.666784 0.138208
v -0.682716 -0.666784 0.017803
v -0.680153 -0.783951 0.017803
v -0.663045 -0.781526 0.179260
v -0.642463 -0.776952 0.239653
v -0.637520 -0.673783 0.261834
v -0.665778 -0.669209 0.194661
v -0.670613 -0.648971 -0.157381
v -0.656296 -0.648971 0.001265
v -0.670613 -0.648971 0.155634
vt 0.460765 0.687774
vt 0.460019 0.691681
vt 0.457079 0.691980
vt 0.456635 0.689308
vt 0.447236 0.689717
vt 0.450401 0.695441
vt 0.448889 0.695035
vt 0.440529 0.688467
vt 0.472336 0.684975
vt 0.472319 0.689592
vt 0.471631 0.688652
vt 0.471901 0.686003
vt 0.459733 0.685585
vt 0.455313 0.687921
vt 0.464245 0.683229
vt 0.463574 0.686340
vt 0.454058 0.689232
vt 0.453761 0.690694
vt 0.449730 0.690207
vt 0.450236 0.688033
vt 0.447533 0.687015
vt 0.461879 0.691538
vt 0.465447 0.691133
vt 0.463857 0.693259
vt 0.460540 0.693905
vt 0.465437 0.692282
vt 0.465428 0.693431
vt 0.459023 0.696068
vt 0.461440 0.694664
vt 0.453491 0.693521
vt 0.451371 0.694360
vt 0.468360 0.684971
vt 0.458027 0.684974
vt 0.456321 0.684362
vt 0.465766 0.680332
vt 0.465005 0.681781
vt 0.447406 0.684737
vt 0.443480 0.680883
vt 0.438893 0.678563
vt 0.447135 0.682334
vt 0.455481 0.687757
vt 0.455649 0.687593
vt 0.459554 0.694648
vt 0.455870 0.698735
vt 0.459779 0.693532
vt 0.456500 0.693153
vt 0.453900 0.694783
vt 0.450769 0.696525
vt 0.454279 0.693261
vt 0.455067 0.693001
vt 0.455420 0.694857
vt 0.454660 0.694820
vt 0.455677 0.689307
vt 0.454719 0.689305
vt 0.453826 0.688429
vt 0.452527 0.686476
vt 0.455487 0.689958
vt 0.451124 0.698584
vt 0.450038 0.697063
vt 0.455531 0.683495
vt 0.456723 0.683638
vt 0.454710 0.683251
vt 0.455173 0.683042
vt 0.459565 0.682269
vt 0.467077 0.678229
vt 0.467645 0.689230
vt 0.467897 0.686064
vt 0.467681 0.686628
vt 0.468037 0.688571
vt 0.456124 0.692196
vt 0.455170 0.692412
vt 0.461117 0.683845
vt 0.473677 0.682766
vt 0.467632 0.683030
vt 0.443701 0.685903
vt 0.469320 0.681285
vt 0.445508 0.684731
vt 0.444543 0.686488
vt 0.448558 0.684509
vt 0.447315 0.683559
vt 0.467400 0.677319
vt 0.468360 0.679302
vt 0.453717 0.684556
vt 0.448324 0.675153
vt 0.442236 0.673246
vt 0.466400 0.669249
vt 0.463522 0.658342
vt 0.374461 0.618778
vt 0.374264 0.620413
vt 0.373081 0.621836
vt 0.372425 0.620356
vt 0.457167 0.698687
vt 0.456807 0.696476
vt 0.454004 0.699178
vt 0.452722 0.707943
vt 0.455013 0.694116
vt 0.469982 0.689411
vt 0.447325 0.693170
vt 0.440775 0.688905
vt 0.451208 0.692667
vt 0.454221 0.694842
vt 0.446228 0.687634
vt 0.451680 0.686364
vt 0.455092 0.692165
vt 0.250778 0.683288
vt 0.249944 0.704312
vt 0.239308 0.704527
vt 0.238428 0.683288
vt 0.250778 0.661969
vt 0.251613 0.682993
vt 0.240977 0.682777
vt 0.238428 0.661969
vt 0.433284 0.688873
vt 0.444013 0.687547
vt 0.461633 0.692225
vt 0.452360 0.692974
vt 0.469834 0.688611
vt 0.454741 0.686222
vt 0.470117 0.685520
vt 0.469791 0.686316
vt 0.443087 0.693724
vt 0.379173 0.617695
vt 0.376677 0.619258
vt 0.378728 0.617350
vt 0.380529 0.615797
vt 0.475052 0.664078
vt 0.453315 0.683893
vt 0.448515 0.681030
vt 0.467498 0.676538
vt 0.390393 0.612598
vt 0.386580 0.614626
vt 0.385718 0.616251
vt 0.389329 0.615161
vt 0.451487 0.679702
vt 0.450543 0.680667
vt 0.452759 0.680682
vt 0.450100 0.680499
vt 0.273103 0.659679
vt 0.273104 0.681530
vt 0.269725 0.681530
vt 0.261106 0.659680
vt 0.461023 0.677912
vt 0.460984 0.678699
vt 0.463486 0.679063
vt 0.459056 0.678689
vt 0.464635 0.683110
vt 0.464279 0.682802
vt 0.463253 0.682208
vt 0.465046 0.682419
vt 0.272935 0.681675
vt 0.264950 0.703526
vt 0.261106 0.703526
vt 0.261106 0.681675
vt 0.456290 0.677937
vt 0.396702 0.611562
vt 0.397620 0.614773
vt 0.393457 0.614935
vt 0.393234 0.610956
vt 0.404671 0.604171
vt 0.397268 0.608527
vt 0.390458 0.606968
vt 0.394133 0.601419
vt 0.396011 0.606976
vt 0.381641 0.611897
vt 0.380918 0.612807
vt 0.386869 0.609862
vt 0.377042 0.614793
vt 0.375526 0.616412
vt 0.375809 0.614735
vt 0.372426 0.613594
vt 0.374089 0.616021
vt 0.371223 0.617919
vt 0.369839 0.619108
vt 0.371249 0.617448
vt 0.255489 0.618035
vt 0.259652 0.617873
vt 0.256671 0.619181
vt 0.256573 0.619962
vt 0.255267 0.614057
vt 0.255573 0.611891
vt 0.258735 0.614662
vt 0.254623 0.613687
vt 0.251361 0.618262
vt 0.247750 0.619352
vt 0.245464 0.620580
vt 0.252426 0.615698
vt 0.248613 0.617726
vt 0.243160 0.617592
vt 0.240761 0.620450
vt 0.238710 0.622358
vt 0.237689 0.623673
vt 0.242562 0.618897
vt 0.241206 0.620795
vt 0.237082 0.620674
vt 0.234457 0.623456
vt 0.235114 0.624936
vt 0.236489 0.626202
vt 0.236297 0.623514
vt 0.232654 0.623526
vt 0.236494 0.621879
vt 0.231872 0.622208
vt 0.233256 0.621019
vt 0.228066 0.621205
vt 0.236121 0.619122
vt 0.237497 0.617796
vt 0.233282 0.620548
vt 0.239074 0.617893
vt 0.234459 0.616694
vt 0.231410 0.615889
vt 0.237841 0.617835
vt 0.237559 0.619512
vt 0.243673 0.614998
vt 0.258043 0.610076
vt 0.264225 0.606721
vt 0.248902 0.612962
vt 0.242951 0.615908
vt 0.266704 0.607271
vt 0.256165 0.604520
vt 0.252695 0.600985
vt 0.252491 0.610068
vt 0.259301 0.611628
vt 0.263129 0.683288
vt 0.260580 0.704097
vt 0.471019 0.683869
vt 0.455756 0.693635
vt 0.263129 0.661969
vt 0.262248 0.683208
vt 0.447470 0.685876
vt 0.452954 0.697899
vt 0.451381 0.687254
vt 0.453942 0.688830
vt 0.454624 0.690326
vn 0.3783 -0.0203 -0.9255
vn -0.0208 0.1182 0.9928
vn 0.0122 0.1217 -0.9925
vn 0.3758 -0.1068 -0.9205
vn 0.1853 -0.2231 -0.9570
vn 0.3758 -0.1068 0.9205
vn 0.1853 -0.2231 0.9570
vn -0.0299 0.5121 -0.8584
vn -0.7610 0.6230 -0.1807
vn 0.3783 -0.0203 0.9255
vn 0.0870 0.0858 0.9925
vn -0.0208 0.1182 -0.9928
vn 0.0870 0.0858 -0.9925
vn 0.1241 -0.8295 -0.5445
vn -0.0598 -0.2561 0.9648
vn 0.3327 -0.7418 -0.5823
vn -0.7661 0.6428 0.0000
vn 0.2977 0.5748 -0.7622
vn 0.2977 0.5748 0.7622
vn 0.5829 0.7733 0.2495
vn 0.8828 -0.1514 -0.4448
vn 0.2960 -0.9552 0.0000
vn 0.8741 -0.4858 0.0000
vn -0.0299 0.5121 0.8584
vn -0.8394 -0.5435 0.0000
vn 0.2053 -0.3113 -0.9279
vn -0.0282 -0.2947 0.9552
vn 0.8670 0.0020 -0.4983
vn -0.9788 0.1076 -0.1742
vn 0.0553 -0.1033 0.9931
vn 0.0553 -0.1033 -0.9931
vn -0.8930 0.1631 0.4194
vn 0.0026 -0.9071 -0.4209
vn 0.9998 0.0202 0.0000
vn 0.5424 -0.8401 0.0000
vn 0.1388 -0.9903 -0.0069
vn 0.1422 -0.9898 0.0027
vn 0.1386 -0.9903 -0.0074
vn 0.2053 -0.3113 0.9279
vn -0.0596 -0.2557 -0.9649
vn -0.9472 -0.0102 0.3205
vn -0.1373 0.9097 -0.3920
vn 0.3025 0.8753 -0.3772
vn 0.0000 0.9184 -0.3957
vn 0.0000 0.9184 0.3957
vn 0.8878 -0.4601 0.0000
vn 0.4219 0.8841 0.2009
vn -0.4429 0.8788 0.1776
vn 0.0000 0.4726 0.8813
vn 0.0000 0.4726 -0.8813
vn -0.1373 0.9097 0.3920
vn -0.4429 0.8788 -0.1776
vn 0.4219 0.8841 -0.2009
vn 0.3025 0.8753 0.3772
vn -0.8927 0.0732 -0.4447
vn -0.9405 0.1335 -0.3123
vn -0.8927 0.0732 0.4447
vn -0.9389 0.1972 0.2820
vn -0.9024 -0.1571 0.4013
vn -0.9482 0.1025 0.3006
vn -0.9482 0.1025 -0.3006
vn -0.9598 0.1576 -0.2324
vn -0.9628 0.1197 0.2421
vn 0.0820 0.9407 -0.3290
vn -0.0930 -0.9256 0.3670
vn -0.0987 -0.9814 -0.1645
vn 0.0122 0.1217 0.9925
vn 0.1889 0.9505 0.2467
vn -0.0282 -0.2947 -0.9552
vn -0.4501 0.8930 0.0000
vn 0.4127 0.9109 0.0000
vn 0.0000 1.0000 0.0000
vn -0.9998 -0.0205 0.0000
vn 0.1380 -0.9904 -0.0089
vn -0.9903 0.1113 0.0830
vn 0.5683 0.8229 0.0000
vn -0.9327 0.1889 0.3072
vn -0.9340 0.1909 -0.3020
vn -0.6803 0.7330 0.0000
vn -0.9999 -0.0125 0.0000
vn -0.3533 -0.3136 -0.8814
vn -0.9897 0.1333 0.0515
vn -0.9969 0.0477 -0.0626
vn -0.9997 -0.0255 0.0000
vn -0.6031 -0.2277 0.7645
vn -0.9970 0.0478 0.0616
vn -0.9896 0.1338 -0.0523
vn -0.6724 -0.1846 -0.7168
vn -0.9441 -0.0089 -0.3296
vn -0.3818 0.0092 0.9242
vn -0.3436 -0.3374 0.8764
vn -0.3756 0.0090 -0.9267
vn -0.9239 -0.0542 -0.3788
vn -0.9998 -0.0219 0.0000
vn -0.9326 -0.0527 0.3571
vn -0.1102 -0.2138 -0.9706
vn -0.1103 -0.2139 0.9706
vn -0.9222 0.2305 -0.3104
vn -0.8276 -0.0791 -0.5557
vn -0.9924 -0.0187 -0.1215
vn -0.8798 -0.3649 -0.3045
vn -0.6949 0.7183 0.0347
vn -0.8323 -0.0284 -0.5536
vn -0.5865 -0.0083 0.8099
vn -0.8118 -0.5824 0.0418
vn -0.6946 0.7185 -0.0352
vn -0.5745 -0.0081 -0.8185
vn -0.8286 -0.0341 0.5588
vn -0.8117 -0.5825 -0.0429
vn -0.9241 0.2295 0.3056
vn -0.8307 -0.0783 0.5512
vn -0.9925 -0.0200 0.1207
vn -0.8840 -0.3621 0.2958
vn -0.7261 -0.1664 0.6671
vn -0.7440 -0.6080 0.2773
vn -0.9697 -0.0955 -0.2249
vn -0.8616 0.3643 0.3536
vn -0.6621 -0.7485 -0.0371
vn -0.3817 -0.0457 -0.9232
vn -0.4666 -0.1138 0.8771
vn -0.6781 0.7341 -0.0353
vn -0.6817 -0.7307 0.0374
vn -0.5284 -0.1121 -0.8416
vn -0.4374 -0.0530 0.8977
vn -0.7245 0.6882 0.0373
vn -0.7398 -0.6062 -0.2920
vn -0.7219 -0.1664 -0.6717
vn -0.9694 -0.0975 0.2255
vn -0.8559 0.3662 -0.3653
vn 0.0820 0.9407 0.3290
vn -0.0930 -0.9256 -0.3670
vn -0.9628 0.1197 -0.2421
vn -0.9024 -0.1571 -0.4013
vn -0.9389 0.1972 -0.2820
vn 0.5829 0.7733 -0.2495
vn -0.8930 0.1631 -0.4194
vn -0.0987 -0.9814 0.1645
vn 0.1889 0.9505 -0.2467
vn -0.9598 0.1576 0.2324
vn -0.9405 0.1335 0.3123
vn 0.0026 -0.9071 0.4208
vn -0.7610 0.6230 0.1807
vn 0.1241 -0.8295 0.5445
vn 0.3327 -0.7418 0.5823
vn 0.8828 -0.1514 0.4448
vn 0.8670 0.0020 0.4983
usemtl Material
s 1
f 1/1/1 2/2/1 3/3/1 4/4/1
f 5/5/2 6/6/2 7/7/2 8/8/2
f 9/9/3 10/10/3 11/11/3 12/12/3
f 13/13/4 1/1/4 4/4/4 14/14/4
f 15/15/5 16/16/5 1/1/5 13/13/5
f 17/17/6 18/18/6 19/19/6 20/20/6
f 20/20/7 19/19/7 5/5/7 21/21/7
f 22/22/8 23/23/8 24/24/8 25/25/8
f 23/26/9 26/27/9 27/28/9 24/29/9
f 18/18/10 28/30/10 29/31/10 19/19/10
f 19/19/11 29/31/11 6/6/11 5/5/11
f 30/32/12 23/23/12 22/22/12 16/16/12
f 16/16/13 22/22/13 2/2/13 1/1/13
f 13/33/14 31/34/14 32/35/14 15/36/14
f 33/37/15 34/38/15 35/39/15 36/40/15
f 14/41/16 37/42/16 31/34/16 13/33/16
f 26/27/17 38/43/17 39/44/17 27/28/17
f 3/3/18 2/2/18 40/45/18 41/46/18
f 29/31/19 28/30/19 42/47/19 43/48/19
f 28/49/20 44/50/20 45/51/20 42/52/20
f 14/41/21 4/53/21 46/54/21 37/42/21
f 37/42/22 47/55/22 48/56/22 31/34/22
f 37/42/23 46/54/23 49/57/23 47/55/23
f 7/7/24 6/6/24 50/58/24 51/59/24
f 52/60/25 53/61/25 54/62/25 55/63/25
f 32/35/26 31/34/26 56/64/26 57/65/26
f 58/66/27 59/67/27 60/68/27 61/69/27
f 4/53/28 3/70/28 62/71/28 46/54/28
f 63/72/29 26/27/29 64/73/29 65/74/29
f 21/21/30 5/5/30 8/8/30 66/75/30
f 67/76/31 30/32/31 16/16/31 15/15/31
f 66/77/32 8/78/32 68/79/32 69/80/32
f 15/36/33 32/35/33 70/81/33 67/82/33
f 46/54/34 62/71/34 44/50/34 49/57/34
f 56/64/35 71/83/35 36/40/35 57/65/35
f 57/65/36 36/40/37 35/39/37 72/84/37 73/85/38
f 48/56/39 33/37/39 36/40/39 71/83/39
f 74/86/40 32/35/40 57/65/40 75/87/40
f 76/88/41 77/89/41 78/90/41 79/91/41
f 80/92/42 25/25/42 24/24/42
f 41/46/43 40/45/43 81/93/43
f 81/93/44 40/45/44 25/25/44 80/92/44
f 43/48/45 82/94/45 83/95/45 50/58/45
f 31/34/46 48/56/46 71/83/46 56/64/46
f 42/52/47 45/51/47 82/94/47
f 83/95/48 39/44/48 51/59/48
f 6/6/49 29/31/49 43/48/49 50/58/49
f 2/2/50 22/22/50 25/25/50 40/45/50
f 50/58/51 83/95/51 51/59/51
f 27/28/52 80/92/52 24/29/52
f 84/96/53 41/46/53 81/93/53
f 43/48/54 42/47/54 82/94/54
f 59/67/55 58/66/55 23/23/55 30/32/55
f 85/97/56 10/10/56 26/27/56 23/26/56
f 86/98/57 87/99/57 8/8/57 7/7/57
f 88/100/58 86/98/58 7/101/58
f 87/102/59 89/103/59 68/79/59 8/78/59
f 89/103/60 90/104/60 38/43/60 68/79/60
f 10/10/61 9/9/61 64/73/61 26/27/61
f 91/105/62 92/106/62 61/107/62 60/108/62
f 93/109/63 94/110/63 95/111/63 96/112/63
f 87/99/64 97/113/64 93/114/64
f 88/100/65 90/104/65 95/115/65 94/116/65
f 85/97/66 58/66/66 61/69/66 92/117/66
f 90/104/67 89/103/67 96/118/67 95/115/67
f 59/119/68 9/9/68 12/12/68 91/120/68
f 87/99/69 86/98/69 98/121/69 97/113/69
f 83/95/70 80/92/70 27/28/70 39/44/70
f 45/51/71 84/96/71 81/93/71 82/94/71
f 82/94/72 81/93/72 80/92/72 83/95/72
f 99/122/73 100/123/73 101/124/73 102/125/73
f 57/65/36 73/85/38 103/126/74 75/87/74
f 68/79/75 38/43/75 26/27/75 63/72/75 104/127/75
f 44/50/76 62/71/76 84/96/76 45/51/76
f 69/80/77 68/79/77 104/127/77 105/128/77
f 106/129/78 65/74/78 64/73/78 70/81/78
f 107/130/73 108/131/73 109/132/73 110/133/73
f 111/134/79 112/135/79 113/136/79 114/137/79
f 115/138/80 116/139/80 117/140/80 118/141/80
f 119/142/79 120/143/79 115/144/79 118/145/79
f 112/135/81 52/60/81 55/63/81 113/136/81
f 121/146/25 122/147/25 117/148/25 116/149/25
f 113/150/80 55/151/80 54/152/80 114/153/80
f 120/143/82 119/142/82 106/129/82 123/154/82
f 121/146/83 120/143/83 123/154/83 63/72/83
f 122/147/84 121/146/84 63/72/84 65/74/84
f 119/142/85 122/147/85 65/74/85 106/129/85
f 53/61/84 52/60/84 104/127/84 63/72/84
f 111/134/86 53/61/86 63/72/86 123/154/86
f 112/135/87 111/134/87 123/154/87 105/128/87
f 52/60/88 112/135/88 105/128/88 104/127/88
f 124/155/89 125/156/89 126/157/89 127/158/89
f 53/61/90 111/134/90 114/137/90 54/62/90
f 122/147/91 119/142/91 118/145/91 117/148/91
f 120/143/92 121/146/92 116/149/92 115/144/92
f 128/159/93 129/160/93 130/161/93 131/162/93
f 132/163/94 133/164/94 134/165/94 135/166/94
f 136/167/94 137/168/94 138/169/94 139/170/94
f 140/171/95 141/172/95 142/173/95 143/174/95
f 70/81/96 32/35/96 74/86/96
f 33/37/97 69/80/97 34/38/97
f 126/175/98 125/176/98 106/177/98 70/178/98
f 127/179/99 126/175/99 70/178/99 74/180/99
f 125/176/100 124/181/100 144/182/100 106/177/100
f 124/181/101 127/179/101 74/180/101 144/182/101
f 110/183/102 109/184/102 123/185/102 106/177/102
f 107/186/103 110/183/103 106/177/103 144/182/103
f 109/184/104 108/187/104 145/188/104 123/185/104
f 108/187/105 107/186/105 144/182/105 145/188/105
f 101/189/106 100/190/106 105/191/106 123/185/106
f 102/192/107 101/189/107 123/185/107 145/188/107
f 100/190/108 99/193/108 146/194/108 105/191/108
f 99/193/109 102/192/109 145/188/109 146/194/109
f 79/195/110 78/196/110 69/197/110 105/191/110
f 78/196/111 77/198/111 34/199/111 69/197/111
f 76/200/112 79/195/112 105/191/112 146/194/112
f 77/198/113 76/200/113 146/194/113 34/199/113
f 142/201/114 141/202/114 35/203/114 34/199/114
f 141/202/115 140/204/115 72/205/115 35/203/115
f 140/204/116 143/206/116 146/194/116 72/205/116
f 143/206/117 142/201/117 34/199/117 146/194/117
f 136/207/118 139/208/118 73/209/118 72/205/118
f 139/208/119 138/210/119 145/188/119 73/209/119
f 137/211/120 136/207/120 72/205/120 146/194/120
f 138/210/121 137/211/121 146/194/121 145/188/121
f 133/212/122 132/213/122 103/214/122 73/209/122
f 132/213/123 135/215/123 144/182/123 103/214/123
f 134/216/124 133/212/124 73/209/124 145/188/124
f 135/215/125 134/216/125 145/188/125 144/182/125
f 128/217/126 131/218/126 75/219/126 103/214/126
f 131/218/127 130/220/127 74/180/127 75/219/127
f 129/221/128 128/217/128 103/214/128 144/182/128
f 130/220/129 129/221/129 144/182/129 74/180/129
f 59/119/130 91/120/130 60/68/130
f 10/10/131 85/97/131 92/117/131 11/11/131
f 12/222/132 11/223/132 92/106/132 91/105/132
f 9/9/133 59/119/133 30/224/133 64/73/133
f 58/66/134 85/97/134 23/23/134
f 62/71/135 3/70/135 41/225/135 84/96/135
f 70/81/136 64/73/136 30/224/136 67/82/136
f 86/98/137 88/100/137 94/116/137 98/121/137
f 89/103/138 87/102/138 93/114/138 96/118/138
f 97/226/139 98/227/139 94/110/139 93/109/139
f 90/104/140 88/100/140 7/101/140 38/43/140
f 33/37/141 21/228/141 66/77/141 69/80/141
f 38/43/142 7/101/142 51/229/142 39/44/142
f 48/56/143 20/230/143 21/228/143 33/37/143
f 47/55/144 17/231/144 20/230/144 48/56/144
f 47/55/145 49/57/145 18/232/145 17/231/145
f 49/57/146 44/50/146 28/49/146 18/232/146
