# Blender v2.91.2 OBJ File: ''
# www.blender.org
mtllib Floor01.mtl
o ForestGround01_Cube.046
v 0.999999 -1.000000 -1.000000
v 0.999999 -1.000000 1.000000
v -1.000001 -1.000000 1.000000
v -1.000001 -1.000000 -1.000000
v 0.999999 0.400000 -1.000000
v -1.000001 0.400000 -1.000000
v -1.000001 0.400000 1.000000
v 0.999999 0.400000 1.000000
v 0.999999 1.000000 -0.999999
v -1.000001 1.000000 -1.000000
v -1.000001 1.000000 1.000000
v 0.999999 1.000000 1.000000
vt 0.940671 0.593465
vt 0.940268 0.623939
vt 0.970248 0.627467
vt 0.970650 0.596993
vt 0.938210 0.591207
vt 0.972709 0.594784
vt 0.972709 0.629725
vt 0.938210 0.626148
vt 0.821423 0.830505
vt 0.821423 0.811964
vt 0.802882 0.811964
vt 0.802882 0.830505
vt 0.787534 0.832051
vt 0.787534 0.834122
vt 0.796534 0.834122
vt 0.796534 0.832051
vt 0.805535 0.834122
vt 0.805535 0.832051
vt 0.814535 0.834122
vt 0.814535 0.832051
vt 0.823536 0.834122
vt 0.823536 0.832051
vn 0.0000 -1.0000 -0.0000
vn 0.0000 0.0000 -1.0000
vn -1.0000 0.0000 0.0000
vn 0.0000 -0.0000 1.0000
vn 1.0000 0.0000 0.0000
vn -0.0000 1.0000 0.0000
usemtl dirt.002
s 1
f 1/1/1 2/2/1 3/3/1 4/4/1
f 5/5/2 1/1/2 4/4/2 6/6/2
f 3/3/3 7/7/3 6/6/3 4/4/3
f 2/2/4 8/8/4 7/7/4 3/3/4
f 1/1/5 5/5/5 8/8/5 2/2/5
f 9/9/6 10/10/6 11/11/6 12/12/6
f 5/13/5 9/14/5 12/15/5 8/16/5
f 8/16/4 12/15/4 11/17/4 7/18/4
f 7/18/3 11/17/3 10/19/3 6/20/3
f 9/21/2 5/22/2 6/20/2 10/19/2
