# Blender v2.90.1 OBJ File: ''
# www.blender.org
mtllib PathBlock01D.mtl
o Floor01_Cube.001
v 1.000000 -1.365970 -1.000000
v 1.000000 -1.365970 1.000000
v -1.000000 -1.365970 1.000000
v -1.000000 -1.365970 -1.000000
v 1.000000 0.074030 1.000000
v 1.000000 0.594030 1.000000
v -1.000000 0.594030 0.999999
v -1.000000 0.074030 1.000000
v 0.960001 0.634030 -0.960000
v -0.959999 0.634030 -0.960000
v -0.960001 0.634030 0.959999
v 0.959999 0.634030 0.960000
v -1.000000 0.594030 -1.000000
v -1.000000 0.074030 -1.000000
v 1.000000 -0.005970 -1.000000
v -1.000000 -0.005970 -1.000000
v 1.000000 -0.005970 1.000000
v 1.000000 0.074030 -1.000000
v 1.000000 0.594030 -1.000000
v 0.984890 0.034030 0.984890
v 0.984890 0.034030 -0.984889
v -1.000000 -0.005970 1.000000
v -0.984890 0.034030 -0.984890
v -0.984890 0.034030 0.984889
vt 0.186755 0.682369
vt 0.165343 0.690255
vt 0.179655 0.672616
vt 0.186169 0.675412
vt 0.749172 0.659244
vt 0.754996 0.670490
vt 0.722597 0.681760
vt 0.716594 0.676878
vt 0.738932 0.700610
vt 0.723474 0.697551
vt 0.723165 0.682254
vt 0.754636 0.671737
vt 0.722942 0.697972
vt 0.716510 0.702403
vt 0.194567 0.687707
vt 0.194614 0.671676
vt 0.181152 0.705416
vt 0.741877 0.709026
vt 0.739358 0.701344
vt 0.756129 0.671587
vt 0.767090 0.679576
vt 0.767534 0.680352
vt 0.742176 0.709765
vt 0.180954 0.662333
vt 0.154279 0.667005
vt 0.715923 0.702891
vt 0.181019 0.661873
vt 0.194985 0.671465
vt 0.154385 0.666392
vt 0.194985 0.687865
vt 0.181696 0.705587
vt 0.715923 0.676425
vt 0.748461 0.658605
vn 0.0000 -1.0000 0.0000
vn -0.0000 0.0000 1.0000
vn 0.0000 1.0000 -0.0000
vn -1.0000 0.0000 0.0000
vn 0.0000 -0.0000 -1.0000
vn 1.0000 0.0000 0.0000
vn 0.9355 -0.3534 0.0000
vn 0.7071 0.7071 0.0000
vn 0.0000 0.7071 -0.7071
vn -0.0000 0.7071 0.7071
vn -0.7071 0.7071 -0.0000
vn 0.0000 -0.3534 -0.9355
vn -0.9355 0.3534 -0.0000
vn -0.0000 0.3534 0.9355
vn 0.9355 0.3534 -0.0000
vn -0.0000 -0.3534 0.9355
vn -0.9355 -0.3534 0.0000
vn 0.0000 0.3534 -0.9355
usemtl None.001
s 1
f 1/1/1 2/2/1 3/3/1 4/4/1
f 5/5/2 6/6/2 7/7/2 8/8/2
f 9/9/3 10/10/3 11/11/3 12/12/3
f 8/8/4 7/7/4 13/13/4 14/14/4
f 15/15/5 1/1/5 4/4/5 16/16/5
f 1/1/6 15/15/6 17/17/6 2/2/6
f 18/18/6 19/19/6 6/20/6 5/21/6
f 18/18/7 5/21/7 20/22/7 21/23/7
f 3/3/4 22/24/4 16/16/4 4/4/4
f 2/2/2 17/25/2 22/24/2 3/3/2
f 9/9/8 12/12/8 6/20/8 19/19/8
f 19/19/9 13/13/9 10/10/9 9/9/9
f 12/12/10 11/11/10 7/7/10 6/6/10
f 11/11/11 10/10/11 13/13/11 7/7/11
f 21/23/12 23/26/12 14/14/12 18/18/12
f 24/27/13 23/28/13 16/16/13 22/24/13
f 20/29/14 24/27/14 22/24/14 17/25/14
f 21/30/15 20/31/15 17/17/15 15/15/15
f 19/19/5 18/18/5 14/14/5 13/13/5
f 5/5/16 8/8/16 24/32/16 20/33/16
f 8/8/17 14/14/17 23/26/17 24/32/17
f 15/15/18 16/16/18 23/28/18 21/30/18
