# Blender v2.90.1 OBJ File: ''
# www.blender.org
mtllib Bridge01D.mtl
o Bridge_Cube.009
v 0.502219 -0.547444 -0.701155
v 0.502219 -0.547444 -1.001155
v 1.002219 -0.547444 -1.001155
v 1.002219 -0.547444 -0.701155
v 0.502219 0.252556 -0.701155
v 1.002219 0.252556 -0.701154
v 1.002219 0.252556 -1.001155
v 0.502219 0.252556 -1.001155
v 1.002219 -0.267444 -1.001155
v 1.002219 -0.267444 -0.701154
v -0.997781 -0.267444 -0.701155
v -0.997781 0.252556 -0.701156
v -0.997780 0.252556 -1.001155
v -0.997781 -0.267444 -1.001155
v 0.502219 -0.267444 -1.001155
v 1.002219 -0.267444 0.698846
v 1.002219 0.252556 0.698845
v 1.002219 0.252556 0.998845
v 1.002219 -0.267444 0.998845
v 0.502219 0.252556 0.998845
v 0.502219 0.252556 0.698845
v 0.502219 -0.267444 0.698845
v -0.997781 -0.267444 0.998845
v -0.997781 0.252556 0.998844
v -0.997781 0.252556 0.698844
v -0.997781 -0.267444 0.698844
v 0.502219 -0.267444 -0.701155
v 0.502219 -0.267444 0.998845
v 0.502219 -0.547444 0.998845
v 1.002219 -0.547444 0.998845
v 0.502219 -0.547444 0.698845
v 1.002219 -0.547444 0.698846
v -0.997781 -0.547444 0.998845
v -0.997781 -0.547444 0.698845
v -0.997781 -0.547444 -0.701155
v -0.997781 -0.547444 -1.001155
v -0.497781 -0.267444 -1.001155
v -0.497781 -0.547444 -1.001155
v 0.002219 -0.267444 -1.001155
v 0.002219 -0.547444 -1.001155
v -0.497781 -0.267444 0.998845
v -0.497781 0.252556 0.998844
v 0.002219 -0.267444 0.998845
v 0.002219 0.252556 0.998845
v -0.497781 -0.547444 -0.701155
v -0.497781 -0.547444 0.698845
v 0.002219 -0.547444 -0.701155
v 0.002219 -0.547444 0.698845
v -0.497781 -0.547444 0.998845
v 0.002219 -0.547444 0.998845
v -0.497781 -0.267444 0.698845
v -0.497781 -0.267444 -0.701155
v 0.002219 -0.267444 0.698845
v 0.002219 -0.267444 -0.701155
v -0.497781 0.252556 -0.701156
v 0.002219 0.252556 -0.701155
v -0.497781 0.252556 0.698844
v 0.002219 0.252556 0.698845
v -0.497780 0.252556 -1.001155
v 0.002220 0.252556 -1.001155
v -0.755880 0.488405 0.851301
v -0.623187 0.223019 0.983994
v -0.623187 0.223019 0.718608
v -0.888573 0.223019 0.983994
v -0.888573 0.223019 0.718608
v -0.260352 0.493473 0.849636
v -0.127659 0.228088 0.982329
v -0.127659 0.228088 0.716943
v -0.393045 0.228088 0.982329
v -0.393045 0.228088 0.716943
v 0.259854 0.490938 0.857993
v 0.392547 0.225553 0.990686
v 0.392547 0.225553 0.725301
v 0.127161 0.225553 0.990686
v 0.127161 0.225553 0.725301
v 0.743059 0.501075 0.849687
v 0.875752 0.235689 0.982380
v 0.875752 0.235689 0.716995
v 0.610367 0.235689 0.982380
v 0.610367 0.235689 0.716995
v -0.755880 0.488405 -0.849541
v -0.623187 0.223019 -0.716848
v -0.623187 0.223019 -0.982233
v -0.888573 0.223019 -0.716848
v -0.888573 0.223019 -0.982233
v -0.260352 0.493473 -0.851206
v -0.127659 0.228088 -0.718513
v -0.127659 0.228088 -0.983898
v -0.393045 0.228088 -0.718513
v -0.393045 0.228088 -0.983898
v 0.259854 0.490938 -0.842849
v 0.392547 0.225553 -0.710156
v 0.392547 0.225553 -0.975541
v 0.127161 0.225553 -0.710156
v 0.127161 0.225553 -0.975541
v 0.743059 0.501075 -0.851154
v 0.875752 0.235689 -0.718462
v 0.875752 0.235689 -0.983847
v 0.610367 0.235689 -0.718462
v 0.610367 0.235689 -0.983847
vt 0.672921 0.659037
vt 0.670758 0.667972
vt 0.660869 0.668413
vt 0.654584 0.659451
vt 0.666015 0.692657
vt 0.665718 0.692231
vt 0.665803 0.692074
vt 0.666312 0.692274
vt 0.656876 0.680478
vt 0.647163 0.683062
vt 0.680193 0.703504
vt 0.668430 0.694142
vt 0.668538 0.693827
vt 0.679137 0.696384
vt 0.666364 0.680928
vt 0.655014 0.673576
vt 0.663271 0.683217
vt 0.663201 0.683391
vt 0.655409 0.680053
vt 0.663537 0.683693
vt 0.663748 0.683338
vt 0.663936 0.670314
vt 0.669689 0.693133
vt 0.665262 0.684734
vt 0.665367 0.684572
vt 0.675404 0.692216
vt 0.647163 0.698198
vt 0.656726 0.686288
vt 0.649018 0.689992
vt 0.647614 0.683364
vt 0.830929 0.699034
vt 0.830929 0.702821
vt 0.795838 0.702821
vt 0.795838 0.699034
vt 0.643143 0.691674
vt 0.643143 0.681041
vt 0.830929 0.671008
vt 0.795838 0.671008
vt 0.795838 0.667221
vt 0.830929 0.667221
vt 0.795838 0.661919
vt 0.830929 0.661919
vt 0.666699 0.700769
vt 0.670421 0.706562
vt 0.830929 0.682370
vt 0.830929 0.687672
vt 0.795838 0.687672
vt 0.795838 0.682370
vt 0.694513 0.694645
vt 0.688848 0.691817
vt 0.676820 0.688638
vt 0.686855 0.683072
vt 0.672632 0.683757
vt 0.680853 0.673802
vt 0.663667 0.692338
vt 0.664814 0.684538
vt 0.659496 0.690049
vt 0.664154 0.684135
vt 0.795838 0.678583
vt 0.830929 0.678583
vt 0.795838 0.674796
vt 0.830929 0.674796
vt 0.658545 0.706792
vt 0.660099 0.700863
vt 0.649017 0.701003
vt 0.653242 0.696723
vt 0.830929 0.691459
vt 0.795838 0.691459
vt 0.830929 0.695247
vt 0.795838 0.695247
vt 0.668558 0.710925
vt 0.667688 0.693896
vt 0.655983 0.708474
vt 0.666746 0.693320
vt 0.665066 0.684202
vt 0.677554 0.681309
vt 0.664448 0.683709
vt 0.672584 0.673410
vt 0.668013 0.693373
vt 0.667148 0.692767
vt 0.694762 0.680729
vt 0.686819 0.667645
vt 0.108884 0.684945
vt 0.127557 0.666272
vt 0.127557 0.703618
vt 0.090211 0.666272
vt 0.090211 0.703618
vt 0.107707 0.684610
vt 0.126380 0.665937
vt 0.126380 0.703283
vt 0.089034 0.665937
vt 0.089034 0.703283
vt 0.111126 0.683629
vt 0.129799 0.702302
vt 0.092453 0.702302
vt 0.129799 0.664956
vt 0.092453 0.664956
vt 0.110397 0.683629
vt 0.129070 0.702302
vt 0.091725 0.702302
vt 0.129070 0.664956
vt 0.091725 0.664956
vt 0.111602 0.684610
vt 0.130275 0.703283
vt 0.092929 0.703283
vt 0.130275 0.665937
vt 0.092929 0.665937
vt 0.111602 0.686824
vt 0.130275 0.705497
vt 0.092929 0.705497
vt 0.130275 0.668151
vt 0.092929 0.668151
vt 0.109136 0.685926
vt 0.090463 0.704599
vt 0.090463 0.667253
vt 0.127809 0.704599
vt 0.127809 0.667253
vt 0.110874 0.686571
vt 0.129547 0.705244
vt 0.092201 0.705244
vt 0.129547 0.667898
vt 0.092201 0.667898
vn 0.0000 -1.0000 -0.0000
vn -0.0000 1.0000 0.0000
vn 1.0000 0.0000 0.0000
vn -1.0000 0.0000 -0.0000
vn 0.0000 0.0000 -1.0000
vn -0.0000 -0.0000 1.0000
vn 0.8944 0.4472 0.0000
vn 0.0000 0.4472 0.8944
vn -0.8944 0.4472 0.0000
vn 0.0000 0.4472 -0.8944
usemtl Material.001
s 1
f 1/1/1 2/2/1 3/3/1 4/4/1
f 5/5/2 6/6/2 7/7/2 8/8/2
f 9/9/3 7/7/3 6/6/3 10/10/3
f 11/11/4 12/12/4 13/13/4 14/14/4
f 15/15/5 8/8/5 7/7/5 9/9/5
f 16/16/3 17/17/3 18/18/3 19/19/3
f 20/20/2 18/18/2 17/17/2 21/21/2
f 22/22/5 21/21/5 17/17/5 16/16/5
f 23/23/4 24/24/4 25/25/4 26/26/4
f 27/27/6 10/10/6 6/6/6 5/5/6
f 28/28/6 29/29/6 30/30/6 19/19/6
f 22/31/2 16/32/2 10/33/2 27/34/2
f 29/29/1 31/35/1 32/36/1 30/30/1
f 31/37/1 1/38/1 4/39/1 32/40/1
f 20/20/6 28/28/6 19/19/6 18/18/6
f 4/39/3 10/41/3 16/42/3 32/40/3
f 33/43/4 23/23/4 26/26/4 34/44/4
f 34/45/4 26/46/4 11/47/4 35/48/4
f 32/36/3 16/16/3 19/19/3 30/30/3
f 2/2/5 15/15/5 9/9/5 3/3/5
f 35/49/4 11/11/4 14/14/4 36/50/4
f 3/3/3 9/9/3 10/10/3 4/4/3
f 36/50/5 14/14/5 37/51/5 38/52/5
f 38/52/5 37/51/5 39/53/5 40/54/5
f 40/54/5 39/53/5 15/15/5 2/2/5
f 24/24/6 23/23/6 41/55/6 42/56/6
f 42/56/6 41/55/6 43/57/6 44/58/6
f 44/58/6 43/57/6 28/28/6 20/20/6
f 34/45/1 35/48/1 45/59/1 46/60/1
f 46/60/1 45/59/1 47/61/1 48/62/1
f 48/62/1 47/61/1 1/38/1 31/37/1
f 33/43/1 34/44/1 46/63/1 49/64/1
f 49/64/1 46/63/1 48/65/1 50/66/1
f 50/66/1 48/65/1 31/35/1 29/29/1
f 26/46/2 51/67/2 52/68/2 11/47/2
f 51/67/2 53/69/2 54/70/2 52/68/2
f 53/69/2 22/31/2 27/34/2 54/70/2
f 23/23/6 33/43/6 49/64/6 41/55/6
f 41/55/6 49/64/6 50/66/6 43/57/6
f 43/57/6 50/66/6 29/29/6 28/28/6
f 11/11/6 52/71/6 55/72/6 12/12/6
f 52/71/6 54/73/6 56/74/6 55/72/6
f 54/73/6 27/27/6 5/5/6 56/74/6
f 26/26/5 25/25/5 57/75/5 51/76/5
f 51/76/5 57/75/5 58/77/5 53/78/5
f 53/78/5 58/77/5 21/21/5 22/22/5
f 24/24/2 42/56/2 57/75/2 25/25/2
f 42/56/2 44/58/2 58/77/2 57/75/2
f 44/58/2 20/20/2 21/21/2 58/77/2
f 14/14/5 13/13/5 59/79/5 37/51/5
f 37/51/5 59/79/5 60/80/5 39/53/5
f 39/53/5 60/80/5 8/8/5 15/15/5
f 12/12/2 55/72/2 59/79/2 13/13/2
f 55/72/2 56/74/2 60/80/2 59/79/2
f 56/74/2 5/5/2 8/8/2 60/80/2
f 35/49/1 36/50/1 38/52/1 45/81/1
f 45/81/1 38/52/1 40/54/1 47/82/1
f 47/82/1 40/54/1 2/2/1 1/1/1
f 61/83/7 62/84/7 63/85/7
f 61/83/8 64/86/8 62/84/8
f 61/83/9 65/87/9 64/86/9
f 61/83/10 63/85/10 65/87/10
f 66/88/7 67/89/7 68/90/7
f 66/88/8 69/91/8 67/89/8
f 66/88/9 70/92/9 69/91/9
f 66/88/10 68/90/10 70/92/10
f 71/93/7 72/94/7 73/95/7
f 71/93/8 74/96/8 72/94/8
f 71/93/9 75/97/9 74/96/9
f 71/93/10 73/95/10 75/97/10
f 76/98/7 77/99/7 78/100/7
f 76/98/8 79/101/8 77/99/8
f 76/98/9 80/102/9 79/101/9
f 76/98/10 78/100/10 80/102/10
f 81/103/7 82/104/7 83/105/7
f 81/103/8 84/106/8 82/104/8
f 81/103/9 85/107/9 84/106/9
f 81/103/10 83/105/10 85/107/10
f 86/108/7 87/109/7 88/110/7
f 86/108/8 89/111/8 87/109/8
f 86/108/9 90/112/9 89/111/9
f 86/108/10 88/110/10 90/112/10
f 91/113/7 92/114/7 93/115/7
f 91/113/8 94/116/8 92/114/8
f 91/113/9 95/117/9 94/116/9
f 91/113/10 93/115/10 95/117/10
f 96/118/7 97/119/7 98/120/7
f 96/118/8 99/121/8 97/119/8
f 96/118/9 100/122/9 99/121/9
f 96/118/10 98/120/10 100/122/10
