# Blender v2.90.1 OBJ File: ''
# www.blender.org
mtllib Step01D.mtl
o Steps01_Cube.031
v -0.960000 -1.585970 -1.000000
v -0.960000 -0.925970 -1.000001
v 0.960000 -0.925970 -1.000000
v 0.960000 -1.585970 -1.000000
v -0.960000 -0.225970 -1.000001
v -0.960000 0.334030 -1.000001
v 0.960000 0.334030 -1.000000
v 0.960000 -0.225970 -1.000000
v 1.000000 0.374030 -0.373334
v 1.000000 0.374030 -0.960000
v -0.960000 0.374030 -0.960001
v -0.960000 0.374030 -0.373334
v 1.000000 -0.265970 -0.373334
v 1.000000 -0.225970 -0.960000
v -1.000000 -0.265970 -0.373334
v -1.000000 0.334030 -0.373334
v -1.000000 0.334030 -0.960001
v -1.000000 -0.225970 -0.960001
v -1.000000 -0.925970 -0.333334
v -1.000000 -0.925970 -0.960000
v 1.000000 -0.925970 -0.333334
v 1.000000 -0.925970 -0.960000
v 1.000000 -0.965970 0.959999
v 1.000000 -1.585970 0.960000
v 1.000000 -1.585970 0.333333
v 1.000000 -0.965970 0.293333
v 0.960000 -1.625970 -0.333333
v -1.000000 -1.625970 -0.333334
v -1.000000 -1.625970 -0.960000
v 0.960000 -1.625970 -0.960000
v 1.000000 -1.585970 -0.333333
v 1.000000 -1.585970 -0.960000
v -0.960000 -0.925970 0.959999
v 0.960000 -0.925970 0.959999
v 0.960000 -0.925970 0.333333
v -0.960000 -0.925970 0.333333
v 0.960000 -0.265970 0.333333
v -0.960000 -0.265970 0.333333
v -1.000000 -1.625970 0.333333
v -1.000000 -0.965970 0.293333
v -1.000000 -1.625970 0.960000
v -1.000000 -0.965970 0.959999
v 0.960000 -1.625970 0.333333
v 1.000000 -0.265970 0.293333
v -1.000000 -0.265970 0.293333
v 0.960000 -0.225970 -0.333334
v -0.960000 -0.225970 -0.333334
v -0.960000 -0.225970 0.293333
v 0.960000 -0.225970 0.293333
v 0.960000 -1.625970 0.999999
v 0.960000 -0.965970 0.999999
v -0.960000 -0.965970 0.999999
v -0.960000 -1.625970 1.000000
v 0.960000 0.334030 -0.333334
v -0.960000 0.334030 -0.333334
vt 0.751364 0.679601
vt 0.745842 0.679601
vt 0.745842 0.661092
vt 0.751364 0.661092
vt 0.739985 0.679601
vt 0.735300 0.679601
vt 0.735300 0.661092
vt 0.739985 0.661092
vt 0.724479 0.689130
vt 0.729387 0.689130
vt 0.729387 0.708026
vt 0.724479 0.708026
vt 0.722471 0.660706
vt 0.722471 0.665069
vt 0.717562 0.664796
vt 0.717562 0.660706
vt 0.740208 0.694255
vt 0.740208 0.700039
vt 0.735300 0.700039
vt 0.735300 0.694641
vt 0.740543 0.687892
vt 0.735300 0.687892
vt 0.722806 0.669568
vt 0.717562 0.669568
vt 0.733627 0.669841
vt 0.733627 0.674067
vt 0.728383 0.674067
vt 0.728049 0.669841
vt 0.722806 0.674612
vt 0.722806 0.687974
vt 0.717562 0.687974
vt 0.717562 0.674612
vt 0.722806 0.674067
vt 0.717562 0.674067
vt 0.717562 0.708026
vt 0.717562 0.689516
vt 0.722806 0.689516
vt 0.722806 0.708026
vt 0.758225 0.681530
vt 0.758225 0.700039
vt 0.752703 0.700039
vt 0.752703 0.681530
vt 0.740543 0.681144
vt 0.735300 0.681144
vt 0.746121 0.681144
vt 0.745786 0.687507
vt 0.751364 0.681144
vt 0.751364 0.687507
vt 0.728383 0.674612
vt 0.728383 0.687974
vt 0.728049 0.665069
vt 0.745786 0.694255
vt 0.758281 0.661092
vt 0.758281 0.679601
vt 0.753038 0.679601
vt 0.753038 0.661092
vt 0.765086 0.700039
vt 0.759564 0.700039
vt 0.759564 0.681530
vt 0.765086 0.681530
vt 0.764639 0.679601
vt 0.759954 0.679601
vt 0.759954 0.661092
vt 0.764639 0.661092
vt 0.717228 0.674340
vt 0.729722 0.708026
vt 0.729387 0.708411
vt 0.717562 0.689130
vt 0.717228 0.689516
vt 0.717562 0.708411
vt 0.717228 0.708026
vt 0.724479 0.708411
vt 0.724144 0.708026
vt 0.752703 0.661092
vt 0.753038 0.660706
vt 0.758560 0.700039
vt 0.758225 0.700425
vt 0.751699 0.661092
vt 0.751699 0.679987
vt 0.734965 0.700039
vt 0.734965 0.694641
vt 0.734965 0.660706
vt 0.739985 0.660706
vt 0.729722 0.689516
vt 0.734965 0.687892
vt 0.745842 0.660706
vt 0.764751 0.700425
vt 0.759564 0.700425
vt 0.759564 0.681144
vt 0.765086 0.681144
vt 0.734965 0.681530
vt 0.751364 0.660706
vt 0.733961 0.674612
vt 0.758615 0.660706
vt 0.758615 0.679987
vt 0.753038 0.679987
vt 0.723140 0.708411
vt 0.723140 0.689130
vt 0.752368 0.681144
vt 0.758225 0.681144
vt 0.752368 0.700425
vt 0.758560 0.681530
vt 0.764974 0.679987
vt 0.759619 0.679987
vt 0.759954 0.660706
vt 0.764974 0.660706
vt 0.724144 0.689516
vt 0.733961 0.687701
vt 0.733627 0.687974
vn 0.0000 -0.0000 -1.0000
vn 0.0000 1.0000 -0.0000
vn 1.0000 0.0000 0.0000
vn -1.0000 0.0000 0.0000
vn -0.0000 -1.0000 0.0000
vn 0.0000 0.0000 1.0000
vn 0.5773 -0.5774 -0.5774
vn -0.5773 0.5774 -0.5774
vn 0.5774 0.5774 0.5773
vn -0.5773 0.5774 0.5773
vn -0.5773 0.5774 0.5774
vn 0.5774 0.5773 0.5774
vn 0.7071 -0.7071 0.0000
vn 0.0000 -0.7071 -0.7071
vn -0.7071 -0.0000 -0.7071
vn 0.7071 -0.0000 -0.7071
vn -0.7071 0.7071 -0.0000
vn 0.0000 0.7071 -0.7071
vn 0.7071 0.0000 0.7071
vn -0.7071 0.0000 0.7071
vn 0.0000 0.7071 0.7071
vn 0.7071 0.7071 -0.0000
usemtl None
s 1
f 1/1/1 2/2/1 3/3/1 4/4/1
f 5/5/1 6/6/1 7/7/1 8/8/1
f 9/9/2 10/10/2 11/11/2 12/12/2
f 9/13/3 13/14/3 14/15/3 10/16/3
f 15/17/4 16/18/4 17/19/4 18/20/4
f 19/21/4 15/17/4 18/20/4 20/22/4
f 13/14/3 21/23/3 22/24/3 14/15/3
f 2/2/1 5/5/1 8/8/1 3/3/1
f 23/25/3 24/26/3 25/27/3 26/28/3
f 27/29/5 28/30/5 29/31/5 30/32/5
f 21/23/3 31/33/3 32/34/3 22/24/3
f 33/35/2 34/36/2 35/37/2 36/38/2
f 37/39/6 38/40/6 36/41/6 35/42/6
f 28/43/4 19/21/4 20/22/4 29/44/4
f 39/45/4 40/46/4 19/21/4 28/43/4
f 41/47/4 42/48/4 40/46/4 39/45/4
f 43/49/5 39/50/5 28/30/5 27/29/5
f 44/51/3 26/28/3 21/23/3 13/14/3
f 26/28/3 25/27/3 31/33/3 21/23/3
f 40/46/4 45/52/4 15/17/4 19/21/4
f 46/53/2 47/54/2 48/55/2 49/56/2
f 50/57/6 51/58/6 52/59/6 53/60/6
f 46/61/6 54/62/6 55/63/6 47/64/6
f 32/34/7 30/32/7 4/65/7
f 6/66/8 17/67/8 11/11/8
f 23/68/9 34/36/9 51/69/9
f 42/70/10 52/71/10 33/35/10
f 12/12/11 16/72/11 55/73/11
f 49/56/12 37/74/12 44/75/12
f 48/76/11 45/77/11 38/40/11
f 27/29/13 30/32/13 32/34/13 31/33/13
f 1/1/14 4/4/14 30/78/14 29/79/14
f 18/20/15 17/19/15 6/80/15 5/81/15
f 8/8/16 7/7/16 10/82/16 14/83/16
f 12/12/17 11/11/17 17/67/17 16/72/17
f 11/11/18 10/10/18 7/84/18 6/66/18
f 20/22/15 18/20/15 5/81/15 2/85/15
f 3/3/16 8/8/16 14/83/16 22/86/16
f 24/87/19 23/88/19 51/58/19 50/57/19
f 53/60/20 52/59/20 42/89/20 41/90/20
f 29/44/15 20/22/15 2/85/15 1/91/15
f 4/4/16 3/3/16 22/86/16 32/92/16
f 34/36/21 33/35/21 52/71/21 51/69/21
f 50/93/13 43/49/13 25/27/13 24/26/13
f 43/49/13 27/29/13 31/33/13 25/27/13
f 44/75/22 13/94/22 46/53/22 49/56/22
f 48/55/17 47/54/17 15/95/17 45/96/17
f 33/35/17 36/38/17 40/97/17 42/70/17
f 23/68/22 26/98/22 35/37/22 34/36/22
f 26/99/19 44/100/19 37/39/19 35/42/19
f 45/77/20 40/101/20 36/41/20 38/40/20
f 38/40/21 37/39/21 49/102/21 48/76/21
f 13/103/19 9/104/19 54/62/19 46/61/19
f 16/105/20 15/106/20 47/64/20 55/63/20
f 9/9/21 12/12/21 55/73/21 54/107/21
f 50/93/5 53/108/5 41/109/5 39/50/5 43/49/5
